<?xml version="1.0" encoding="utf-8"?>
<!-- Generator: Adobe Illustrator 17.0.0, SVG Export Plug-In . SVG Version: 6.00 Build 0)  -->
<!DOCTYPE svg PUBLIC "-//W3C//DTD SVG 1.1//EN" "http://www.w3.org/Graphics/SVG/1.1/DTD/svg11.dtd">
<svg version="1.1" id="Layer_1" xmlns="http://www.w3.org/2000/svg" xmlns:xlink="http://www.w3.org/1999/xlink" x="0px" y="0px"
	 width="1280px" height="4410px" viewBox="0 0 1280 4410" enable-background="new 0 0 1280 4410" xml:space="preserve">
<g>
	<defs>
		<rect id="SVGID_1_" y="-0.023" width="1280" height="4410.047"/>
	</defs>
	<clipPath id="SVGID_2_">
		<use xlink:href="#SVGID_1_"  overflow="visible"/>
	</clipPath>
	<rect y="-0.023" clip-path="url(#SVGID_2_)" fill="none" width="1280" height="4410.047"/>
	<g opacity="0.3" clip-path="url(#SVGID_2_)">
		<path fill="none" stroke="#EC0044" stroke-miterlimit="10" d="M1357.611,1291.014c1.941-0.541,3.859-1.078,5.799-1.641
			c0.025,0.104,0.05,0.186,0.076,0.287c-1.883,0.475-3.781,0.971-5.706,1.445C1357.76,1291.109,1357.611,1291.014,1357.611,1291.014
			 M1638.028,1871.436l-0.479-1.488l-1.122,1.289L1638.028,1871.436z M1636.799,1893.918c0.588,0.223,1.398,0.311,1.664,0.732
			c0.268,0.4-0.053,1.162-0.129,1.783c-0.882-0.354-1.787-0.707-2.672-1.061C1636.034,1894.881,1636.427,1894.41,1636.799,1893.918
			 M1619.873,829.252c-2.493,2.549-3.047,23.016-4.61,24.613c-1.235-1.805-3.972-22.336-4.514-24.34
			c-0.272-0.979-0.285-37.277,0.425-37.164C1613.111,792.734,1617.035,827.682,1619.873,829.252 M1609.323,729.17
			c1.376,3.621,2.132,31.307,3.141,35.025c0.248,0.918,0.782,6.539-0.283,6.771c-1.228,0.26-2.45,1.141-2.825,0.145
			c-1.291-3.52-0.925-37.725-1.808-41.385L1609.323,729.17z M1614.041,881.246c11.172,17.289,11.436,20.938,5.043,38.828
			c-1.152-0.797-3.252-1.576-3.314-2.461C1615.088,907.121,1614.71,896.596,1614.041,881.246 M1620.395,955.32
			c1.461,3.615,3.868,7.146,4.176,10.877c0.402,4.943-0.553,10.068-1.326,15.063c-2.544,16.092-1.623,31.945,2.371,47.711
			c1.227,4.887,3.73,10.645,2.281,14.844c-7.5,21.848,9.221,176.6,6.927,198.383c-2.275,21.742-1.646,43.791-1.989,65.717
			c-0.102,7.59-0.42,15.459,1.303,22.723c7.117,29.973,2.853,60.627,6.137,90.846c1.824,16.707,1.883,33.674,1.729,50.529
			c-0.551,57.443,1.519,114.758,7.918,171.881c5.726,51.137,11.433,102.256,17.136,153.391c0.374,3.355,1.308,6.744,1.103,10.059
			c-1.056,16.09,0.297,31.926,2.689,47.883c1.917,12.67-1.814,20.439-6.837,18.592c-8.131-2.994-6.912-10.592-8.082-17.051
			c-5.373-29.822-5.613-60.383-12.837-89.977c-1.787-7.303-1.569-15.105-2.229-22.664c-0.685-7.578,0.063-15.566-2.188-22.621
			c-6.32-19.773-5.341-39.971-5.957-60.221c-0.879-28.652-2.791-57.281-4.596-85.893c-1.126-17.688-2.848-35.326-4.32-52.977
			c-0.136-1.689-0.497-3.348-0.51-5.043c-0.542-45.576-0.941-91.158-1.65-136.746c-0.162-11.773-1.297-23.527-1.85-35.307
			c-0.264-5.053-0.381-10.133-0.251-15.182c0.726-26.945,2.976-53.955,1.826-80.818c-0.775-18.633-6.534-170.494-5.754-189.051
			c0.548-13.459,0.016-27.08-1.499-40.492C1611.721,998.57,1614.1,977.752,1620.395,955.32 M1583.824,2868.348
			c9.546-17.615,24.421-25.828,39.111-33.539c8.811-4.623,18.906-7.254,28.717-9.379c9.461-2.047,14.443-6.273,16.303-16.256
			c3.939-21.008,4.554-41.934,1.773-63.037c-0.652-5.018-1.967-10.004-2.063-15.045c-1.166-64.15-9.334-128.102-5.879-192.414
			c1.631-30.373,2.265-60.785,3.254-91.193c0.271-8.445,0.771-16.943,0.195-25.352c-4.646-69.912-6.503-139.967-9.5-209.971
			c-1.193-27.813-4.285-55.563-5.809-83.359c-0.635-11.693-10.066-155.293-10.084-167.053c-0.005-4.857-1.23-9.744-2.289-14.557
			c-2.142-9.785-2.979-19.486-1.384-28.857c7.34-1.396,10.038,2.643,10.845,6.473c2.787,13.17,16.415,158.24,17.81,171.635
			c2.195,20.947,3.218,42.027,4.964,63.057c0.388,4.613,0.326,9.846,6.29,13.389c5.295-8.914-0.012-17.322,1.271-25.338
			c1.226-7.451,1.651-15.201,1.198-22.727c-1.743-29.482-4.165-58.938-5.948-88.396c-0.812-13.463-1.384-26.998-0.854-40.436
			c0.738-19.566-0.699-38.727-4.803-57.896c-2.262-10.627-2.416-21.742-2.935-32.674c-0.069-1.59,2.865-4.445,4.715-4.713
			c1.95-0.293,5.161,1.283,6.188,3.016c1.629,2.762,3.157,6.559,2.563,9.502c-3.28,16.246,1.313,31.939,2.628,47.84
			c3.022,37.035,6.621,74.002,9.58,111.039c1.954,24.387,2.776,48.869,4.854,73.25c6.018,70.639,12.327,141.264,18.739,211.883
			c2.143,23.533,5.235,46.982,7.316,70.539c1.634,18.51,2.713,37.066-4.814,54.967c-1.536,3.621-1.938,8.645-0.763,12.373
			c6.766,21.449,4.095,43.602,5.671,65.443c1.86,26.088,3.723,52.197,5.855,78.273c2.867,35.346,6.535,70.656,8.744,106.051
			c1.061,16.779,0.047,33.773-0.913,50.621c-1.462,25.221-15.849,42.279-37.222,53.611c-8.829,4.664-18.822,7.332-28.47,10.297
			c-14.503,4.436-29.147,8.424-43.753,12.473C1611.756,2875.563,1598.645,2877.809,1583.824,2868.348 M969.383,1823.322
			c0.143-3.377-0.592-6.961,0.543-9.822c7.731-19.438,14.571-39.373,24.161-57.877c11.097-21.363,27.551-25.1,48.409-13.713
			c3.663,2.012,7.12,4.424,10.65,6.689c6.866,4.391,10.746,10.383,10.203,18.818c-0.451,6.697-0.006,13.563-1.293,20.066
			c-6.597,33.588-25.981,46.443-64.119,45.938C988.05,1833.297,978.309,1829.857,969.383,1823.322 M1016.828,754.896
			c4.902,47.451-49.635,81.334-91.61,62.58c-5.901-2.637-9.428-6.699-9.129-13.576c1.293-29.594,9.04-58.064,15.291-86.76
			c2.413-11.063,13.104-18.514,25.046-16.74c16.436,2.402,33.935,4.078,42.939,21.938c1.447,2.873,4.261,5.229,6.853,7.307
			C1014.934,736.602,1018.079,745.664,1016.828,754.896 M1070.78,2479.195c2.479,5.184,3.45,9.441,6.032,12.201
			c24.312,26.121,51.395,48.959,82.975,65.914c12.066,6.48,25.22,9.502,39.22,7.238c13.339-2.176,26.912-3.264,40.054-6.297
			c7.142-1.633,14.229-5.459,20.18-9.83c19.064-14.041,37.516-28.904,56.34-43.244c8.743-6.666,17.503-13.352,26.799-19.174
			c16.661-10.443,34.86-12.084,53.682-7.119c20.702,5.463,39.436,15.104,56.474,27.961c16.181,12.215,31.835,25.15,48.19,37.131
			c30.92,22.627,51.469,53.459,68.447,86.783c7.893,15.508,5.28,32.365-6.506,45.076c-25.999,28.049-54.944,52.568-91.218,66.842
			c-6.257,2.465-12.781,4.527-18.636,7.779c-38.16,21.221-79.684,26.506-122.396,26.389c-2.522-0.016-5.034-0.752-7.56-0.85
			c-9.592-0.449-15.53-5.338-18.815-14.268c-4.971-13.529-9.836-26.939-10.209-41.66c-0.342-13.504-1.717-26.984-2.45-40.492
			c-0.281-5.051-0.55-10.186,0.038-15.193c2.654-22.109,11.169-29.715,33.451-27.361c41.678,4.424,82.692-1.646,123.817-6.543
			c4.752-0.559,9.332-2.68,16.228-4.76c-3.112-5.01-4.58-8.771-7.215-11.363c-22.565-22.123-49.628-37.854-77.242-52.502
			c-20.421-10.826-40.009-10.633-58.526,5.969c-15.716,14.1-33.492,25.459-52.862,34.43c-12.986,6.023-24.862,14.334-37.525,21.133
			c-39.06,20.988-78.11,18.043-116.526-1.611c-28.796-14.723-54.157-34.533-77.416-56.896
			c-17.045-16.393-33.42-33.514-49.773-50.641c-5.805-6.072-10.819-12.982-15.788-19.773c-5.847-7.973-7.517-16.848-4.379-26.432
			c1.293-3.984,3.944-8.172,3.487-11.977c-2.638-22.064,6.228-41.531,13.345-61.271c2.471-6.867,7.024-13.371,11.886-18.916
			c8.645-9.846,20.025-12.451,32.35-8.068c37.836,13.457,77.349,17.498,116.939,20.029c20.148,1.271,40.521-0.799,60.774-1.393
			c10.136-0.277,20.28-0.865,30.409-0.854c6.698,0.02,11.756,4.139,12.75,10.318c1.186,7.285,2.101,15.492-0.082,22.266
			c-5.498,17.023-9.365,34.061-10.485,51.967c-0.751,12.17-6.754,22.371-15.937,30.773c-10.813,9.877-21.99,14.293-36.896,8.576
			c-23.65-9.074-47.728-17.057-71.822-24.914c-9.561-3.137-19.591-5.076-29.545-6.811
			C1081.001,2477.076,1076.786,2478.498,1070.78,2479.195 M1357.611,1291.014c1.843-5.602-0.225-9.871-4.554-13.363
			c-11.846-9.527-23.419-19.418-35.639-28.479c-27.812-20.654-55.938-40.863-83.91-61.283
			c-28.651-20.906-57.382-41.707-85.86-62.852c-20.336-15.07-38.819-32.639-61.188-45.016c-3.473-1.916-6.938-5.547-8.358-9.188
			c-7.771-19.873-8.078-39.662,4.373-57.941c5.188-7.627,11.845-14.242,17.924-21.266c7.008-8.08,15.651-9.428,25.261-5.65
			c3.935,1.52,7.66,3.551,11.444,5.453c37.107,18.574,75.888,32.818,115.018,46.592c36.025,12.668,72.413,22.799,110.075,28.926
			c12.637,2.055,24.883,2.244,39.612-0.24c-2.381-5.311-3.019-9.998-5.693-12.09c-9.912-7.836-19.955-15.77-30.933-21.947
			c-29.456-16.551-59.62-31.854-89.134-48.342c-37.564-20.973-74.726-42.668-112.137-63.916
			c-31.498-17.912-63.077-35.736-94.729-53.352c-12.772-7.088-19.299-20.219-19.25-35.186c0.086-22.639,7.053-43.033,17.209-62.764
			c10.288-20.004,23.369-25.246,43.725-15.406c26.775,12.93,54.599,22.4,83.234,30.184c23.618,6.387,46.453,15.727,70.137,21.762
			c37.627,9.582,75.677,17.492,113.547,26.111c7.412,1.701,14.77,3.592,23.767-0.605c-1.08-3.857-1.44-7.873-3.295-11.037
			c-1.587-2.764-4.62-4.967-7.464-6.682c-24.604-14.801-49.112-29.793-74.063-44.039c-31.545-18.014-63.783-34.877-95.098-53.293
			c-13.683-8.043-27.269-15.76-41.8-22.381c-26.851-12.264-51.359-28.721-72.767-49.781c12.317,2.295,23.584,7.012,34.274,13.285
			c23.397,13.691,47.72,25.346,72.903,35.428c11.695,4.678,23.034,10.59,33.898,17.063c29.031,17.252,57.412,35.672,86.672,52.543
			c15.311,8.818,31.537,16.42,48.078,22.684c23.35,8.82,38.118,27.502,54.242,44.555c3.313,3.494,3.126,11.027,3.189,16.729
			c0.088,10.02-2.154,20.207-1.123,30.082c1.645,15.93-4.353,28.613-15.269,38.537c-9.901,9.01-21.165,17.066-32.983,23.369
			c-14.34,7.676-29.854,9.326-46.658,6.504c-43.564-7.338-85.007-21.982-127.168-34.137c-12.77-3.678-25.343-8.027-39.001-8.92
			c13.534,9.352,77.585,55.15,82.597,57.701c42.01,21.504,84.402,42.246,126.317,63.918c15.713,8.098,30.567,17.889,45.63,27.236
			c6.058,3.766,8.659,9.834,9.652,17.004c2.619,18.799-2.381,34.932-15.14,49.031c-33.327,36.82-74.85,50.604-123.46,44.129
			c-14.201-1.887-28.217-5.201-42.326-7.83c-5.625-1.035-11.248-2.031-18.063-3.262c5.133,19.082,13.733,33.258,30.168,42.318
			c5.781,3.18,10.297,8.605,15.505,12.863c5.854,4.787,11.668,9.68,17.833,14.063c19.967,14.156,40.109,28.098,60.151,42.146
			c23.478,16.461,47.326,32.432,70.258,49.643c16.841,12.639,32.804,26.535,48.408,40.674c8.76,7.947,9.103,25.709,1.382,37.809
			c-3.54,5.57-8.798,10.121-13.661,14.734c-6.887,6.502-14.507,7.207-23.283,3.084c-17.578-8.225-35.236-16.363-53.242-23.535
			c-82.422-32.82-164.89-65.313-252.052-84.162c-42.092-9.098-129.662-24.207-172.625-28.719
			c-19.311-2.031-38.682-3.479-58.032-4.971c-15.14-1.156-30.342-1.797-45.482-3.016c-6.639-0.537-11.067-5.389-10.081-12.15
			c4.284-29.227,7.796-58.629,18.548-86.506c5.609-14.51,61.949-17.279,77.214-17.512c33.701-1.473,196.124,45.449,241.78,67.619
			c8.343,4.061,97.736,45.549,116.98,54.094c12.332,5.477,24.532,11.248,36.674,17.148c2.916,1.424,5.338,3.898,8.009,5.889
			c1.925-0.475,3.823-0.971,5.706-1.445c-0.026-0.102-0.051-0.184-0.076-0.287
			C1361.471,1289.936,1359.553,1290.473,1357.611,1291.014 M1361.027,2283.92c-3.806-4.301-7.181-9.135-11.517-12.832
			c-46.329-39.439-92.578-78.947-139.339-117.877c-18.146-15.102-37.648-28.555-56.166-43.188
			c-7.794-6.15-16.918-11.58-17.865-23.322c-1.07-13.16,2.111-25.453,9.127-36.199c6.433-9.85,14.114-18.994,22.109-27.65
			c10.934-11.848,23.684-13.83,39.268-6.738c18.455,8.414,36.927,16.762,54.981,25.979c34.713,17.689,72.206,28.516,107.611,44.52
			c32.389,14.627,65.948,26.225,100.202,35.705c4.623,1.289,9.498,1.715,15.644,2.77c-1.147-4.457-1.046-7.336-2.433-8.824
			c-5.787-6.135-11.58-12.414-18.156-17.666c-34.934-27.971-69.46-56.539-105.452-83.121
			c-25.076-18.541-52.127-34.457-78.588-51.076c-22.146-13.916-44.429-27.619-67.188-40.477
			c-16.106-9.113-33.195-16.533-49.668-25.012c-13.513-6.975-26.97-14.119-40.043-21.857c-4.094-2.406-8.552-6.49-9.936-10.75
			c-6.253-19.156-7.327-38.086,6.118-55.375c5.655-7.295,10.477-15.236,15.982-22.672c10.755-14.504,24.507-18.184,39.825-9.115
			c23.447,13.857,48.611,23.529,73.678,33.74c30.493,12.455,60.355,26.447,90.551,39.621c22.441,9.789,44.902,19.598,67.532,28.945
			c21.198,8.729,43.524,13.52,66.154,16.77c2.997,0.43,6.291-1.289,10.711-2.287c-1.289-3.996-1.469-7.666-3.367-9.92
			c-13.123-15.551-27.748-29.504-44.917-40.703c-14.149-9.221-28.24-18.568-41.845-28.557
			c-23.127-16.996-47.885-31.541-71.308-48.191c-14.824-10.514-31.729-18.914-47.59-28.494
			c-40.506-24.443-81.438-48.203-122.885-71.014c-42.148-23.189-84.455-46.314-127.936-66.844
			c-35.372-16.707-65.053-38.873-87.428-70.846c-8.246-11.754-16.349-23.594-24.772-35.215
			c-10.845-14.988-12.404-30.855-5.438-47.863c3.87-9.41,5.91-18.984,6.343-29.443c0.711-16.898,7.864-29.117,25.359-37.012
			c19.116-8.627,37.729-13.615,58.57-12.521c10.899,0.58,21.95-1,32.853-2.219c36.925-4.111,73.824-8.287,110.687-12.854
			c19.472-2.42,33.747,2.619,28.896,31.131c-2.425,14.098-6.156,28.068-10.478,41.736c-2.253,7.086-6.683,13.623-10.872,19.924
			c-6.536,9.857-15.079,14.404-27.922,12.838c-30.241-3.723-60.675-3.469-91.028-0.326c-13.479,1.395-26.564,3.723-39.008,13.197
			c8.095,16.865,19.483,30.094,32.804,41.686c18.072,15.727,38.711,27.332,61.403,34.795c21.788,7.15,43.597,4.793,64.353-4.176
			c10.791-4.688,21.326-10.52,30.889-17.346c22.01-15.699,43.471-32.18,64.953-48.602c18.982-14.492,39.192-26.475,62.463-32.76
			c14.117-3.82,28.076-4.121,42.568-1.219c48.65,9.719,90.53,32.014,126.487,65.895c11.062,10.451,22.042,20.99,33.44,31.098
			c17.094,15.148,21.347,33.98,15.805,55.244c-4.761,18.295-12.339,35.037-29.831,45.309c-4.235,2.48-7.632,6.555-11.069,10.219
			c-14.196,15.215-31.906,25.289-51.225,31.609c-34.748,11.357-70.448,17.959-107.286,14.586
			c-6.704-0.617-13.345-2.166-19.975-3.469c-12.552-2.49-21.892-8.51-24.533-22.203c-0.615-3.219-1.707-6.934-3.875-9.195
			c-16.812-17.623-12.437-39.58-11.935-60.311c0.313-13.658,14.914-26.223,29-27.498c5.002-0.445,10.141-0.154,15.149,0.434
			c37.217,4.492,74.276,0.166,111.372-1.887c1.464-0.084,2.832-1.447,4.306-2.236c2.231-4.768-0.622-8.115-3.622-11.002
			c-31.55-30.434-70.022-46.654-112.64-53.621c-18.134-2.971-35.082,0.852-50.156,12.547
			c-15.334,11.936-31.502,22.789-47.202,34.266c-34.354,25.166-70.433,46.771-112.977,55.203c-1.413,0.268-2.561,1.932-3.939,3.021
			c-1.889,5.5,2.705,7.492,5.977,9.52c40.234,24.824,204.586,125.176,245.256,152.424c25.466,17.078,53.342,29.193,79.697,44.311
			c16.091,9.219,32.107,18.607,48.102,27.998c19.924,11.697,33.312,28.145,37.778,51.348c1.438,7.422,3.947,14.67,6.164,21.934
			c7.594,24.803,0.241,45.771-21.869,58.664c-18.547,10.793-39.183,15.375-60.406,17.355c-5.83,0.523-11.698,0.553-17.309,0.797
			c-3.179,5.35,0.125,8.098,3.659,10.465c14.733,9.816,28.217,21.342,42.521,31.732c29.418,21.393,55.132,46.914,70.105,81.67
			c8.691,20.146,11.422,40.057,7.977,61.539c-2.969,18.611-13.604,29.76-30.044,37.652c-27.739,13.281-55.297,12.707-83.559,2.137
			c-43.541-16.268-87.209-32.158-130.84-48.154c-8.551-3.141-17.211-5.965-25.564-8.846c-4.157,6.566,0.2,9.271,2.802,11.66
			c8.08,7.418,16.845,14.084,24.918,21.482c24.31,22.275,47.83,45.436,72.75,66.98c21.071,18.18,43.504,34.832,65.696,51.68
			c14.792,11.24,30.431,21.369,45.284,32.564c10.089,7.6,19.296,16.355,29.191,24.254c9.186,7.307,18.845,14.063,28.169,21.219
			c13.494,10.326,17.424,25.037,10.98,40.305c-5.23,12.359-26.413,24.281-39.702,21.928c-4.957-0.879-9.789-2.631-14.539-4.389
			c-71.307-26.406-142.249-53.898-214.001-79.045c-63.771-22.352-178.048-51.664-242.873-70.641
			c-32.245-9.445-66.234-12.92-99.447-18.975c-4.979-0.898-10.127-0.943-15.127-1.779c-15.306-2.576-20.389-9.156-17.324-24.709
			c3.266-16.555,7.49-32.947,11.928-49.221c3.492-12.781,12.52-21.918,22.609-29.844c7.237-5.691,16.09-4.609,24.45-3.92
			c26.159,2.145,101.902,14.807,127.205,21.971c30.852,8.76,151.683,45.943,180.819,57.113
			c27.393,10.523,54.34,22.184,81.472,33.359C1358.821,2286.414,1359.924,2285.168,1361.027,2283.92"/>
	</g>
	<g opacity="0.3" clip-path="url(#SVGID_2_)">
		<path fill="none" stroke="#EC0044" stroke-miterlimit="10" d="M1820.111,233.87c0.541,1.941,1.078,3.859,1.641,5.799
			c-0.104,0.025-0.186,0.05-0.287,0.076c-0.475-1.883-0.971-3.781-1.445-5.706C1820.016,234.019,1820.111,233.87,1820.111,233.87
			 M1239.689,514.287l1.488-0.479l-1.289-1.122L1239.689,514.287z M1217.207,513.058c-0.223,0.588-0.311,1.398-0.732,1.664
			c-0.4,0.268-1.162-0.053-1.783-0.129c0.354-0.882,0.707-1.787,1.061-2.672C1216.244,512.293,1216.715,512.686,1217.207,513.058
			 M2281.873,496.132c-2.549-2.493-23.016-3.047-24.613-4.61c1.805-1.235,22.336-3.972,24.34-4.514
			c0.979-0.272,37.277-0.285,37.164,0.425C2318.391,489.37,2283.443,493.294,2281.873,496.132 M2381.955,485.582
			c-3.621,1.376-31.307,2.132-35.025,3.141c-0.918,0.248-6.539,0.782-6.771-0.283c-0.26-1.228-1.141-2.45-0.145-2.825
			c3.52-1.291,37.725-0.925,41.385-1.808L2381.955,485.582z M2229.879,490.3c-17.289,11.172-20.938,11.436-38.828,5.043
			c0.797-1.152,1.576-3.252,2.461-3.314C2204.004,491.347,2214.529,490.969,2229.879,490.3 M2155.805,496.654
			c-3.615,1.461-7.146,3.868-10.877,4.176c-4.943,0.402-10.068-0.553-15.063-1.326c-16.092-2.544-31.945-1.623-47.711,2.371
			c-4.887,1.227-10.645,3.73-14.844,2.281c-21.848-7.5-176.6,9.221-198.383,6.927c-21.742-2.275-43.791-1.646-65.717-1.989
			c-7.59-0.102-15.459-0.42-22.723,1.303c-29.973,7.117-60.627,2.853-90.846,6.137c-16.707,1.824-33.674,1.883-50.529,1.729
			c-57.443-0.551-114.758,1.519-171.881,7.918c-51.137,5.726-102.256,11.433-153.391,17.136c-3.355,0.374-6.744,1.308-10.059,1.103
			c-16.09-1.056-31.926,0.297-47.883,2.689c-12.67,1.917-20.439-1.814-18.592-6.837c2.994-8.131,10.592-6.912,17.051-8.082
			c29.822-5.373,60.383-5.613,89.977-12.837c7.303-1.787,15.105-1.569,22.664-2.229c7.578-0.685,15.566,0.063,22.621-2.188
			c19.773-6.32,39.971-5.341,60.221-5.957c28.652-0.879,57.281-2.791,85.893-4.596c17.688-1.126,35.326-2.848,52.977-4.32
			c1.689-0.136,3.348-0.497,5.043-0.51c45.576-0.542,91.158-0.941,136.746-1.65c11.773-0.162,23.527-1.297,35.307-1.85
			c5.053-0.264,10.133-0.381,15.182-0.251c26.945,0.726,53.955,2.976,80.818,1.826c18.633-0.775,170.494-6.534,189.051-5.754
			c13.459,0.548,27.08,0.016,40.492-1.499C2112.555,487.98,2133.373,490.359,2155.805,496.654 M242.777,460.083
			c17.615,9.546,25.828,24.421,33.539,39.111c4.623,8.811,7.254,18.906,9.379,28.717c2.047,9.461,6.273,14.443,16.256,16.303
			c21.008,3.939,41.934,4.554,63.037,1.773c5.018-0.652,10.004-1.967,15.045-2.063c64.15-1.166,128.102-9.334,192.414-5.879
			c30.373,1.631,60.785,2.265,91.193,3.254c8.445,0.271,16.943,0.771,25.352,0.195c69.912-4.646,139.967-6.503,209.971-9.5
			c27.813-1.193,55.563-4.285,83.359-5.809c11.693-0.635,155.293-10.066,167.053-10.084c4.857-0.005,9.744-1.23,14.557-2.289
			c9.785-2.142,19.486-2.979,28.857-1.384c1.396,7.34-2.643,10.038-6.473,10.845c-13.17,2.787-158.24,16.415-171.635,17.81
			c-20.947,2.195-42.027,3.218-63.057,4.964c-4.613,0.388-9.846,0.326-13.389,6.29c8.914,5.295,17.322-0.012,25.338,1.271
			c7.451,1.226,15.201,1.651,22.727,1.198c29.482-1.743,58.938-4.165,88.396-5.948c13.463-0.812,26.998-1.384,40.436-0.854
			c19.566,0.738,38.727-0.699,57.896-4.803c10.627-2.262,21.742-2.416,32.674-2.935c1.59-0.069,4.445,2.865,4.713,4.715
			c0.293,1.95-1.283,5.161-3.016,6.188c-2.762,1.629-6.559,3.157-9.502,2.563c-16.246-3.28-31.939,1.313-47.84,2.628
			c-37.035,3.022-74.002,6.621-111.039,9.58c-24.387,1.954-48.869,2.776-73.25,4.854c-70.639,6.018-141.264,12.327-211.883,18.739
			c-23.533,2.143-46.982,5.235-70.539,7.316c-18.51,1.634-37.066,2.713-54.967-4.814c-3.621-1.536-8.645-1.938-12.373-0.763
			c-21.449,6.766-43.602,4.095-65.443,5.671c-26.088,1.86-52.197,3.723-78.273,5.855c-35.346,2.867-70.656,6.535-106.051,8.744
			c-16.779,1.061-33.773,0.047-50.621-0.913c-25.221-1.462-42.279-15.849-53.611-37.222c-4.664-8.829-7.332-18.822-10.297-28.47
			c-4.436-14.503-8.424-29.147-12.473-43.753C235.562,488.015,233.316,474.904,242.777,460.083 M1287.803-154.358
			c3.377,0.143,6.961-0.592,9.822,0.543c19.438,7.731,39.373,14.571,57.877,24.161c21.363,11.097,25.1,27.551,13.713,48.409
			c-2.012,3.663-4.424,7.12-6.689,10.65c-4.391,6.866-10.383,10.746-18.818,10.203c-6.697-0.451-13.563-0.006-20.066-1.293
			c-33.588-6.597-46.443-25.981-45.938-64.119C1277.828-135.691,1281.268-145.432,1287.803-154.358 M2356.229-106.913
			c-47.451,4.902-81.334-49.635-62.58-91.61c2.637-5.901,6.699-9.428,13.576-9.129c29.594,1.293,58.064,9.04,86.76,15.291
			c11.063,2.413,18.514,13.104,16.74,25.046c-2.402,16.436-4.078,33.935-21.938,42.939c-2.873,1.447-5.229,4.261-7.307,6.853
			C2374.523-108.807,2365.461-105.662,2356.229-106.913 M631.93-52.961c-5.184,2.479-9.441,3.45-12.201,6.032
			c-26.121,24.312-48.959,51.395-65.914,82.975c-6.48,12.066-9.502,25.22-7.238,39.22c2.176,13.339,3.264,26.912,6.297,40.054
			c1.633,7.142,5.459,14.229,9.83,20.18c14.041,19.064,28.904,37.516,43.244,56.34c6.666,8.743,13.352,17.503,19.174,26.799
			c10.443,16.661,12.084,34.86,7.119,53.682c-5.463,20.702-15.104,39.436-27.961,56.474c-12.215,16.181-25.15,31.835-37.131,48.19
			c-22.627,30.92-53.459,51.469-86.783,68.447c-15.508,7.893-32.365,5.28-45.076-6.506c-28.049-25.999-52.568-54.944-66.842-91.218
			c-2.465-6.257-4.527-12.781-7.779-18.636c-21.221-38.16-26.506-79.684-26.389-122.396c0.016-2.522,0.752-5.034,0.85-7.56
			c0.449-9.592,5.338-15.53,14.268-18.815c13.529-4.971,26.939-9.836,41.66-10.209c13.504-0.342,26.984-1.717,40.492-2.45
			c5.051-0.281,10.186-0.55,15.193,0.038c22.109,2.654,29.715,11.169,27.361,33.451c-4.424,41.678,1.646,82.692,6.543,123.817
			c0.559,4.752,2.68,9.332,4.76,16.228c5.01-3.112,8.771-4.58,11.363-7.215c22.123-22.565,37.854-49.628,52.502-77.242
			c10.826-20.421,10.633-40.009-5.969-58.526c-14.1-15.716-25.459-33.492-34.43-52.862c-6.023-12.986-14.334-24.862-21.133-37.525
			c-20.988-39.06-18.043-78.11,1.611-116.526c14.723-28.796,34.533-54.157,56.896-77.416c16.393-17.045,33.514-33.42,50.641-49.773
			c6.072-5.805,12.982-10.819,19.773-15.788c7.973-5.847,16.848-7.517,26.432-4.379c3.984,1.293,8.172,3.944,11.977,3.487
			c22.064-2.638,41.531,6.228,61.271,13.345c6.867,2.471,13.371,7.024,18.916,11.886c9.846,8.645,12.451,20.025,8.068,32.35
			c-13.457,37.836-17.498,77.349-20.029,116.939c-1.271,20.148,0.799,40.521,1.393,60.774c0.277,10.136,0.865,20.28,0.854,30.409
			c-0.02,6.698-4.139,11.756-10.318,12.75c-7.285,1.186-15.492,2.101-22.266-0.082c-17.023-5.498-34.061-9.365-51.967-10.485
			c-12.17-0.751-22.371-6.754-30.773-15.937c-9.877-10.813-14.293-21.99-8.576-36.896c9.074-23.65,17.057-47.728,24.914-71.822
			c3.137-9.561,5.076-19.591,6.811-29.545C634.049-42.74,632.627-46.955,631.93-52.961 M1820.111,233.87
			c5.602,1.843,9.871-0.225,13.363-4.554c9.527-11.846,19.418-23.419,28.479-35.639c20.654-27.812,40.863-55.938,61.283-83.91
			c20.906-28.651,41.707-57.382,62.852-85.86c15.07-20.336,32.639-38.819,45.016-61.188c1.916-3.473,5.547-6.938,9.188-8.358
			c19.873-7.771,39.662-8.078,57.941,4.373c7.627,5.188,14.242,11.845,21.266,17.924c8.08,7.008,9.428,15.651,5.65,25.261
			c-1.52,3.935-3.551,7.66-5.453,11.444c-18.574,37.107-32.818,75.888-46.592,115.018c-12.668,36.025-22.799,72.413-28.926,110.075
			c-2.055,12.637-2.244,24.883,0.24,39.612c5.311-2.381,9.998-3.019,12.09-5.693c7.836-9.912,15.77-19.955,21.947-30.933
			c16.551-29.456,31.854-59.62,48.342-89.134c20.973-37.564,42.668-74.726,63.916-112.137
			c17.912-31.498,35.736-63.077,53.352-94.729c7.088-12.772,20.219-19.299,35.186-19.25c22.639,0.086,43.033,7.053,62.764,17.209
			c20.004,10.288,25.246,23.369,15.406,43.725c-12.93,26.775-22.4,54.599-30.184,83.234c-6.387,23.618-15.727,46.453-21.762,70.137
			c-9.582,37.627-17.492,75.677-26.111,113.547c-1.701,7.412-3.592,14.77,0.605,23.767c3.857-1.08,7.873-1.44,11.037-3.295
			c2.764-1.587,4.967-4.62,6.682-7.464c14.801-24.604,29.793-49.112,44.039-74.063c18.014-31.545,34.877-63.783,53.293-95.098
			c8.043-13.683,15.76-27.269,22.381-41.8c12.264-26.851,28.721-51.359,49.781-72.767c-2.295,12.317-7.012,23.584-13.285,34.274
			c-13.691,23.397-25.346,47.72-35.428,72.903c-4.678,11.695-10.59,23.034-17.063,33.898
			c-17.252,29.031-35.672,57.412-52.543,86.672c-8.818,15.311-16.42,31.537-22.684,48.078c-8.82,23.35-27.502,38.118-44.555,54.242
			c-3.494,3.313-11.027,3.126-16.729,3.189c-10.02,0.088-20.207-2.154-30.082-1.123c-15.93,1.645-28.613-4.353-38.537-15.269
			c-9.01-9.901-17.066-21.165-23.369-32.983c-7.676-14.34-9.326-29.854-6.504-46.658c7.338-43.564,21.982-85.007,34.137-127.168
			c3.678-12.77,8.027-25.343,8.92-39.001c-9.352,13.534-55.15,77.585-57.701,82.597c-21.504,42.01-42.246,84.402-63.918,126.317
			c-8.098,15.713-17.889,30.567-27.236,45.63c-3.766,6.058-9.834,8.659-17.004,9.652c-18.799,2.619-34.932-2.381-49.031-15.14
			c-36.82-33.327-50.604-74.85-44.129-123.46c1.887-14.201,5.201-28.217,7.83-42.326c1.035-5.625,2.031-11.248,3.262-18.063
			c-19.082,5.133-33.258,13.733-42.318,30.168c-3.18,5.781-8.605,10.297-12.863,15.505c-4.787,5.854-9.68,11.668-14.063,17.833
			c-14.156,19.967-28.098,40.109-42.146,60.151c-16.461,23.478-32.432,47.326-49.643,70.258
			c-12.639,16.841-26.535,32.804-40.674,48.408c-7.947,8.76-25.709,9.103-37.809,1.382c-5.57-3.54-10.121-8.798-14.734-13.661
			c-6.502-6.887-7.207-14.507-3.084-23.283c8.225-17.578,16.363-35.236,23.535-53.242c32.82-82.422,65.313-164.89,84.162-252.052
			c9.098-42.092,24.207-129.662,28.719-172.625c2.031-19.311,3.479-38.682,4.971-58.032c1.156-15.14,1.797-30.342,3.016-45.482
			c0.537-6.639,5.389-11.067,12.15-10.081c29.227,4.284,58.629,7.796,86.506,18.548c14.51,5.609,17.279,61.949,17.512,77.214
			c1.473,33.701-45.449,196.124-67.619,241.78c-4.061,8.343-45.549,97.736-54.094,116.98c-5.477,12.332-11.248,24.532-17.148,36.674
			c-1.424,2.916-3.898,5.338-5.889,8.009c0.475,1.925,0.971,3.823,1.445,5.706c0.102-0.026,0.184-0.051,0.287-0.076
			C1821.189,237.73,1820.652,235.812,1820.111,233.87 M827.205,237.286c4.301-3.806,9.135-7.181,12.832-11.517
			c39.439-46.329,78.947-92.578,117.877-139.339c15.102-18.146,28.555-37.648,43.188-56.166c6.15-7.794,11.58-16.918,23.322-17.865
			c13.16-1.07,25.453,2.111,36.199,9.127c9.85,6.433,18.994,14.114,27.65,22.109c11.848,10.934,13.83,23.684,6.738,39.268
			c-8.414,18.455-16.762,36.927-25.979,54.981c-17.689,34.713-28.516,72.206-44.52,107.611
			c-14.627,32.389-26.225,65.948-35.705,100.202c-1.289,4.623-1.715,9.498-2.77,15.644c4.457-1.147,7.336-1.046,8.824-2.433
			c6.135-5.787,12.414-11.58,17.666-18.156c27.971-34.934,56.539-69.46,83.121-105.452c18.541-25.076,34.457-52.127,51.076-78.588
			c13.916-22.146,27.619-44.429,40.477-67.188c9.113-16.106,16.533-33.195,25.012-49.668c6.975-13.513,14.119-26.97,21.857-40.043
			c2.406-4.094,6.49-8.552,10.75-9.936c19.156-6.253,38.086-7.327,55.375,6.118c7.295,5.655,15.236,10.477,22.672,15.982
			c14.504,10.755,18.184,24.507,9.115,39.825c-13.857,23.447-23.529,48.611-33.74,73.678
			c-12.455,30.493-26.447,60.355-39.621,90.551c-9.789,22.441-19.598,44.902-28.945,67.532c-8.729,21.198-13.52,43.524-16.77,66.154
			c-0.43,2.997,1.289,6.291,2.287,10.711c3.996-1.289,7.666-1.469,9.92-3.367c15.551-13.123,29.504-27.748,40.703-44.917
			c9.221-14.149,18.568-28.24,28.557-41.845c16.996-23.127,31.541-47.885,48.191-71.308c10.514-14.824,18.914-31.729,28.494-47.59
			c24.443-40.506,48.203-81.438,71.014-122.885c23.189-42.148,46.314-84.455,66.844-127.936
			c16.707-35.372,38.873-65.053,70.846-87.428c11.754-8.246,23.594-16.349,35.215-24.772c14.988-10.845,30.855-12.404,47.863-5.438
			c9.41,3.87,18.984,5.91,29.443,6.343c16.898,0.711,29.117,7.864,37.012,25.359c8.627,19.116,13.615,37.729,12.521,58.57
			c-0.58,10.899,1,21.95,2.219,32.853c4.111,36.925,8.287,73.824,12.854,110.687c2.42,19.472-2.619,33.747-31.131,28.896
			c-14.098-2.425-28.068-6.156-41.736-10.478c-7.086-2.253-13.623-6.683-19.924-10.872c-9.857-6.536-14.404-15.079-12.838-27.922
			c3.723-30.241,3.469-60.675,0.326-91.028c-1.395-13.479-3.723-26.564-13.197-39.008c-16.865,8.095-30.094,19.483-41.686,32.804
			c-15.727,18.072-27.332,38.711-34.795,61.403c-7.15,21.788-4.793,43.597,4.176,64.353c4.688,10.791,10.52,21.326,17.346,30.889
			c15.699,22.01,32.18,43.471,48.602,64.953c14.492,18.982,26.475,39.192,32.76,62.463c3.82,14.117,4.121,28.076,1.219,42.568
			c-9.719,48.65-32.014,90.53-65.895,126.487c-10.451,11.062-20.99,22.042-31.098,33.44c-15.148,17.094-33.98,21.347-55.244,15.805
			c-18.295-4.761-35.037-12.339-45.309-29.831c-2.48-4.235-6.555-7.632-10.219-11.069c-15.215-14.196-25.289-31.906-31.609-51.225
			c-11.357-34.748-17.959-70.448-14.586-107.286c0.617-6.704,2.166-13.345,3.469-19.975c2.49-12.552,8.51-21.892,22.203-24.533
			c3.219-0.615,6.934-1.707,9.195-3.875c17.623-16.812,39.58-12.437,60.311-11.935c13.658,0.313,26.223,14.914,27.498,29
			c0.445,5.002,0.154,10.141-0.434,15.149c-4.492,37.217-0.166,74.276,1.887,111.372c0.084,1.464,1.447,2.832,2.236,4.306
			c4.768,2.231,8.115-0.622,11.002-3.622c30.434-31.55,46.654-70.022,53.621-112.64c2.971-18.134-0.852-35.082-12.547-50.156
			c-11.936-15.334-22.789-31.502-34.266-47.202c-25.166-34.354-46.771-70.433-55.203-112.977c-0.268-1.413-1.932-2.561-3.021-3.939
			c-5.5-1.889-7.492,2.705-9.52,5.977c-24.824,40.234-125.176,204.586-152.424,245.256c-17.078,25.466-29.193,53.342-44.311,79.697
			c-9.219,16.091-18.607,32.107-27.998,48.102c-11.697,19.924-28.145,33.312-51.348,37.778c-7.422,1.438-14.67,3.947-21.934,6.164
			c-24.803,7.594-45.771,0.241-58.664-21.869c-10.793-18.547-15.375-39.183-17.355-60.406c-0.523-5.83-0.553-11.698-0.797-17.309
			c-5.35-3.179-8.098,0.125-10.465,3.659c-9.816,14.733-21.342,28.217-31.732,42.521c-21.393,29.418-46.914,55.132-81.67,70.105
			c-20.146,8.691-40.057,11.422-61.539,7.977c-18.611-2.969-29.76-13.604-37.652-30.044c-13.281-27.739-12.707-55.297-2.137-83.559
			c16.268-43.541,32.158-87.209,48.154-130.84c3.141-8.551,5.965-17.211,8.846-25.564c-6.566-4.157-9.271,0.2-11.66,2.802
			c-7.418,8.08-14.084,16.845-21.482,24.918c-22.275,24.31-45.436,47.83-66.98,72.75c-18.18,21.071-34.832,43.504-51.68,65.696
			c-11.24,14.792-21.369,30.431-32.564,45.284c-7.6,10.089-16.355,19.296-24.254,29.191c-7.307,9.186-14.063,18.845-21.219,28.169
			c-10.326,13.494-25.037,17.424-40.305,10.98c-12.359-5.23-24.281-26.413-21.928-39.702c0.879-4.957,2.631-9.789,4.389-14.539
			c26.406-71.307,53.898-142.249,79.045-214.001C759.171,96.492,788.483-17.785,807.46-82.61
			c9.445-32.245,12.92-66.234,18.975-99.447c0.898-4.979,0.943-10.127,1.779-15.127c2.576-15.306,9.156-20.389,24.709-17.324
			c16.555,3.266,32.947,7.49,49.221,11.928c12.781,3.492,21.918,12.52,29.844,22.609c5.691,7.237,4.609,16.09,3.92,24.45
			c-2.145,26.159-14.807,101.902-21.971,127.205c-8.76,30.852-45.943,151.683-57.113,180.819
			c-10.523,27.393-22.184,54.34-33.359,81.472C824.711,235.08,825.957,236.183,827.205,237.286"/>
	</g>
	<rect y="-0.023" clip-path="url(#SVGID_2_)" fill="none" width="1280" height="4410.047"/>
	<g opacity="0.3" clip-path="url(#SVGID_2_)">
		<path fill="none" stroke="#EC0044" stroke-miterlimit="10" d="M177.481,2817.801c1.941-0.539,3.859-1.078,5.799-1.639
			c0.025,0.104,0.05,0.186,0.076,0.287c-1.883,0.475-3.781,0.971-5.706,1.445C177.63,2817.896,177.481,2817.801,177.481,2817.801
			 M457.898,3398.225l-0.479-1.488l-1.122,1.287L457.898,3398.225z M456.669,3420.707c0.588,0.223,1.398,0.309,1.664,0.732
			c0.268,0.4-0.053,1.16-0.129,1.783c-0.882-0.354-1.787-0.709-2.672-1.061C455.904,3421.67,456.297,3421.197,456.669,3420.707
			 M439.743,2356.041c-2.493,2.549-3.047,23.014-4.61,24.611c-1.235-1.805-3.972-22.334-4.514-24.338
			c-0.272-0.979-0.285-37.277,0.425-37.164C432.981,2319.521,436.905,2354.471,439.743,2356.041 M429.193,2255.959
			c1.376,3.621,2.132,31.305,3.141,35.025c0.248,0.918,0.782,6.537-0.283,6.771c-1.228,0.258-2.45,1.139-2.825,0.143
			c-1.291-3.518-0.925-37.723-1.808-41.385L429.193,2255.959z M433.911,2408.035c11.172,17.287,11.436,20.936,5.043,38.826
			c-1.152-0.797-3.252-1.574-3.314-2.461C434.958,2433.91,434.58,2423.385,433.911,2408.035 M440.265,2482.109
			c1.461,3.615,3.868,7.146,4.176,10.875c0.402,4.945-0.553,10.07-1.326,15.064c-2.544,16.092-1.623,31.945,2.371,47.711
			c1.227,4.885,3.73,10.645,2.281,14.842c-7.5,21.848,9.221,176.602,6.927,198.383c-2.275,21.742-1.646,43.791-1.989,65.719
			c-0.102,7.59-0.42,15.459,1.303,22.723c7.117,29.971,2.853,60.625,6.137,90.846c1.824,16.705,1.883,33.674,1.729,50.529
			c-0.551,57.443,1.519,114.756,7.918,171.881c5.726,51.135,11.433,102.254,17.136,153.391c0.374,3.354,1.308,6.742,1.103,10.059
			c-1.056,16.088,0.297,31.924,2.689,47.881c1.917,12.67-1.814,20.441-6.837,18.592c-8.131-2.994-6.912-10.59-8.082-17.051
			c-5.373-29.82-5.613-60.381-12.837-89.975c-1.787-7.305-1.569-15.107-2.229-22.664c-0.685-7.578,0.063-15.566-2.188-22.621
			c-6.32-19.773-5.341-39.973-5.957-60.221c-0.879-28.652-2.791-57.281-4.596-85.893c-1.126-17.688-2.848-35.328-4.32-52.977
			c-0.136-1.691-0.497-3.35-0.51-5.043c-0.542-45.576-0.941-91.158-1.65-136.746c-0.162-11.775-1.297-23.527-1.85-35.307
			c-0.264-5.055-0.381-10.135-0.251-15.182c0.726-26.947,2.976-53.957,1.826-80.82c-0.775-18.633-6.534-170.494-5.754-189.049
			c0.548-13.461,0.016-27.08-1.499-40.492C431.591,2525.359,433.97,2504.541,440.265,2482.109 M403.694,4395.137
			c9.546-17.615,24.421-25.828,39.111-33.541c8.811-4.621,18.906-7.252,28.717-9.377c9.461-2.047,14.443-6.275,16.303-16.256
			c3.939-21.01,4.554-41.936,1.773-63.039c-0.652-5.018-1.967-10.004-2.063-15.043c-1.166-64.152-9.334-128.102-5.879-192.414
			c1.631-30.373,2.265-60.787,3.254-91.195c0.271-8.443,0.771-16.941,0.195-25.35c-4.646-69.912-6.503-139.967-9.5-209.971
			c-1.193-27.813-4.285-55.563-5.809-83.359c-0.635-11.693-10.066-155.293-10.084-167.053c-0.005-4.859-1.23-9.744-2.289-14.557
			c-2.142-9.787-2.979-19.486-1.384-28.857c7.34-1.396,10.038,2.641,10.845,6.471c2.787,13.172,16.415,158.242,17.81,171.637
			c2.195,20.945,3.218,42.027,4.964,63.057c0.388,4.611,0.326,9.846,6.29,13.389c5.295-8.914-0.012-17.322,1.271-25.338
			c1.226-7.453,1.651-15.201,1.198-22.729c-1.743-29.48-4.165-58.936-5.948-88.395c-0.812-13.463-1.384-26.998-0.854-40.438
			c0.738-19.564-0.699-38.725-4.803-57.895c-2.262-10.627-2.416-21.744-2.935-32.674c-0.069-1.59,2.865-4.447,4.715-4.713
			c1.95-0.293,5.161,1.281,6.188,3.016c1.629,2.762,3.157,6.559,2.563,9.5c-3.28,16.248,1.313,31.941,2.628,47.842
			c3.022,37.035,6.621,74,9.58,111.037c1.954,24.387,2.776,48.869,4.854,73.25c6.018,70.639,12.327,141.264,18.739,211.885
			c2.143,23.533,5.235,46.982,7.316,70.537c1.634,18.512,2.713,37.068-4.814,54.967c-1.536,3.621-1.938,8.645-0.763,12.373
			c6.766,21.451,4.095,43.602,5.671,65.445c1.86,26.088,3.723,52.195,5.855,78.271c2.867,35.346,6.535,70.656,8.744,106.051
			c1.061,16.779,0.047,33.775-0.913,50.623c-1.462,25.219-15.849,42.277-37.222,53.611c-8.829,4.662-18.822,7.332-28.47,10.297
			c-14.503,4.436-29.147,8.424-43.753,12.473C431.626,4402.35,418.515,4404.596,403.694,4395.137 M-210.747,3350.109
			c0.143-3.375-0.592-6.961,0.543-9.82c7.731-19.438,14.571-39.373,24.161-57.877c11.097-21.363,27.551-25.102,48.409-13.713
			c3.663,2.012,7.12,4.424,10.65,6.688c6.866,4.393,10.746,10.383,10.203,18.82c-0.451,6.695-0.006,13.561-1.293,20.066
			c-6.597,33.586-25.981,46.443-64.119,45.938C-192.08,3360.086-201.821,3356.645-210.747,3350.109 M-163.302,2281.686
			c4.902,47.451-49.635,81.334-91.61,62.58c-5.901-2.637-9.428-6.701-9.129-13.578c1.293-29.594,9.04-58.063,15.291-86.76
			c2.413-11.061,13.104-18.512,25.046-16.74c16.436,2.402,33.935,4.078,42.939,21.939c1.447,2.873,4.261,5.229,6.853,7.307
			C-165.196,2263.391-162.051,2272.453-163.302,2281.686 M-109.35,4005.984c2.479,5.184,3.45,9.441,6.032,12.199
			c24.312,26.123,51.395,48.959,82.975,65.914c12.066,6.48,25.22,9.504,39.22,7.24c13.339-2.176,26.912-3.266,40.054-6.299
			c7.142-1.633,14.229-5.457,20.18-9.828c19.064-14.041,37.516-28.904,56.34-43.246c8.743-6.664,17.503-13.352,26.799-19.172
			c16.661-10.443,34.86-12.084,53.682-7.119c20.702,5.461,39.436,15.102,56.474,27.961c16.181,12.213,31.835,25.15,48.19,37.129
			c30.92,22.627,51.469,53.459,68.447,86.785c7.893,15.508,5.28,32.363-6.506,45.074c-25.999,28.051-54.944,52.568-91.218,66.844
			c-6.257,2.463-12.781,4.527-18.636,7.777c-38.16,21.223-79.684,26.508-122.396,26.389c-2.522-0.014-5.034-0.752-7.56-0.85
			c-9.592-0.447-15.53-5.338-18.815-14.268c-4.971-13.529-9.836-26.938-10.209-41.66c-0.342-13.502-1.717-26.984-2.45-40.49
			c-0.281-5.051-0.55-10.188,0.038-15.193c2.654-22.109,11.169-29.717,33.451-27.361c41.678,4.422,82.692-1.646,123.817-6.545
			c4.752-0.557,9.332-2.678,16.228-4.758c-3.112-5.012-4.58-8.773-7.215-11.363c-22.565-22.125-49.628-37.854-77.242-52.502
			c-20.421-10.828-40.009-10.633-58.526,5.967c-15.716,14.102-33.492,25.461-52.862,34.43
			c-12.986,6.023-24.862,14.336-37.525,21.133c-39.06,20.988-78.11,18.043-116.526-1.609
			c-28.796-14.723-54.157-34.533-77.416-56.896c-17.045-16.393-33.42-33.516-49.773-50.641
			c-5.805-6.072-10.819-12.984-15.788-19.775c-5.847-7.971-7.517-16.848-4.379-26.432c1.293-3.982,3.944-8.17,3.487-11.975
			c-2.638-22.066,6.228-41.531,13.345-61.273c2.471-6.865,7.024-13.369,11.886-18.916c8.645-9.844,20.025-12.449,32.35-8.066
			c37.836,13.457,77.349,17.498,116.939,20.027c20.148,1.271,40.521-0.797,60.774-1.393c10.136-0.275,20.28-0.863,30.409-0.852
			c6.698,0.018,11.756,4.139,12.75,10.316c1.186,7.285,2.101,15.492-0.082,22.268c-5.498,17.023-9.365,34.059-10.485,51.967
			c-0.751,12.168-6.754,22.369-15.937,30.773c-10.813,9.877-21.99,14.291-36.896,8.574c-23.65-9.074-47.728-17.055-71.822-24.912
			c-9.561-3.139-19.591-5.078-29.545-6.813C-99.129,4003.865-103.344,4005.287-109.35,4005.984 M177.481,2817.801
			c1.843-5.602-0.225-9.871-4.554-13.361c-11.846-9.527-23.419-19.42-35.639-28.479c-27.812-20.654-55.938-40.863-83.91-61.285
			c-28.651-20.906-57.382-41.705-85.86-62.852c-20.336-15.068-38.819-32.637-61.188-45.014c-3.473-1.916-6.938-5.549-8.358-9.188
			c-7.771-19.873-8.078-39.662,4.373-57.941c5.188-7.627,11.845-14.244,17.924-21.266c7.008-8.08,15.651-9.43,25.261-5.652
			c3.935,1.521,7.66,3.553,11.444,5.455c37.107,18.574,75.888,32.818,115.018,46.59c36.025,12.67,72.413,22.801,110.075,28.928
			c12.637,2.055,24.883,2.244,39.612-0.24c-2.381-5.313-3.019-9.998-5.693-12.092c-9.912-7.836-19.955-15.77-30.933-21.945
			c-29.456-16.551-59.62-31.855-89.134-48.344c-37.564-20.971-74.726-42.668-112.137-63.916
			c-31.498-17.91-63.077-35.734-94.729-53.35c-12.772-7.09-19.299-20.219-19.25-35.186c0.086-22.639,7.053-43.035,17.209-62.764
			c10.288-20.006,23.369-25.246,43.725-15.406c26.775,12.928,54.599,22.398,83.234,30.184c23.618,6.387,46.453,15.725,70.137,21.76
			c37.627,9.582,75.677,17.492,113.547,26.113c7.412,1.701,14.77,3.59,23.767-0.605c-1.08-3.859-1.44-7.875-3.295-11.039
			c-1.587-2.764-4.62-4.965-7.464-6.68c-24.604-14.803-49.112-29.795-74.063-44.041c-31.545-18.012-63.783-34.877-95.098-53.293
			c-13.683-8.043-27.269-15.76-41.8-22.381c-26.851-12.262-51.359-28.719-72.767-49.779c12.317,2.293,23.584,7.012,34.274,13.283
			c23.397,13.693,47.72,25.348,72.903,35.43c11.695,4.678,23.034,10.59,33.898,17.061c29.031,17.254,57.412,35.672,86.672,52.543
			c15.311,8.82,31.537,16.42,48.078,22.686c23.35,8.82,38.118,27.5,54.242,44.555c3.313,3.492,3.126,11.025,3.189,16.729
			c0.088,10.02-2.154,20.207-1.123,30.082c1.645,15.928-4.353,28.613-15.269,38.535c-9.901,9.012-21.165,17.068-32.983,23.371
			c-14.34,7.676-29.854,9.326-46.658,6.504c-43.564-7.338-85.007-21.982-127.168-34.137c-12.77-3.68-25.343-8.029-39.001-8.92
			c13.534,9.35,77.585,55.15,82.597,57.701c42.01,21.502,84.402,42.244,126.317,63.918c15.713,8.098,30.567,17.889,45.63,27.234
			c6.058,3.768,8.659,9.834,9.652,17.006c2.619,18.797-2.381,34.932-15.14,49.031c-33.327,36.82-74.85,50.602-123.46,44.127
			c-14.201-1.885-28.217-5.199-42.326-7.828c-5.625-1.035-11.248-2.031-18.063-3.262c5.133,19.082,13.733,33.258,30.168,42.316
			c5.781,3.182,10.297,8.607,15.505,12.865c5.854,4.785,11.668,9.678,17.833,14.063c19.967,14.154,40.109,28.096,60.151,42.146
			c23.478,16.459,47.326,32.432,70.258,49.643c16.841,12.637,32.804,26.533,48.408,40.674c8.76,7.947,9.103,25.709,1.382,37.809
			c-3.54,5.57-8.798,10.119-13.661,14.734c-6.887,6.502-14.507,7.207-23.283,3.084c-17.578-8.227-35.236-16.365-53.242-23.535
			c-82.422-32.822-164.89-65.313-252.052-84.162c-42.092-9.098-129.662-24.207-172.625-28.719
			c-19.311-2.031-38.682-3.48-58.032-4.971c-15.14-1.156-30.342-1.797-45.482-3.018c-6.639-0.535-11.067-5.387-10.081-12.148
			c4.284-29.229,7.796-58.629,18.548-86.508c5.609-14.51,61.949-17.277,77.214-17.51c33.701-1.473,196.124,45.449,241.78,67.617
			c8.343,4.061,97.736,45.551,116.98,54.096c12.332,5.477,24.532,11.248,36.674,17.148c2.916,1.422,5.338,3.898,8.009,5.889
			c1.925-0.475,3.823-0.971,5.706-1.445c-0.026-0.102-0.051-0.184-0.076-0.287C181.341,2816.723,179.423,2817.262,177.481,2817.801
			 M180.897,3810.709c-3.806-4.301-7.181-9.137-11.517-12.832c-46.329-39.439-92.578-78.949-139.339-117.877
			c-18.146-15.104-37.648-28.555-56.166-43.189c-7.794-6.148-16.918-11.58-17.865-23.322c-1.07-13.158,2.111-25.451,9.127-36.197
			c6.433-9.852,14.114-18.994,22.109-27.652c10.934-11.846,23.684-13.828,39.268-6.736c18.455,8.414,36.927,16.762,54.981,25.979
			c34.713,17.689,72.206,28.516,107.611,44.52c32.389,14.625,65.948,26.225,100.202,35.705c4.623,1.287,9.498,1.715,15.644,2.77
			c-1.147-4.457-1.046-7.336-2.433-8.824c-5.787-6.135-11.58-12.414-18.156-17.666c-34.934-27.971-69.46-56.541-105.452-83.123
			c-25.076-18.539-52.127-34.455-78.588-51.076c-22.146-13.916-44.429-27.619-67.188-40.475
			c-16.106-9.115-33.195-16.533-49.668-25.014c-13.513-6.975-26.97-14.117-40.043-21.855c-4.094-2.406-8.552-6.49-9.936-10.75
			c-6.253-19.158-7.327-38.086,6.118-55.375c5.655-7.295,10.477-15.238,15.982-22.672c10.755-14.504,24.507-18.184,39.825-9.115
			c23.447,13.857,48.611,23.529,73.678,33.74c30.493,12.455,60.355,26.447,90.551,39.621c22.441,9.789,44.902,19.598,67.532,28.943
			c21.198,8.73,43.524,13.521,66.154,16.771c2.997,0.428,6.291-1.289,10.711-2.287c-1.289-3.996-1.469-7.666-3.367-9.92
			c-13.123-15.551-27.748-29.504-44.917-40.703c-14.149-9.221-28.24-18.568-41.845-28.557
			c-23.127-16.996-47.885-31.541-71.308-48.193c-14.824-10.512-31.729-18.914-47.59-28.494
			c-40.506-24.443-81.438-48.203-122.885-71.012c-42.148-23.191-84.455-46.314-127.936-66.844
			c-35.372-16.707-65.053-38.873-87.428-70.846c-8.246-11.754-16.349-23.596-24.772-35.217
			c-10.845-14.988-12.404-30.854-5.438-47.861c3.87-9.41,5.91-18.984,6.343-29.443c0.711-16.898,7.864-29.117,25.359-37.012
			c19.116-8.627,37.729-13.615,58.57-12.521c10.899,0.58,21.95-1,32.853-2.219c36.925-4.113,73.824-8.287,110.687-12.854
			c19.472-2.42,33.747,2.619,28.896,31.129c-2.425,14.1-6.156,28.07-10.478,41.736c-2.253,7.086-6.683,13.625-10.872,19.926
			c-6.536,9.857-15.079,14.404-27.922,12.836c-30.241-3.723-60.675-3.469-91.028-0.326c-13.479,1.396-26.564,3.725-39.008,13.197
			c8.095,16.867,19.483,30.094,32.804,41.688c18.072,15.727,38.711,27.332,61.403,34.795c21.788,7.15,43.597,4.793,64.353-4.176
			c10.791-4.688,21.326-10.521,30.889-17.346c22.01-15.701,43.471-32.182,64.953-48.602c18.982-14.492,39.192-26.475,62.463-32.76
			c14.117-3.82,28.076-4.121,42.568-1.219c48.65,9.719,90.53,32.014,126.487,65.895c11.062,10.451,22.042,20.99,33.44,31.096
			c17.094,15.15,21.347,33.982,15.805,55.246c-4.761,18.293-12.339,35.037-29.831,45.309c-4.235,2.479-7.632,6.555-11.069,10.219
			c-14.196,15.215-31.906,25.289-51.225,31.609c-34.748,11.357-70.448,17.959-107.286,14.586
			c-6.704-0.617-13.345-2.168-19.975-3.469c-12.552-2.49-21.892-8.51-24.533-22.203c-0.615-3.221-1.707-6.934-3.875-9.197
			c-16.812-17.621-12.437-39.578-11.935-60.311c0.313-13.656,14.914-26.221,29-27.496c5.002-0.447,10.141-0.154,15.149,0.432
			c37.217,4.494,74.276,0.168,111.372-1.885c1.464-0.084,2.832-1.447,4.306-2.236c2.231-4.77-0.622-8.115-3.622-11.002
			c-31.55-30.434-70.022-46.654-112.64-53.621c-18.134-2.973-35.082,0.85-50.156,12.547c-15.334,11.934-31.502,22.789-47.202,34.266
			c-34.354,25.166-70.433,46.771-112.977,55.201c-1.413,0.27-2.561,1.932-3.939,3.023c-1.889,5.498,2.705,7.49,5.977,9.52
			c40.234,24.824,204.586,125.176,245.256,152.424c25.466,17.078,53.342,29.193,79.697,44.311
			c16.091,9.219,32.107,18.607,48.102,27.998c19.924,11.695,33.312,28.143,37.778,51.348c1.438,7.42,3.947,14.668,6.164,21.932
			c7.594,24.805,0.241,45.773-21.869,58.666c-18.547,10.793-39.183,15.373-60.406,17.355c-5.83,0.521-11.698,0.553-17.309,0.797
			c-3.179,5.348,0.125,8.096,3.659,10.465c14.733,9.816,28.217,21.34,42.521,31.732c29.418,21.391,55.132,46.914,70.105,81.67
			c8.691,20.145,11.422,40.057,7.977,61.539c-2.969,18.609-13.604,29.76-30.044,37.65c-27.739,13.281-55.297,12.709-83.559,2.139
			c-43.541-16.268-87.209-32.158-130.84-48.154c-8.551-3.141-17.211-5.965-25.564-8.846c-4.157,6.564,0.2,9.271,2.802,11.658
			c8.08,7.418,16.845,14.084,24.918,21.484c24.31,22.275,47.83,45.434,72.75,66.98c21.071,18.18,43.504,34.832,65.696,51.68
			c14.792,11.24,30.431,21.369,45.284,32.563c10.089,7.602,19.296,16.357,29.191,24.256c9.186,7.307,18.845,14.061,28.169,21.219
			c13.494,10.326,17.424,25.037,10.98,40.303c-5.23,12.361-26.413,24.283-39.702,21.93c-4.957-0.881-9.789-2.633-14.539-4.389
			c-71.307-26.406-142.249-53.9-214.001-79.045c-63.771-22.352-178.048-51.666-242.873-70.641
			c-32.245-9.445-66.234-12.922-99.447-18.977c-4.979-0.896-10.127-0.941-15.127-1.777c-15.306-2.576-20.389-9.156-17.324-24.709
			c3.266-16.555,7.49-32.947,11.928-49.223c3.492-12.781,12.52-21.918,22.609-29.842c7.237-5.691,16.09-4.609,24.45-3.92
			c26.159,2.143,101.902,14.805,127.205,21.971c30.852,8.76,151.683,45.943,180.819,57.113
			c27.393,10.523,54.34,22.184,81.472,33.359C178.691,3813.203,179.794,3811.957,180.897,3810.709"/>
	</g>
	<rect y="-0.023" clip-path="url(#SVGID_2_)" fill="none" width="1280" height="4410.047"/>
	<g opacity="0.3" clip-path="url(#SVGID_2_)">
		<path fill="none" stroke="#EC0044" stroke-miterlimit="10" d="M410.396,1816.885c-4.456-12.918-12.619-19.697-20.093-26.018
			c-29.392-24.863-59.242-49.188-89.572-72.891c-11.046-8.645-23.955-14.912-35.922-22.432c-11.026-6.936-23.476-9.047-36.018-9.879
			c-6.052-0.404-12.754,0.441-18.287,2.799c-23.206,9.859-45.624,21.193-63.334,39.922c-8.644,9.135-17.827,17.756-26.412,26.945
			c-13.62,14.596-28.603,26.693-48.465,31.998c-12.084,3.223-23.531,9.398-35.73,11.484c-62.393,10.67-120.174-2.604-173.403-36.229
			c-20.171-12.74-36.844-29.455-50.464-48.994c-12.371-17.762-20.014-37.367-20.131-59.377c-0.057-11.719-0.71-23.527,0.538-35.119
			c0.728-6.752,3.785-13.721,7.394-19.604c7.147-11.611,17.809-17.609,31.928-15.205c48.004,8.184,95.604,3.791,142.936-5.248
			c23.936-4.574,47.66-10.311,69.251-22.393c2.036-1.143,4.243-2.066,6.474-2.801c8.356-2.754,15.903,1.689,17.44,10.648
			c1.921,11.074,1.71,22.393-3.994,32.174c-6.455,11.049-9.874,23.02-13.812,34.918c-1.248,3.729-2.611,7.42-4.09,11.051
			c-11.2,27.379-13.813,29.232-43.625,28.477c-10.989-0.277-21.938-1.574-32.906-2.395c-22.686-1.699-45.375-3.277-67.273,3.49
			c-2.015,5.934,2.267,7.559,5.187,9.496c40.494,26.906,83.753,46.164,133.16,49.328c28.738,1.84,54.438-3.578,75.722-24.66
			c25.128-24.877,50.811-49.176,76.396-73.586c5.67-5.4,11.642-10.543,17.905-15.229c11.2-8.375,24.069-11.775,37.861-9.691
			c10.815,1.633,21.937,3.229,32.1,7.055c32.368,12.203,64.081,25.783,91.454,47.893c20.863,16.848,40.128,35.016,56.629,56.27
			c21.767,28.023,40.763,57.777,57.727,88.84c13.005,23.828,10.969,37.674-5.554,58.195c-20.15,25.029-45.64,43.063-74.05,57.086
			c-56.476,27.891-115.872,44.225-179.378,42.654c-10.123-0.254-21.591,0.49-29.91-3.963c-7.298-3.918-11.333-14.297-16.288-22.139
			c-12.103-19.088-15.888-40.768-17.617-62.686c-0.902-11.338,4.36-14.934,15.828-19.553c27.413-11.033,56.419-11.873,85.1-15.518
			c41.241-5.256,83.155-6.205,123.38-18.395C395.203,1821.572,401.906,1819.492,410.396,1816.885"/>
		<path fill="none" stroke="#EC0044" stroke-miterlimit="10" d="M152.202,1025.832c19.787,22.6,35.672,40.801,51.617,58.959
			c25.434,28.979,54.573,54.23,81.717,81.494c8.143,8.189,14.848,18.295,20.362,28.512c8.681,16.08,6.224,32.514-4.784,46.502
			c-6.665,8.459-14.946,16.619-24.222,21.846c-22.072,12.438-46.009,19.889-71.729,20.957c-29.295,1.217-58.088-1.096-86.231-9.758
			c-4.321-1.334-8.912-1.82-12.812-2.582c-4.207,5.09-1.729,8.609,0.882,11.219c42.839,42.758,82.333,88.555,121.578,134.57
			c1.536,1.795,2.901,3.77,4.609,5.369c18.942,17.619,37.978,35.152,56.918,52.787c4.014,3.736,7.376,8.254,11.642,11.617
			c11.639,9.148,13.196,20.434,8.797,33.76c-4.669,14.084-15.021,21.645-28.431,25.674c-2.784,0.832-6.281,0.123-9.219-0.678
			c-5.301-1.436-10.545-3.178-15.599-5.326c-34.154-14.506-69.807-23.986-106.015-31.604
			c-38.439-8.078-76.703-17.102-115.336-24.139c-47.925-8.729-156.075-21.537-204.193-29.119
			c-25.587-4.031-51.271-7.584-76.954-10.912c-10.046-1.299-20.245-1.4-29.563-1.996c-7.76-6.963-6.57-14.619-4.802-22.533
			c2.228-9.912,3.591-20.041,6.318-29.799c3.133-11.287,7.032-22.387,11.2-33.334c2.402-6.281,7.685-9.209,14.504-10.506
			c20.169-3.828,40.339-5.309,60.932-4.615c35.384,1.195,70.596,4.025,105.574,9.379c24.089,3.682,207.192,51.648,245.553,65.6
			c6.629,2.406,13.082,5.293,19.499,8.18c9.182,4.131,18.422,7.908,30.773,9.834c-4.669-10.541-10.526-17.764-16.521-24.391
			c-17.422-19.205-35.633-37.662-53.343-56.602c-23.589-25.26-47.447-50.303-70.344-76.199
			c-18.269-20.648-37.767-39.873-58.956-57.434c-9.95-8.242-11.525-10.623-6.645-21.938c6.185-14.375,13.139-28.543,21.149-41.973
			c6.609-11.133,17.923-15.402,30.621-12.688c11.486,2.451,23.492,4.711,33.808,9.92c29.238,14.75,60.951,20.641,92.263,28.004
			c15.271,3.592,30.813,6.223,46.352,8.518c9.835,1.457,19.997,3.584,31.369-1.623c-1.882-4.654-2.516-9.662-5.322-12.621
			c-21.591-22.801-42.587-46.086-66.022-67.213c-30.332-27.338-63.332-51.582-91.782-81.148
			c-17.865-18.566-35.5-37.82-58.685-50.598c-7.454-4.102-13.756-10.414-20.229-16.117c-5.897-5.193-7.855-11.748-3.937-19.064
			c9.662-17.977,19.036-36.133,29.371-53.707c6.109-10.377,15.637-12.711,26.489-7.842c7.878,3.535,15.524,7.623,23.131,11.709
			c45.658,24.516,94.891,37.219,145.873,44.105c14.177,1.916,14.177,1.887,27.028-2.508c2.056-7.012-2.228-12.025-5.878-17
			c-13.446-18.393-27.161-36.6-40.664-54.953c-12.102-16.436-24.147-32.912-36.057-49.486
			c-16.041-22.338-31.811-44.887-47.907-67.178c-18.942-26.201-35.368-53.951-49.043-83.139
			c-22.015-46.957-43.011-94.4-64.447-141.619c-5.187-11.455-10.623-22.803-15.734-34.295
			c-14.983-33.828-27.142-68.656-37.401-104.223c-4.994-17.343-11.372-34.302-17.346-51.359
			c-17.442-49.789-27.007-101.765-42.356-152.108c-17.518-57.436-24.145-116.84-33.538-175.762
			c-1.978-12.396-3.055-24.963-3.9-37.492c-0.405-6.186,0.325-12.511,1.134-18.695c1.113-8.563,3.034-17.028,4.128-25.596
			c1.423-11.127,0.77-22.223-5.282-31.975c-8.528-13.691-11.084-27.545-3.495-42.409c3.149-6.18,1.709-12.434-0.481-18.321
			c-10.258-27.829-11.085-56.901-11.621-86.005c-0.366-19.59,1.17-39.265-4.745-58.459c-1.076-3.521-0.904-8.053,0.325-11.546
			c3.112-8.863,6.801-17.59,11.026-25.984c1.654-3.293,5.091-5.937,8.205-8.198c5.494-3.98,13.465-1.743,15.654,4.557
			c1.518,4.354,2.324,9.107,2.537,13.721c2.4,52.603,3.362,105.302,7.261,157.786c3.476,46.982,9.719,93.776,15.519,140.555
			c4.843,38.992,10.566,77.882,16.366,116.746c1.981,13.187,4.804,26.311,8.262,39.195c7.319,27.321,15.693,54.367,22.917,81.709
			c12.082,45.651,28.159,89.99,43.03,134.733c7.682,23.101,13.888,46.685,21.129,69.938c2.784,8.977,6.205,17.811,10.027,26.398
			c10.22,22.953,20.9,45.617,28.526,69.738c5.667,17.871,14.925,34.568,22.129,51.977c10.816,26.135,20.804,52.619,31.983,78.586
			c5.572,12.922,12.602,25.271,19.709,37.453c17.06,29.232,33.541,58.66,43.451,91.307c2.038,6.67,5.418,13.117,9.144,19.053
			c14.216,22.551,28.93,44.781,43.24,67.27c13.467,21.193,29.006,41.07,42.281,62.242c10.259,16.352,16.982,35.453,22.379,54.168
			c6.128,21.221-4.225,38.662-20.091,51.959c-23.399,19.623-51.367,26.289-81.45,24.91c-7.051-0.324-14.081-1.396-21.092-2.305
			C171.412,1028.791,164.593,1027.672,152.202,1025.832"/>
	</g>
	<g opacity="0.3" clip-path="url(#SVGID_2_)">
		<path fill="none" stroke="#EC0044" stroke-miterlimit="10" d="M1106.161,3512.457c-1.151,9.258-1.555,15.529-2.748,21.652
			c-5.147,26.371-20.842,41.227-47.465,44.697c-3.649,0.475-8.165,0.166-11.218-1.605c-24.032-13.92-36.77-12.387-21.018-47.359
			c4.459-9.865,6.245-20.92,9.34-31.404c1.555-5.227,2.609-10.732,5.049-15.539c7.703-15.271,23.187-20.09,37.402-11.031
			c8.528,5.426,17.305,11.57,23.301,19.432C1103.606,3497.588,1104.395,3506.951,1106.161,3512.457"/>
		<path fill="none" stroke="#EC0044" stroke-miterlimit="10" d="M1583.11,4476.902c-4.456-12.918-12.619-19.697-20.093-26.018
			c-29.392-24.863-59.242-49.188-89.572-72.891c-11.046-8.645-23.955-14.912-35.922-22.432c-11.026-6.936-23.477-9.047-36.018-9.879
			c-6.053-0.404-12.755,0.441-18.287,2.799c-23.207,9.859-45.625,21.193-63.334,39.922c-8.645,9.135-17.828,17.756-26.412,26.945
			c-13.621,14.596-28.604,26.693-48.465,31.998c-12.084,3.223-23.531,9.398-35.73,11.484
			c-62.393,10.67-120.174-2.604-173.403-36.229c-20.171-12.74-36.844-29.455-50.464-48.994
			c-12.371-17.762-20.014-37.367-20.131-59.377c-0.057-11.719-0.71-23.527,0.538-35.119c0.728-6.752,3.784-13.721,7.394-19.604
			c7.147-11.611,17.809-17.609,31.928-15.205c48.004,8.184,95.604,3.791,142.937-5.248c23.937-4.574,47.66-10.311,69.251-22.393
			c2.036-1.143,4.243-2.066,6.475-2.801c8.355-2.754,15.902,1.689,17.439,10.648c1.921,11.074,1.71,22.393-3.994,32.174
			c-6.455,11.049-9.874,23.02-13.813,34.918c-1.248,3.729-2.61,7.42-4.09,11.051c-11.199,27.379-13.813,29.232-43.625,28.477
			c-10.988-0.277-21.938-1.574-32.905-2.395c-22.687-1.699-45.375-3.277-67.273,3.49c-2.015,5.934,2.267,7.559,5.187,9.496
			c40.494,26.906,83.754,46.164,133.16,49.328c28.738,1.84,54.438-3.578,75.723-24.66c25.128-24.877,50.811-49.176,76.396-73.586
			c5.67-5.4,11.642-10.543,17.904-15.229c11.2-8.375,24.068-11.775,37.861-9.691c10.814,1.633,21.937,3.229,32.1,7.055
			c32.368,12.203,64.081,25.783,91.454,47.893c20.863,16.848,40.128,35.016,56.629,56.27c21.767,28.023,40.763,57.777,57.727,88.84
			c13.005,23.828,10.969,37.674-5.554,58.195c-20.15,25.029-45.64,43.063-74.05,57.086
			c-56.476,27.891-115.872,44.225-179.378,42.654c-10.123-0.254-21.591,0.49-29.91-3.963c-7.298-3.918-11.333-14.297-16.288-22.139
			c-12.103-19.088-15.888-40.768-17.616-62.686c-0.902-11.338,4.359-14.934,15.828-19.553c27.412-11.033,56.418-11.873,85.1-15.518
			c41.24-5.256,83.154-6.205,123.38-18.395C1567.917,4481.59,1574.62,4479.51,1583.11,4476.902"/>
		<path fill="none" stroke="#EC0044" stroke-miterlimit="10" d="M1324.916,3685.85c19.787,22.6,35.672,40.801,51.617,58.959
			c25.434,28.979,54.573,54.23,81.717,81.494c8.143,8.189,14.848,18.295,20.362,28.512c8.681,16.08,6.224,32.514-4.784,46.502
			c-6.665,8.459-14.945,16.619-24.222,21.846c-22.072,12.438-46.009,19.889-71.729,20.957c-29.295,1.217-58.088-1.096-86.23-9.758
			c-4.321-1.334-8.912-1.82-12.813-2.582c-4.207,5.09-1.729,8.609,0.883,11.219c42.838,42.758,82.332,88.555,121.578,134.57
			c1.535,1.795,2.9,3.77,4.608,5.369c18.942,17.619,37.978,35.152,56.918,52.787c4.014,3.736,7.376,8.254,11.642,11.617
			c11.639,9.148,13.196,20.434,8.797,33.76c-4.668,14.084-15.021,21.645-28.431,25.674c-2.784,0.832-6.28,0.123-9.219-0.678
			c-5.302-1.436-10.545-3.178-15.599-5.326c-34.154-14.506-69.808-23.986-106.016-31.604
			c-38.439-8.078-76.703-17.102-115.336-24.139c-47.925-8.729-156.074-21.537-204.193-29.119
			c-25.586-4.031-51.271-7.584-76.953-10.912c-10.047-1.299-20.246-1.4-29.563-1.996c-7.76-6.963-6.569-14.619-4.802-22.533
			c2.228-9.912,3.591-20.041,6.318-29.799c3.133-11.287,7.031-22.387,11.199-33.334c2.402-6.281,7.686-9.209,14.504-10.506
			c20.17-3.828,40.34-5.309,60.932-4.615c35.385,1.195,70.597,4.025,105.574,9.379c24.09,3.682,207.192,51.648,245.553,65.6
			c6.63,2.406,13.082,5.293,19.5,8.18c9.182,4.131,18.422,7.908,30.772,9.834c-4.669-10.541-10.526-17.764-16.521-24.391
			c-17.422-19.205-35.633-37.662-53.344-56.602c-23.588-25.26-47.446-50.303-70.344-76.199
			c-18.269-20.648-37.767-39.873-58.955-57.434c-9.951-8.242-11.525-10.623-6.646-21.938c6.185-14.375,13.139-28.543,21.149-41.973
			c6.608-11.133,17.922-15.402,30.621-12.688c11.485,2.451,23.491,4.711,33.807,9.92c29.238,14.75,60.951,20.641,92.264,28.004
			c15.271,3.592,30.813,6.223,46.352,8.518c9.836,1.457,19.998,3.584,31.369-1.623c-1.882-4.654-2.516-9.662-5.322-12.621
			c-21.59-22.801-42.586-46.086-66.021-67.213c-30.332-27.338-63.332-51.582-91.781-81.148c-17.865-18.566-35.5-37.82-58.686-50.598
			c-7.454-4.102-13.756-10.414-20.229-16.117c-5.897-5.193-7.855-11.748-3.938-19.064c9.662-17.977,19.036-36.133,29.371-53.707
			c6.109-10.377,15.637-12.711,26.488-7.842c7.879,3.535,15.524,7.623,23.131,11.709c45.658,24.516,94.892,37.219,145.873,44.105
			c14.178,1.916,14.178,1.887,27.028-2.508c2.056-7.012-2.228-12.025-5.878-17c-13.445-18.393-27.16-36.6-40.664-54.953
			c-12.102-16.436-24.146-32.912-36.057-49.486c-16.041-22.338-31.811-44.887-47.907-67.178
			c-18.942-26.201-35.368-53.951-49.043-83.139c-22.015-46.957-43.011-94.4-64.446-141.619
			c-5.188-11.455-10.623-22.803-15.734-34.295c-14.983-33.828-27.143-68.656-37.401-104.223
			c-4.993-17.344-11.372-34.303-17.346-51.359c-17.442-49.789-27.007-101.766-42.356-152.109
			c-17.518-57.436-24.145-116.84-33.537-175.762c-1.979-12.395-3.056-24.963-3.9-37.492c-0.405-6.186,0.324-12.51,1.134-18.695
			c1.112-8.563,3.034-17.027,4.128-25.596c1.423-11.127,0.77-22.223-5.281-31.975c-8.529-13.691-11.084-27.545-3.496-42.408
			c3.149-6.18,1.709-12.434-0.48-18.32c-10.258-27.83-11.085-56.902-11.621-86.006c-0.366-19.59,1.17-39.266-4.745-58.459
			c-1.075-3.521-0.903-8.053,0.325-11.547c3.111-8.861,6.801-17.59,11.025-25.984c1.654-3.293,5.092-5.936,8.205-8.197
			c5.494-3.98,13.465-1.744,15.654,4.557c1.518,4.354,2.324,9.107,2.537,13.721c2.4,52.602,3.361,105.301,7.262,157.787
			c3.475,46.98,9.719,93.775,15.519,140.553c4.843,38.992,10.565,77.883,16.366,116.746c1.98,13.188,4.804,26.311,8.262,39.195
			c7.318,27.322,15.693,54.367,22.917,81.709c12.082,45.652,28.159,89.99,43.03,134.734c7.682,23.1,13.888,46.684,21.129,69.938
			c2.783,8.977,6.205,17.811,10.027,26.398c10.219,22.953,20.899,45.617,28.525,69.738c5.667,17.871,14.925,34.568,22.129,51.977
			c10.816,26.135,20.805,52.619,31.982,78.586c5.572,12.922,12.603,25.271,19.709,37.453c17.061,29.232,33.541,58.66,43.451,91.307
			c2.039,6.67,5.418,13.117,9.145,19.053c14.216,22.551,28.93,44.781,43.24,67.27c13.467,21.193,29.006,41.07,42.281,62.242
			c10.258,16.352,16.981,35.453,22.379,54.168c6.127,21.221-4.226,38.662-20.092,51.959c-23.398,19.623-51.367,26.289-81.449,24.91
			c-7.051-0.324-14.082-1.396-21.092-2.305C1344.126,3688.809,1337.307,3687.689,1324.916,3685.85"/>
	</g>
</g>
</svg>
