<svg xmlns="http://www.w3.org/2000/svg" viewBox="0 0 102.12 102.13"><defs><style>.cls-1{fill:#fff;}</style></defs><title>Asset 2</title><g id="Layer_2" data-name="Layer 2"><g id="Layer_1-2" data-name="Layer 1"><path class="cls-1" d="M51.06,102.13a51.07,51.07,0,1,1,51.06-51.07A51.13,51.13,0,0,1,51.06,102.13Zm0-100A48.94,48.94,0,1,0,100,51.06,49,49,0,0,0,51.06,2.13Z"/><path class="cls-1" d="M16.64,51.17c0-2.66,1.43-4.86,4.46-4.86a5.6,5.6,0,0,1,2.29.42V48.5A4,4,0,0,0,21.33,48c-1.64,0-2.53,1.09-2.53,3.15,0,1.89,1,2.94,2.59,2.94a3.86,3.86,0,0,0,2.11-.56v1.82a5.32,5.32,0,0,1-2.37.45C18.16,55.82,16.64,53.82,16.64,51.17Z"/><path class="cls-1" d="M28.56,46.43h2.27l3.4,9.27H32l-.6-1.85H27.8l-.63,1.85H25.08Zm2.32,5.79-.77-2.38c-.18-.56-.36-1.09-.47-1.52h0c-.11.41-.29,1-.47,1.52l-.8,2.38Z"/><path class="cls-1" d="M37.25,48.11H34.78V46.43h7v1.68H39.29V55.7h-2Z"/><path class="cls-1" d="M44,46.43h5.66v1.68H46v2h3.08v1.55H46V54h3.62V55.7H44Z"/><path class="cls-1" d="M56.92,54.55,55.27,52h-.94V55.7h-2V46.43H55.9c1.91,0,3,1.07,3,2.8a2.51,2.51,0,0,1-1.71,2.39l1.46,2.14a.91.91,0,0,0,.82.46h.26v1.52a2.48,2.48,0,0,1-.68.09A2.28,2.28,0,0,1,56.92,54.55Zm-1.4-4a1.2,1.2,0,0,0,1.35-1.28A1.18,1.18,0,0,0,55.52,48H54.33v2.56Z"/><path class="cls-1" d="M62,46.43h2V55.7H62Z"/><path class="cls-1" d="M67.2,46.43h2.16l3.12,5a13.88,13.88,0,0,1,.8,1.51h0c0-.42,0-1,0-1.42v-5.1H75.1V55.7H72.91l-3.12-5c-.28-.46-.58-1-.79-1.42h0c0,.4,0,.87,0,1.32V55.7H67.2Z"/><path class="cls-1" d="M77.65,51.17c0-2.58,1.41-4.86,4.76-4.86a6.18,6.18,0,0,1,2.6.48v1.74a5.52,5.52,0,0,0-2.5-.54c-1.8,0-2.71,1.13-2.71,3.18s1,3,2.65,3A3.22,3.22,0,0,0,83.52,54V52.19H82.08V50.65h3.4v4.62a8.89,8.89,0,0,1-3.13.55A4.32,4.32,0,0,1,77.65,51.17Z"/></g></g></svg>