<svg xmlns="http://www.w3.org/2000/svg" viewBox="0 0 102.12 102.13"><defs><style>.cls-1{fill:#eb0045;}</style></defs><title>Asset 1</title><g id="Layer_2" data-name="Layer 2"><g id="Layer_1-2" data-name="Layer 1"><path class="cls-1" d="M51.06,102.13a51.07,51.07,0,1,1,51.06-51.07A51.13,51.13,0,0,1,51.06,102.13Zm0-100A48.94,48.94,0,1,0,100,51.06,49,49,0,0,0,51.06,2.13Z"/><path class="cls-1" d="M16.64,51c0-2.67,1.43-4.87,4.46-4.87a5.6,5.6,0,0,1,2.29.42v1.77a4,4,0,0,0-2.06-.48c-1.64,0-2.53,1.09-2.53,3.16,0,1.89,1,2.93,2.59,2.93a4,4,0,0,0,2.11-.55v1.81a5.32,5.32,0,0,1-2.37.45C18.16,55.59,16.64,53.59,16.64,51Z"/><path class="cls-1" d="M28.56,46.2h2.27l3.4,9.27H32l-.6-1.85H27.8l-.63,1.85H25.08ZM30.88,52l-.77-2.38c-.18-.55-.36-1.09-.47-1.52h0c-.11.42-.29,1-.47,1.52L28.34,52Z"/><path class="cls-1" d="M37.25,47.88H34.78V46.2h7v1.68H39.29v7.59h-2Z"/><path class="cls-1" d="M44,46.2h5.66v1.68H46v2h3.08v1.55H46v2.37h3.62v1.68H44Z"/><path class="cls-1" d="M56.92,54.32l-1.65-2.56h-.94v3.71h-2V46.2H55.9c1.91,0,3,1.07,3,2.8a2.5,2.5,0,0,1-1.71,2.39l1.46,2.14a.9.9,0,0,0,.82.47,1.14,1.14,0,0,0,.26,0V55.5a2.48,2.48,0,0,1-.68.09A2.28,2.28,0,0,1,56.92,54.32Zm-1.4-4a1.2,1.2,0,0,0,1.35-1.28,1.17,1.17,0,0,0-1.35-1.28H54.33v2.56Z"/><path class="cls-1" d="M62,46.2h2v9.27H62Z"/><path class="cls-1" d="M67.2,46.2h2.16l3.12,5a13.88,13.88,0,0,1,.8,1.51h0c0-.42,0-1,0-1.42V46.2H75.1v9.27H72.91l-3.12-5c-.28-.46-.58-1-.79-1.42h0c0,.4,0,.87,0,1.32v5.12H67.2Z"/><path class="cls-1" d="M77.65,51c0-2.59,1.41-4.87,4.76-4.87a6.18,6.18,0,0,1,2.6.48V48.3a5.66,5.66,0,0,0-2.5-.54c-1.8,0-2.71,1.13-2.71,3.19s1,3,2.65,3a3.22,3.22,0,0,0,1.07-.16V52H82.08V50.43h3.4V55a8.89,8.89,0,0,1-3.13.55A4.31,4.31,0,0,1,77.65,51Z"/></g></g></svg>