<svg xmlns="http://www.w3.org/2000/svg" viewBox="0 0 102.13 102.13"><defs><style>.cls-1{fill:none;stroke:#eb0045;stroke-miterlimit:10;stroke-width:2.13px;}.cls-2{fill:#eb0045;}</style></defs><title>Asset 3</title><g id="Layer_2" data-name="Layer 2"><g id="Design"><path class="cls-1" d="M-138.94-48.94a50,50,0,0,1-50,50,50,50,0,0,1-50-50,50,50,0,0,1,50-50A50,50,0,0,1-138.94-48.94Z" transform="translate(240 100)"/><path class="cls-2" d="M-203-62.39h-1.45v-7.23a.3.3,0,0,0,0-.19.22.22,0,0,0-.18-.06h-3.86a.22.22,0,0,0-.25.25v7.23h-1.45v-6l.29-1.28c0-.15,0-.23-.17-.23H-211l.22-1.21h7.53a.18.18,0,0,1,.19.2Z" transform="translate(240 100)"/><path class="cls-2" d="M-198.24-62.39h-1.48v-7.23a.3.3,0,0,0,0-.19s-.08-.06-.17-.06H-201l.22-1.21h2.34a.18.18,0,0,1,.21.2Z" transform="translate(240 100)"/><path class="cls-2" d="M-189.08-69.87l-3.59,7.48h-1.56l3.4-7.21a.21.21,0,0,0,0-.2s-.08-.07-.17-.07h-4.77c-.19,0-.28-.11-.28-.31V-73l1.48-.25v1.93a.35.35,0,0,0,0,.2.22.22,0,0,0,.18.06h5.23c.13,0,.19.07.19.2Z" transform="translate(240 100)"/><path class="cls-2" d="M-177.11-65.74a2.67,2.67,0,0,1-.39,1.43,3.59,3.59,0,0,1-1,1.1,5.07,5.07,0,0,1-1.52.71,6.65,6.65,0,0,1-1.81.24,11.46,11.46,0,0,1-1.81-.14c-.56-.1-1.05-.21-1.48-.33a11.11,11.11,0,0,1-1.38-.48v-6.41a.38.38,0,0,0,0-.19.22.22,0,0,0-.18-.06h-.73l.22-1.21h2a.2.2,0,0,1,.15.06.2.2,0,0,1,.06.14v6.57a.78.78,0,0,0,0,.19.27.27,0,0,0,.15.11,6.33,6.33,0,0,0,.93.22c.29.06.61.11,1,.16a10.23,10.23,0,0,0,1.12.06,4.82,4.82,0,0,0,1.36-.17,3.2,3.2,0,0,0,1-.47,2,2,0,0,0,.66-.68,1.66,1.66,0,0,0,.23-.84v-3.89a.3.3,0,0,0,0-.19s-.08-.06-.17-.06h-.83l.22-1.21h2.09a.18.18,0,0,1,.21.2Zm-4.08-.9-.43,1.71h-1v-4.69c0-.17-.08-.25-.24-.25h-.59l.22-1.21h1.85a.18.18,0,0,1,.21.2Z" transform="translate(240 100)"/><path class="cls-2" d="M-167.24-63.41l-.37,1h-3.57l.2-1.21h2.06a.21.21,0,0,0,.17-.08.24.24,0,0,0,.07-.18l0-4.13a2.25,2.25,0,0,0-.1-.66,1.85,1.85,0,0,0-.31-.61,1.66,1.66,0,0,0-.54-.44,1.54,1.54,0,0,0-.75-.17H-172a.27.27,0,0,0-.31.27l-.78,7.21h-1.51l.71-6,.5-1.22a.27.27,0,0,0,0-.22.19.19,0,0,0-.17-.07h-1.31l.22-1.21h4.28a3.56,3.56,0,0,1,1.34.24,2.71,2.71,0,0,1,1,.65,2.87,2.87,0,0,1,.62,1,3.23,3.23,0,0,1,.22,1.22Z" transform="translate(240 100)"/><path class="cls-2" d="M-222.19-30.46l-1.48.26v-3.42a.41.41,0,0,0,0-.19s-.08-.06-.17-.06H-225l.22-1.21h2.35a.18.18,0,0,1,.2.2Z" transform="translate(240 100)"/><path class="cls-2" d="M-212.48-27.41l-.37,1h-3.57l.2-1.21h2.06a.25.25,0,0,0,.17-.08.28.28,0,0,0,.06-.18V-32a2.64,2.64,0,0,0-.1-.66,1.87,1.87,0,0,0-.32-.61,1.56,1.56,0,0,0-.54-.44,1.47,1.47,0,0,0-.74-.17h-1.64a.26.26,0,0,0-.3.27l-.78,7.21h-1.52l.72-6,.49-1.22c0-.1,0-.17,0-.22a.18.18,0,0,0-.17-.07h-1.31l.22-1.21h4.29a3.47,3.47,0,0,1,1.33.24,2.84,2.84,0,0,1,1,.65,3,3,0,0,1,.62,1,3.23,3.23,0,0,1,.22,1.22Z" transform="translate(240 100)"/><path class="cls-2" d="M-203.15-35.08l-.22,1.21h-.39l-1.43,2.68-.81.75c-.14.11-.14.24,0,.37l2.58,2.47-.2,1.21h-6.79l.21-1.21h4.52c.1,0,.16,0,.17-.1a.21.21,0,0,0-.09-.19l-1.85-1.56-3.31-5.21,1.19-.78,2.55,4.27c.05.08.11.12.17.11a.17.17,0,0,0,.13-.11l1.92-3.91Z" transform="translate(240 100)"/><path class="cls-2" d="M-194.8-30a2.86,2.86,0,0,1-.18,1,3.16,3.16,0,0,1-.48.84,3.16,3.16,0,0,1-.71.65A4.1,4.1,0,0,1-197-27l-4.49,1.53.24-1.41,2.09-.7c.14-.06.16-.15.07-.27l-.73-1.14-1.29-4.71a.18.18,0,0,0-.19-.15H-202l.22-1.21h1.46a.31.31,0,0,1,.22.08.4.4,0,0,1,.09.17l1.79,6.74a.16.16,0,0,0,.2.12,5.73,5.73,0,0,0,.64-.26,2.15,2.15,0,0,0,.55-.38,1.87,1.87,0,0,0,.39-.56,2,2,0,0,0,.15-.81v-3.64a.3.3,0,0,0,0-.19.22.22,0,0,0-.18-.06h-.86l.2-1.21H-195c.13,0,.19.07.19.2Z" transform="translate(240 100)"/><path class="cls-2" d="M-182.66-23.93l-1.48.26v-9.95a.29.29,0,0,0-.05-.19s-.08-.06-.17-.06h-2.72a.23.23,0,0,0-.26.22l-.29,2.56a.33.33,0,0,0,0,.17.1.1,0,0,0,.11.07h1.7l-.22,1.21h-2.91c-.14,0-.21-.06-.2-.17l.29-2.55.44-1.26c0-.17,0-.25-.17-.25h-.77l.23-1.21h6.25a.2.2,0,0,1,.15.06.2.2,0,0,1,.06.14Z" transform="translate(240 100)"/><path class="cls-2" d="M-177.85-26.39h-1.48v-7.23a.3.3,0,0,0,0-.19s-.08-.06-.17-.06h-1.09l.23-1.21h2.34a.18.18,0,0,1,.21.2Z" transform="translate(240 100)"/><path class="cls-2" d="M-167.89-29.76a4,4,0,0,1-.21,1.28,3.5,3.5,0,0,1-.65,1.12,3.25,3.25,0,0,1-1.12.8,4.05,4.05,0,0,1-1.63.3,4.17,4.17,0,0,1-1.64-.3,3.72,3.72,0,0,1-1.18-.8,3.52,3.52,0,0,1-.72-1.12,3.6,3.6,0,0,1-.25-1.28l0-2.6.29-1.28c0-.15,0-.23-.17-.23H-176l.22-1.21h5.44a2.36,2.36,0,0,1,1.74.69,2.68,2.68,0,0,1,.69,2Zm-1.48-2.67c0-1-.53-1.44-1.6-1.44h-2.58c-.17,0-.26.08-.26.25v3.88a2.09,2.09,0,0,0,.15.75,2.21,2.21,0,0,0,.43.74,2.12,2.12,0,0,0,.72.56,2.18,2.18,0,0,0,1,.23,2.08,2.08,0,0,0,1-.23,2.18,2.18,0,0,0,.66-.57,2.39,2.39,0,0,0,.35-.74,3,3,0,0,0,.1-.74Z" transform="translate(240 100)"/><path class="cls-2" d="M-163.25-30.46l-1.48.26v-3.42a.41.41,0,0,0,0-.19.19.19,0,0,0-.17-.06H-166l.22-1.21h2.34a.18.18,0,0,1,.21.2Z" transform="translate(240 100)"/><path class="cls-2" d="M-152.92-35.08l-.2,1.21h-.76l-1,2.7-1,1a.18.18,0,0,0,0,.28l2.89,2.74-1,1-3.3-3.27-1.31-2a.1.1,0,0,0-.13-.06.15.15,0,0,0-.12.11l-1.56,4.93h-1.5l1.48-4.58.83-1.22a.26.26,0,0,0,0-.32l-1.56-2.1,1.07-.85,3.4,4.56a.12.12,0,0,0,.15,0,.15.15,0,0,0,.12-.11l1.35-4.11Z" transform="translate(240 100)"/><path class="cls-2" d="M-186.23-53.34l-4.31,9.68-1.08-.48,4.3-9.67Z" transform="translate(240 100)"/></g></g></svg>