<?xml version="1.0" encoding="utf-8"?>
<!-- Generator: Adobe Illustrator 17.0.0, SVG Export Plug-In . SVG Version: 6.00 Build 0)  -->
<!DOCTYPE svg PUBLIC "-//W3C//DTD SVG 1.1//EN" "http://www.w3.org/Graphics/SVG/1.1/DTD/svg11.dtd">
<svg version="1.1" id="Layer_1" xmlns="http://www.w3.org/2000/svg" xmlns:xlink="http://www.w3.org/1999/xlink" x="0px" y="0px"
	 width="25px" height="25px" viewBox="0 0 25 25" enable-background="new 0 0 25 25" xml:space="preserve">
<g>
	<path fill="#EC0044" d="M17.198,0.457H5.076c-0.814,0-1.477,0.663-1.477,1.477v21.131c0,0.815,0.663,1.477,1.477,1.477h14.848
		c0.815,0,1.477-0.662,1.477-1.477V5.025L17.198,0.457z M20.161,23.065c0,0.13-0.106,0.237-0.237,0.237H5.076
		c-0.131,0-0.236-0.107-0.236-0.237V1.934c0-0.13,0.106-0.236,0.236-0.236h11.23V5.29c0,0.342,0.279,0.619,0.621,0.619h3.235V23.065
		z"/>
	<polygon fill="#EC0044" points="8.832,19.496 16.168,19.496 16.168,17.107 11.722,17.107 11.722,14.643 15.501,14.643 
		15.501,12.476 11.722,12.476 11.722,10.346 16.168,10.346 16.168,7.956 8.832,7.956 	"/>
</g>
</svg>
