<?xml version="1.0" encoding="utf-8"?>
<!-- Generator: Adobe Illustrator 16.0.3, SVG Export Plug-In . SVG Version: 6.00 Build 0)  -->
<!DOCTYPE svg PUBLIC "-//W3C//DTD SVG 1.1//EN" "http://www.w3.org/Graphics/SVG/1.1/DTD/svg11.dtd">
<svg version="1.1" id="Layer_1" xmlns="http://www.w3.org/2000/svg" xmlns:xlink="http://www.w3.org/1999/xlink" x="0px" y="0px"
	 width="45px" height="45px" viewBox="0 0 45 45" style="enable-background:new 0 0 45 45;" xml:space="preserve">
<style type="text/css">
<![CDATA[
	.st0{fill:none;stroke:#EC0044;stroke-miterlimit:10;}
	
		.st1{clip-path:url(#SVGID_6_);fill:none;stroke:#FFFFFF;stroke-width:0.8633;stroke-linecap:round;stroke-linejoin:round;stroke-miterlimit:10;}
	.st2{clip-path:url(#SVGID_10_);fill:#EC0044;}
	.st3{fill:#EC0044;}
	
		.st4{clip-path:url(#SVGID_4_);fill:none;stroke:#FFFFFF;stroke-width:0.8632;stroke-linecap:round;stroke-linejoin:round;stroke-miterlimit:10;}
	.st5{clip-path:url(#SVGID_2_);fill:#EC0044;}
	
		.st6{clip-path:url(#SVGID_2_);fill:none;stroke:#FFFFFF;stroke-width:0.8633;stroke-linecap:round;stroke-linejoin:round;stroke-miterlimit:10;}
	.st7{fill:none;stroke:#3FBFBB;stroke-miterlimit:10;}
	.st8{opacity:0.3;clip-path:url(#SVGID_12_);}
	
		.st9{clip-path:url(#SVGID_6_);fill:none;stroke:#FFFFFF;stroke-width:0.7891;stroke-linecap:round;stroke-linejoin:round;stroke-miterlimit:10;}
	.st10{clip-path:url(#SVGID_4_);fill:#EC0044;}
	.st11{opacity:0.5;}
	.st12{fill:#FFFFFF;}
	.st13{clip-path:url(#SVGID_6_);fill:#EC0044;}
	
		.st14{clip-path:url(#SVGID_10_);fill:none;stroke:#FFFFFF;stroke-width:0.8633;stroke-linecap:round;stroke-linejoin:round;stroke-miterlimit:10;}
	.st15{clip-path:url(#SVGID_8_);fill:#EC0044;}
	
		.st16{clip-path:url(#SVGID_8_);fill:none;stroke:#FFFFFF;stroke-width:0.8633;stroke-linecap:round;stroke-linejoin:round;stroke-miterlimit:10;}
]]>
</style>
<g>
	<defs>
		<rect id="SVGID_3_" x="1.5" y="1.5" width="42" height="42"/>
	</defs>
	<clipPath id="SVGID_2_">
		<use xlink:href="#SVGID_3_"  style="overflow:visible;"/>
	</clipPath>
	<path class="st5" d="M43.5,22.5c0,11.599-9.402,21-21,21s-21-9.401-21-21c0-11.598,9.402-21,21-21S43.5,10.902,43.5,22.5"/>
	
		<path style="clip-path:url(#SVGID_2_);fill:none;stroke:#FFFFFF;stroke-width:0.8632;stroke-linecap:round;stroke-linejoin:round;stroke-miterlimit:10;" d="
		M22.5,40.826c10.121,0,18.324-8.204,18.324-18.326c0-10.12-8.203-18.324-18.324-18.324C12.381,4.176,4.175,12.38,4.175,22.5
		C4.175,32.622,12.381,40.826,22.5,40.826z M22.481,8.686c0,0-9.365,11.239,3.745,27.631 M22.519,8.686
		c0,0,9.364,11.239-3.746,27.631 M23.437,14.149c0,0.518-0.418,0.937-0.937,0.937s-0.937-0.419-0.937-0.937
		c0-0.517,0.418-0.936,0.937-0.936S23.437,13.633,23.437,14.149z"/>
</g>
</svg>
