<?xml version="1.0" encoding="utf-8"?>
<!-- Generator: Adobe Illustrator 17.0.0, SVG Export Plug-In . SVG Version: 6.00 Build 0)  -->
<!DOCTYPE svg PUBLIC "-//W3C//DTD SVG 1.1//EN" "http://www.w3.org/Graphics/SVG/1.1/DTD/svg11.dtd">
<svg version="1.1" id="Layer_1" xmlns="http://www.w3.org/2000/svg" xmlns:xlink="http://www.w3.org/1999/xlink" x="0px" y="0px"
	 width="26px" height="18px" viewBox="0 0 26 18" enable-background="new 0 0 26 18" xml:space="preserve">
<g>
	<g>
		<path fill="#FFFFFF" d="M23.982,3.518H2.019C1.181,3.518,0.501,2.838,0.501,2s0.679-1.517,1.517-1.517h21.963
			c0.838,0,1.517,0.679,1.517,1.517S24.82,3.518,23.982,3.518z"/>
	</g>
	<g>
		<path fill="#FFFFFF" d="M23.982,10.518H2.019c-0.838,0-1.517-0.679-1.517-1.517s0.679-1.517,1.517-1.517h21.963
			c0.838,0,1.517,0.679,1.517,1.517S24.82,10.518,23.982,10.518z"/>
	</g>
	<g>
		<path fill="#FFFFFF" d="M23.982,17.517H2.019c-0.838,0-1.517-0.679-1.517-1.517s0.679-1.517,1.517-1.517h21.963
			c0.838,0,1.517,0.679,1.517,1.517S24.82,17.517,23.982,17.517z"/>
	</g>
</g>
</svg>
