<?xml version="1.0" encoding="utf-8"?>
<!-- Generator: Adobe Illustrator 16.0.3, SVG Export Plug-In . SVG Version: 6.00 Build 0)  -->
<!DOCTYPE svg PUBLIC "-//W3C//DTD SVG 1.1//EN" "http://www.w3.org/Graphics/SVG/1.1/DTD/svg11.dtd">
<svg version="1.1" id="Layer_1" xmlns="http://www.w3.org/2000/svg" xmlns:xlink="http://www.w3.org/1999/xlink" x="0px" y="0px"
	 width="25px" height="25px" viewBox="0 0 25 25" style="enable-background:new 0 0 25 25;" xml:space="preserve">
<style type="text/css">
<![CDATA[
	.st0{fill:none;stroke:#EC0044;stroke-miterlimit:10;}
	
		.st1{clip-path:url(#SVGID_6_);fill:none;stroke:#FFFFFF;stroke-width:0.8633;stroke-linecap:round;stroke-linejoin:round;stroke-miterlimit:10;}
	.st2{clip-path:url(#SVGID_10_);fill:#EC0044;}
	.st3{fill:#EC0044;}
	
		.st4{clip-path:url(#SVGID_4_);fill:none;stroke:#FFFFFF;stroke-width:0.8632;stroke-linecap:round;stroke-linejoin:round;stroke-miterlimit:10;}
	.st5{clip-path:url(#SVGID_2_);fill:#EC0044;}
	
		.st6{clip-path:url(#SVGID_2_);fill:none;stroke:#FFFFFF;stroke-width:0.8633;stroke-linecap:round;stroke-linejoin:round;stroke-miterlimit:10;}
	.st7{fill:none;stroke:#3FBFBB;stroke-miterlimit:10;}
	.st8{opacity:0.3;clip-path:url(#SVGID_12_);}
	
		.st9{clip-path:url(#SVGID_6_);fill:none;stroke:#FFFFFF;stroke-width:0.7891;stroke-linecap:round;stroke-linejoin:round;stroke-miterlimit:10;}
	.st10{clip-path:url(#SVGID_4_);fill:#EC0044;}
	.st11{opacity:0.5;}
	.st12{fill:#FFFFFF;}
	.st13{clip-path:url(#SVGID_6_);fill:#EC0044;}
	
		.st14{clip-path:url(#SVGID_10_);fill:none;stroke:#FFFFFF;stroke-width:0.8633;stroke-linecap:round;stroke-linejoin:round;stroke-miterlimit:10;}
	.st15{clip-path:url(#SVGID_8_);fill:#EC0044;}
	
		.st16{clip-path:url(#SVGID_8_);fill:none;stroke:#FFFFFF;stroke-width:0.8633;stroke-linecap:round;stroke-linejoin:round;stroke-miterlimit:10;}
]]>
</style>
<g>
	<path class="st3" d="M17.684,3H6.643C4.725,3,3.166,4.561,3.166,6.479v3.676v7.369C3.166,19.441,4.725,21,6.643,21h11.041
		c1.919,0,3.482-1.559,3.482-3.477v-7.369V6.479C21.166,4.561,19.603,3,17.684,3z M18.684,5.076l0.4-0.002v0.396v2.654L16.04,8.133
		l-0.007-3.051L18.684,5.076z M9.596,10.154c0.576-0.799,1.513-1.32,2.568-1.32c1.058,0,1.993,0.521,2.568,1.32
		c0.376,0.52,0.603,1.156,0.603,1.848c0,1.746-1.425,3.166-3.171,3.166s-3.166-1.42-3.166-3.166
		C8.998,11.311,9.222,10.674,9.596,10.154z M19.412,17.523c0,0.953-0.773,1.725-1.729,1.725H6.643c-0.95,0-1.724-0.771-1.724-1.725
		v-7.369h2.687c-0.231,0.57-0.36,1.193-0.36,1.848c0,2.715,2.205,4.92,4.919,4.92c2.715,0,4.925-2.205,4.925-4.92
		c0-0.654-0.132-1.277-0.366-1.848h2.689V17.523z"/>
</g>
</svg>
