<?xml version="1.0" encoding="utf-8"?>
<!-- Generator: Adobe Illustrator 16.0.3, SVG Export Plug-In . SVG Version: 6.00 Build 0)  -->
<!DOCTYPE svg PUBLIC "-//W3C//DTD SVG 1.1//EN" "http://www.w3.org/Graphics/SVG/1.1/DTD/svg11.dtd">
<svg version="1.1" id="Layer_1" xmlns="http://www.w3.org/2000/svg" xmlns:xlink="http://www.w3.org/1999/xlink" x="0px" y="0px"
	 width="125px" height="131px" viewBox="0 0 125 131" style="enable-background:new 0 0 125 131;" xml:space="preserve">
<style type="text/css">
<![CDATA[
	.st0{fill:none;stroke:#EC0044;stroke-miterlimit:10;}
	
		.st1{clip-path:url(#SVGID_6_);fill:none;stroke:#FFFFFF;stroke-width:0.8633;stroke-linecap:round;stroke-linejoin:round;stroke-miterlimit:10;}
	.st2{clip-path:url(#SVGID_10_);fill:#EC0044;}
	.st3{fill:#EC0044;}
	
		.st4{clip-path:url(#SVGID_4_);fill:none;stroke:#FFFFFF;stroke-width:0.8632;stroke-linecap:round;stroke-linejoin:round;stroke-miterlimit:10;}
	.st5{clip-path:url(#SVGID_2_);fill:#EC0044;}
	
		.st6{clip-path:url(#SVGID_2_);fill:none;stroke:#FFFFFF;stroke-width:0.8633;stroke-linecap:round;stroke-linejoin:round;stroke-miterlimit:10;}
	.st7{fill:none;stroke:#3FBFBB;stroke-miterlimit:10;}
	.st8{opacity:0.3;clip-path:url(#SVGID_12_);}
	
		.st9{clip-path:url(#SVGID_6_);fill:none;stroke:#FFFFFF;stroke-width:0.7891;stroke-linecap:round;stroke-linejoin:round;stroke-miterlimit:10;}
	.st10{clip-path:url(#SVGID_4_);fill:#EC0044;}
	.st11{opacity:0.5;}
	.st12{fill:#FFFFFF;}
	.st13{clip-path:url(#SVGID_6_);fill:#EC0044;}
	
		.st14{clip-path:url(#SVGID_10_);fill:none;stroke:#FFFFFF;stroke-width:0.8633;stroke-linecap:round;stroke-linejoin:round;stroke-miterlimit:10;}
	.st15{clip-path:url(#SVGID_8_);fill:#EC0044;}
	
		.st16{clip-path:url(#SVGID_8_);fill:none;stroke:#FFFFFF;stroke-width:0.8633;stroke-linecap:round;stroke-linejoin:round;stroke-miterlimit:10;}
]]>
</style>
<g>
	<path class="st3" d="M60.147,32.42c-0.458,0.281-0.7,0.361-0.845,0.529c-1.736,2.025-3.461,4.056-5.004,6.247
		c-0.893,1.269-1.965,2.435-3.086,3.513c-1.15,1.108-1.973,2.41-2.735,3.778c-0.252,0.457-0.511,0.91-0.773,1.359
		c-0.742,1.273-1.884,1.755-3.289,1.566c-1.48-0.2-2.477-1.104-3.005-2.47c-0.146-0.379-0.105-0.924,0.048-1.313
		c1.516-3.838,2.59-7.813,3.459-11.828c1.324-6.123,2.67-12.242,3.557-18.458c0.561-3.938,1.428-7.833,2.161-11.747
		c0.06-0.321,0.126-0.644,0.227-0.952c0.142-0.432,0.648-0.712,1.087-0.63c0.127,0.023,0.277,0.035,0.369,0.109
		c1.25,1.016,2.853,1.219,4.252,1.886c0.412,0.194,0.824,0.391,1.219,0.616c1.689,0.962,1.881,1.379,1.558,3.314
		c-0.527,3.153-1.015,6.316-1.6,9.46c-0.311,1.665-0.796,3.297-1.19,4.946c-0.503,2.094-0.957,4.201-1.506,6.285
		c-0.432,1.64-0.979,3.247-1.469,4.87c-0.146,0.486-0.275,0.98-0.529,1.885c0.594-0.501,0.918-0.68,1.116-0.954
		c2.035-2.806,4.509-5.226,6.77-7.833c0.425-0.492,0.786-1.037,1.17-1.563c0.938-1.289,2.503-1.745,3.743-0.822
		c1.442,1.071,3.073,1.668,4.678,2.358c0.558,0.239,1.02,0.549,1.314,1.098c0.295,0.551,0.387,1.104,0.091,1.682
		c-0.208,0.406-0.408,0.817-0.636,1.213c-2.68,4.668-4.447,9.716-6.108,14.808c-0.177,0.543-0.394,1.124,0.007,1.833
		c0.382-0.139,0.83-0.21,1.169-0.444c1.139-0.781,2.04-1.814,2.829-2.941c1.46-2.082,2.906-4.174,4.357-6.262
		c0.074-0.106,0.149-0.212,0.229-0.316c2.328-3.064,4.4-6.299,6.32-9.635c0.494-0.86,1.094-1.6,1.98-2.105
		c0.535-0.305,1.058-0.478,1.662-0.393c1.182,0.169,2.308,0.532,3.186,1.35c0.586,0.545,1.195,0.978,1.93,1.279
		c0.35,0.144,0.678,0.391,0.955,0.656c0.568,0.544,0.762,1.218,0.415,1.959c-0.442,0.946-0.951,1.861-1.379,2.812
		c-1.311,2.913-2.648,5.815-3.874,8.765c-0.909,2.189-1.254,4.521-1.271,6.895c-0.007,1.016,0.598,1.479,1.515,1.096
		c0.646-0.271,1.262-0.669,1.805-1.115c1.271-1.043,2.161-2.428,3.149-3.721c2.021-2.647,3.812-5.436,5.405-8.365
		c1.191-2.19,2.875-4.038,4.553-5.853c2.256-2.439,4.577-4.818,6.947-7.146c2.559-2.513,5.303-4.814,8.35-6.722
		c0.199-0.124,0.4-0.244,0.738-0.177c-0.479,0.403-0.937,0.838-1.441,1.206c-3.497,2.548-6.505,5.602-9.199,8.98
		c-0.446,0.559-0.865,1.144-1.279,1.729c-1.322,1.87-2.877,3.515-4.546,5.084c-1.798,1.69-3.525,3.48-4.647,5.744
		c-0.116,0.235-0.221,0.507-0.409,0.665c-1.358,1.127-1.777,2.847-2.692,4.252c-0.709,1.09-1.439,2.166-2.172,3.241
		c-0.292,0.431-0.727,0.797-0.904,1.267c-0.514,1.353-1.684,1.933-2.802,2.588c-0.446,0.261-0.979,0.413-1.352,0.75
		c-0.94,0.845-1.968,0.707-2.901,0.204c-1.032-0.555-2.051-1.08-3.188-1.393c-0.711-0.195-1.192-0.742-1.613-1.351
		c-1.668-2.4-2.031-5.047-1.441-7.852c0.282-1.342,0.685-2.655,1.022-3.982c0.076-0.301,0.114-0.611,0.224-1.222
		c-0.475,0.381-0.752,0.531-0.934,0.76c-2.35,2.955-4.625,5.969-6.672,9.147c-1.441,2.237-3.59,3.088-6.07,3.288
		c-0.894,0.072-1.809-0.084-2.711-0.173c-0.682-0.067-1.247-0.437-1.649-0.958c-0.963-1.256-1.739-2.6-1.729-4.271
		c0.009-1.576,0.146-3.139,0.632-4.64c0.662-2.048,1.387-4.075,2.076-6.112C59.89,33.423,59.971,33.06,60.147,32.42"/>
	<path class="st3" d="M2.376,43.337c1.232-0.554,2.23-1.122,3.363-0.96c1.658,0.238,3.312,0.541,4.938,0.934
		c0.985,0.238,1.374,0.969,1.279,1.91c-0.215,2.141-0.472,4.279-0.629,6.424c-0.214,2.931-0.402,5.863-0.5,8.798
		c-0.058,1.76,0.023,3.528,0.146,5.285c0.105,1.5,0.515,2.939,1.298,4.387c0.404-0.177,0.801-0.248,1.047-0.479
		c0.469-0.443,0.889-0.953,1.266-1.479c3.047-4.24,5.682-8.734,8.052-13.389c0.66-1.297,1.013-2.658,0.98-4.144
		c-0.026-1.229-0.317-2.317-1.052-3.29c-1.021-1.352-2.086-2.67-3.047-4.063c-1.109-1.608-2.205-3.234-3.164-4.936
		c-1.898-3.365-1.829-6.733,0.354-9.967c1.276-1.89,2.548-3.79,3.967-5.568c2.03-2.541,4.184-4.984,6.301-7.453
		c1.594-1.858,3.662-3.131,5.696-4.397c0.899-0.559,2.065-0.746,3.139-0.938c0.999-0.181,1.917,0.188,2.67,0.911
		c0.468,0.449,0.959,0.875,1.441,1.311c0.848,0.763,1.126,1.672,0.904,2.819c-0.546,2.818-1.028,5.651-1.524,8.479
		c-0.18,1.027-0.386,2.056-0.476,3.093c-0.418,4.819-0.853,9.642,0.462,14.408c0.068,0.246,0.106,0.514,0.093,0.769
		c-0.021,0.432-0.251,0.795-0.681,0.833c-0.57,0.049-1.175,0.072-1.723-0.063c-1.637-0.405-3.268-0.848-4.875-1.36
		c-2.088-0.668-3.095-2.429-2.611-4.586c0.541-2.413,1.186-4.801,1.744-7.21c0.589-2.541,1.17-5.088,1.32-7.705
		c0.024-0.424-0.083-0.854-0.138-1.362c-0.818,0.219-1.224,0.732-1.657,1.193c-1.779,1.896-3.642,3.724-5.295,5.726
		c-1.574,1.904-2.856,4.036-3.699,6.397c-0.315,0.885-0.312,1.761-0.121,2.691c0.633,3.094,2.074,5.742,4.136,8.086
		c0.602,0.685,1.134,1.431,1.737,2.115c0.715,0.807,1.129,1.748,1.331,2.79c0.249,1.281,0.507,2.563,0.681,3.856
		c0.131,0.973,0.029,1.941-0.211,2.911c-0.683,2.75-1.851,5.285-3.203,7.752c-1.804,3.297-4.222,6.106-6.896,8.694
		c-0.88,0.853-1.964,1.494-2.963,2.218c-0.578,0.421-1.267,0.729-1.744,1.241c-1.165,1.249-2.503,0.929-3.783,0.454
		c-0.83-0.307-1.541-0.94-2.301-1.435c-0.106-0.07-0.204-0.169-0.274-0.275c-1.372-2.054-2.739-4.114-4.105-6.173
		c-0.107-0.161-0.237-0.326-0.285-0.51c-0.442-1.693-1.067-3.37-1.256-5.094c-0.315-2.849-0.359-5.729-0.486-8.597
		c-0.034-0.781,0.008-1.57,0.07-2.351C2.328,49.182,2.82,46.336,2.376,43.337"/>
	<path class="st3" d="M94.973,81.279c-1.381,2.59-2.408,5.331-3.477,8.058c-0.594,1.516-1.124,3.052-2.01,4.445
		c-0.45,0.706-1.009,1.177-1.773,1.426c-0.43,0.139-0.87,0.257-1.313,0.341c-1.971,0.376-3.47-0.35-4.387-2.107
		c-0.662-1.265-1.227-2.594-1.705-3.941c-0.447-1.254-0.262-2.578-0.097-3.878c0.098-0.766,0.165-1.535,0.241-2.259
		c-0.551-0.273-0.722,0.086-0.852,0.324c-0.937,1.71-1.99,3.377-2.725,5.176c-0.902,2.215-2.277,4.055-3.817,5.816
		c-0.599,0.683-1.268,1.313-1.805,2.04c-0.425,0.575-0.896,0.905-1.603,0.936c-0.713,0.033-1.373,0.216-2.053,0.501
		c-1.871,0.789-3.257,0.354-4.379-1.357c-0.948-1.446-1.506-3.065-1.266-4.821c0.247-1.804,0.565-3.607,0.981-5.384
		c0.686-2.92,1.687-5.749,2.743-8.561c-0.051-0.097,0.232-0.246-0.058-0.292c0.034,0.11,0.069,0.223,0.104,0.334
		c-0.231,0.077-0.542,0.087-0.683,0.246c-0.943,1.07-1.932,2.117-2.751,3.28c-1.272,1.81-2.458,3.686-3.605,5.579
		c-0.339,0.559-0.634,1.113-1.112,1.576c-1.409,1.364-2.592,2.912-3.629,4.585c-1.137,1.836-2.629,3.39-4.09,4.962
		c-0.839,0.904-1.686,1.807-2.456,2.77c-0.375,0.468-0.658,0.976-1.332,1.001c-0.792,0.031-1.57-0.037-2.204-0.578
		c-0.295-0.254-0.541-0.563-0.798-0.858c-0.938-1.067-0.938-1.354-0.259-2.571c2.672-4.798,4.854-9.816,6.424-15.083
		c1.528-5.121,2.993-10.263,4.415-15.415c0.867-3.141,1.625-6.312,2.389-9.479c0.561-2.323,0.75-2.443,2.782-1.35
		c1.312,0.707,2.62,1.425,3.915,2.163c0.449,0.257,0.866,0.574,1.28,0.889c0.851,0.649,1.146,1.382,0.856,2.541
		c-0.698,2.798-1.729,5.466-2.789,8.131c-1.762,4.421-3.674,8.778-5.646,13.108c-1.128,2.481-2.154,5.008-3.275,7.623
		c0.955-0.394,0.992-0.431,1.412-0.988c0.979-1.302,1.965-2.597,2.941-3.899c1.875-2.5,3.754-4.996,5.615-7.507
		c1.857-2.509,3.682-5.043,5.548-7.546c1.181-1.585,1.397-1.753,3.639-0.901c1.312,0.498,2.228,1.555,3.239,2.455
		c0.455,0.404,0.54,1.015,0.248,1.628c-0.558,1.178-1.064,2.381-1.646,3.547c-1.928,3.867-3.304,7.938-4.461,12.091
		c-0.392,1.408-0.489,2.826-0.254,4.265c0.038,0.23,0.204,0.44,0.333,0.704c0.895-0.242,1.354-0.88,1.818-1.485
		c2.377-3.105,4.529-6.362,6.434-9.786c1.457-2.621,3.01-5.186,4.455-7.811c0.816-1.481,1.505-3.036,2.248-4.556
		c0.173-0.352,0.316-0.719,0.51-1.058c1.02-1.797,1.398-2.19,3.816-1.501c1.221,0.348,2.34,1.098,3.461,1.745
		c0.691,0.398,0.839,1.145,0.736,1.893c-0.051,0.377-0.229,0.744-0.389,1.096c-0.938,2.08-1.988,4.115-2.805,6.24
		c-0.65,1.694-1.08,3.484-1.498,5.26c-0.328,1.393-0.507,2.823-0.717,4.245c-0.115,0.771-0.209,1.554,0.092,2.28
		c0.38,0.244,0.674,0.123,0.863-0.177c0.869-1.377,1.756-2.746,2.561-4.161c0.904-1.584,1.734-3.211,2.582-4.826
		c0.244-0.467,0.449-0.949,0.996-1.141L94.973,81.279z"/>
	<path class="st3" d="M42.091,54.911c1.085,0.62,2.077,1.211,3.313,1.237c0.843,0.017,1.263,0.841,1.87,1.312
		c0.889,0.688,1.097,1.484,0.829,2.579c-0.812,3.305-1.222,6.673-1.429,10.073c-0.124,2.032-0.135,4.045,0.22,6.052
		c0.023,0.127,0.072,0.253,0.083,0.382c0.063,0.742-0.364,1.254-1.146,1.24c-0.641-0.014-1.303-0.074-1.912-0.26
		c-0.992-0.301-1.952-0.711-2.918-1.094c-1.217-0.482-2.056-1.337-2.455-2.596c1.655-3.346,2.59-6.846,2.779-10.783
		c-1.051,0.278-1.57,0.792-2.011,1.303c-2.042,2.369-3.99,4.806-5.375,7.656c-0.845,1.741-0.872,3.418,0.103,5.044
		c0.904,1.506,1.936,2.935,2.932,4.384c0.887,1.29,1.787,2.561,2.367,4.038c0.35,0.89,0.416,1.765,0.275,2.686
		c-0.277,1.832-0.888,3.557-1.84,5.128c-1.32,2.179-2.767,4.292-4.765,5.903c-1.312,1.059-2.69,2.082-4.177,2.852
		c-1.149,0.598-2.531,0.708-3.731-0.098c-0.749-0.502-1.522-1.034-2.109-1.708c-2.39-2.749-4.104-5.91-4.793-9.491
		c-0.456-2.355-0.504-4.796-0.027-7.205c0.25-1.263,0.803-1.979,2.146-2.416c1.749-0.568,3.465-0.382,5.191-0.371
		c1.009,0.006,1.741,0.601,2.163,1.673c0.482,1.225,0.454,2.4,0.267,3.643c-0.416,2.779-0.742,5.568-0.636,8.386
		c0.017,0.455,0.049,0.914,0.134,1.36c0.089,0.472,0.691,0.646,1.093,0.34c0.153-0.116,0.299-0.25,0.431-0.392
		c1.829-1.97,3.321-4.174,4.491-6.597c0.254-0.526,0.457-1.079,0.667-1.626c0.71-1.847,0.514-3.554-0.658-5.188
		c-1.063-1.48-2.03-3.03-3.021-4.563c-0.967-1.494-1.596-3.121-1.978-4.867c-0.174-0.797-0.216-1.564,0.024-2.316
		c0.355-1.117,0.667-2.271,1.21-3.295c2.193-4.15,5.225-7.617,8.817-10.597C39.525,55.882,40.652,55.246,42.091,54.911"/>
	<path class="st3" d="M90.984,24.242c-0.651-0.067-1.16-0.319-1.636-0.689c-1.688-1.318-2.513-3.104-2.742-5.192
		c-0.042-0.374,0.046-0.781,0.155-1.149c0.215-0.733,0.703-1.088,1.451-0.988c0.896,0.119,1.783,0.308,2.664,0.513
		c0.301,0.07,0.594,0.248,0.852,0.432c0.572,0.412,1.115,0.869,1.683,1.29c0.546,0.405,0.957,0.903,0.978,1.605
		c0.045,1.456-0.609,2.67-1.607,3.617C92.37,24.067,91.594,24.066,90.984,24.242"/>
	<path class="st3" d="M88.75,61.789c0.146-0.916,0.244-1.757,0.42-2.579c0.134-0.627,0.541-0.945,1.117-0.817
		c1.131,0.248,2.299,0.456,3.343,0.924c1.001,0.448,1.709,1.368,2.247,2.341c0.438,0.79,0.139,1.924-0.634,2.639
		c-0.518,0.479-1.062,0.931-1.594,1.394c-0.419,0.363-0.901,0.441-1.444,0.397C89.65,65.884,88.684,63.558,88.75,61.789"/>
	<path class="st3" d="M94.938,81.3c-0.021-0.091-0.041-0.181-0.061-0.271c-0.004,0.042-0.025,0.09-0.01,0.124
		c0.019,0.047,0.063,0.085,0.101,0.126C94.973,81.279,94.938,81.3,94.938,81.3"/>
	<path class="st3" d="M65.726,78.075c-0.034-0.111-0.069-0.224-0.104-0.334c0.289,0.046,0.007,0.195,0.058,0.291
		C65.688,78.038,65.726,78.075,65.726,78.075"/>
	<polygon class="st3" points="58.188,117.991 58.087,119.363 60.837,119.104 60.295,128 61.912,127.848 62.47,118.95 65.219,118.69 
		65.303,117.319 	"/>
	<path class="st3" d="M70.278,124.003l-0.19-4.23c-0.252-0.014-0.532-0.008-0.786,0.045c-1.608,0.329-2.287,2.301-1.818,4.622
		c0.194,0.962,0.646,1.387,1.267,1.26C69.576,125.53,70.093,124.641,70.278,124.003 M65.854,124.823
		c-0.604-2.995,0.678-5.756,3.399-6.313c0.812-0.167,1.771-0.179,2.327-0.126l0.272,5.862c0.007,0.115,0.014,0.23,0.029,0.311
		c0.077,0.386,0.285,0.51,0.619,0.441c0.127-0.027,0.28-0.091,0.46-0.178l0.033,1.144c-0.216,0.16-0.601,0.305-0.967,0.38
		c-0.875,0.179-1.363-0.271-1.519-0.957l-0.032,0.008c-0.205,0.542-0.85,1.457-1.963,1.685
		C67.225,127.344,66.188,126.472,65.854,124.823"/>
	<polygon class="st3" points="73.879,114.211 75.387,113.753 76.913,124.896 75.405,125.354 	"/>
	<path class="st3" d="M83.445,121.545l-2.648-2.026l0.852,3.793l-1.461,0.593l-2.512-10.961l1.461-0.591l1.553,6.68l1.639-4.609
		l1.582-0.64l-1.714,4.903l2.289,1.696c0.343,0.286,0.587,0.328,0.903,0.199c0.105-0.042,0.22-0.107,0.357-0.198L86,121.496
		c-0.191,0.183-0.377,0.33-0.679,0.45C84.674,122.21,84.2,122.12,83.445,121.545"/>
	<path class="st3" d="M95.625,114.553l-2.746-0.854l-0.3-0.779c0.723-0.738,1.103-1.696,0.69-2.324
		c-0.305-0.463-0.711-0.545-1.238-0.193c-1.191,0.795-0.916,2.926,0.098,4.463c0.637,0.969,1.551,1.379,2.565,0.702
		C95.127,115.278,95.447,114.847,95.625,114.553 M96.854,114.969c-0.421,0.691-0.969,1.312-1.78,1.853
		c-1.623,1.085-3.194,0.564-4.253-1.044c-1.5-2.273-1.187-5.227,0.736-6.51c1.068-0.714,2.25-0.696,2.913,0.312
		c0.728,1.103,0.153,2.27-0.413,3.099l2.27,0.663c0.901-2.211,0.813-4.563-0.201-6.102c-0.97-1.47-2.279-1.654-4.454-0.695
		l-0.582-1.298c2.827-1.297,4.931-0.976,6.276,1.067c1.221,1.853,1.272,4.797,0.166,7.438c1.279,0.344,1.68,0.39,2.207,0.037
		c0.434-0.289,0.717-0.597,0.858-0.826l0.696,0.966c-0.209,0.336-0.447,0.593-0.949,0.927
		C99.343,115.522,98.434,115.384,96.854,114.969"/>
	<path class="st3" d="M105.369,101.219c0.964-0.995,1.031-1.955,0.124-2.846c-0.629-0.615-1.353-0.687-2.17,0.157l-1.009,1.041
		l2.023,2.714L105.369,101.219z M109.167,103.456l-3.312-1.054l-0.803,0.833l2.619,3.546l-1.145,1.184l-6.118-8.252l2.245-2.317
		c1.348-1.394,2.877-1.334,3.971-0.262c1.059,1.037,1.273,2.455,0.259,3.974l2.896,0.872c0.507,0.156,0.771,0.116,1.055-0.175
		c0.08-0.082,0.147-0.176,0.238-0.293l0.736,0.995c-0.136,0.211-0.226,0.374-0.385,0.537
		C110.824,103.664,110.171,103.778,109.167,103.456"/>
	<path class="st3" d="M112.746,93.4c-0.856-0.647-1.889-0.899-2.553-0.011c-0.93,1.239,0.197,2.994,1.689,4.123
		c0.842,0.64,1.889,0.899,2.553,0.014C115.364,96.285,114.238,94.533,112.746,93.4 M110.805,98.763
		c-1.959-1.484-3.041-4.085-1.488-6.159c1.301-1.735,3.119-1.504,4.494-0.46c1.945,1.474,3.063,4.081,1.51,6.154
		C114.021,100.034,112.18,99.806,110.805,98.763"/>
	<polygon class="st3" points="110.264,85.882 111.092,84.533 119.575,91.853 118.748,93.202 	"/>
	<polygon class="st3" points="112.336,82.214 121.277,88.974 122.016,87.574 113.074,80.813 	"/>
</g>
<g class="st11">
	<g>
		<defs>
			<rect id="SVGID_11_" x="-1523.5" y="-2051.523" width="1280" height="4410.047"/>
		</defs>
		<clipPath id="SVGID_2_">
			<use xlink:href="#SVGID_11_"  style="overflow:visible;"/>
		</clipPath>
		<g style="opacity:0.3;clip-path:url(#SVGID_2_);">
			<path class="st0" d="M-165.889-760.486c1.941-0.541,3.859-1.078,5.799-1.641c0.025,0.104,0.05,0.186,0.076,0.287
				c-1.883,0.475-3.781,0.971-5.706,1.445C-165.74-760.391-165.889-760.486-165.889-760.486 M114.528-180.064l-0.479-1.488
				l-1.122,1.289L114.528-180.064z M113.299-157.582c0.588,0.223,1.398,0.311,1.664,0.732c0.268,0.4-0.053,1.162-0.129,1.783
				c-0.882-0.354-1.787-0.707-2.672-1.061C112.534-156.619,112.927-157.09,113.299-157.582 M96.373-1222.248
				c-2.493,2.549-3.047,23.016-4.61,24.613c-1.235-1.805-3.972-22.336-4.514-24.34c-0.272-0.979-0.285-37.277,0.425-37.164
				C89.611-1258.766,93.535-1223.818,96.373-1222.248 M85.823-1322.33c1.376,3.621,2.132,31.307,3.141,35.025
				c0.248,0.918,0.782,6.539-0.283,6.771c-1.228,0.26-2.45,1.141-2.825,0.145c-1.291-3.52-0.925-37.725-1.808-41.385L85.823-1322.33
				z M90.541-1170.254c11.172,17.289,11.436,20.938,5.043,38.828c-1.152-0.797-3.252-1.576-3.314-2.461
				C91.588-1144.379,91.21-1154.904,90.541-1170.254 M96.895-1096.18c1.461,3.615,3.868,7.146,4.176,10.877
				c0.402,4.943-0.553,10.068-1.326,15.063c-2.544,16.092-1.623,31.945,2.371,47.711c1.227,4.887,3.73,10.645,2.281,14.844
				c-7.5,21.848,9.221,176.6,6.927,198.383c-2.275,21.742-1.646,43.791-1.989,65.717c-0.102,7.59-0.42,15.459,1.303,22.723
				c7.117,29.973,2.853,60.627,6.137,90.846c1.824,16.707,1.883,33.674,1.729,50.529c-0.551,57.443,1.519,114.758,7.918,171.881
				c5.726,51.137,11.433,102.256,17.136,153.391c0.374,3.355,1.308,6.744,1.103,10.059c-1.056,16.09,0.297,31.926,2.689,47.883
				c1.917,12.67-1.814,20.439-6.837,18.592c-8.131-2.994-6.912-10.592-8.082-17.051c-5.373-29.822-5.613-60.383-12.837-89.977
				c-1.787-7.303-1.569-15.105-2.229-22.664c-0.685-7.578,0.063-15.566-2.188-22.621c-6.32-19.773-5.341-39.971-5.957-60.221
				c-0.879-28.652-2.791-57.281-4.596-85.893c-1.126-17.688-2.848-35.326-4.32-52.977c-0.136-1.689-0.497-3.348-0.51-5.043
				c-0.542-45.576-0.941-91.158-1.65-136.746c-0.162-11.773-1.297-23.527-1.85-35.307c-0.264-5.053-0.381-10.133-0.251-15.182
				c0.726-26.945,2.976-53.955,1.826-80.818c-0.775-18.633-6.534-170.494-5.754-189.051c0.548-13.459,0.016-27.08-1.499-40.492
				C88.221-1052.93,90.6-1073.748,96.895-1096.18 M60.324,816.848c9.546-17.615,24.421-25.828,39.111-33.539
				c8.811-4.623,18.906-7.254,28.717-9.379c9.461-2.047,14.443-6.273,16.303-16.256c3.939-21.008,4.554-41.934,1.773-63.037
				c-0.652-5.018-1.967-10.004-2.063-15.045c-1.166-64.15-9.334-128.102-5.879-192.414c1.631-30.373,2.265-60.785,3.254-91.193
				c0.271-8.445,0.771-16.943,0.195-25.352c-4.646-69.912-6.503-139.967-9.5-209.971c-1.193-27.813-4.285-55.563-5.809-83.359
				C125.792,65.609,116.36-77.99,116.343-89.75c-0.005-4.857-1.23-9.744-2.289-14.557c-2.142-9.785-2.979-19.486-1.384-28.857
				c7.34-1.396,10.038,2.643,10.845,6.473c2.787,13.17,16.415,158.24,17.81,171.635c2.195,20.947,3.218,42.027,4.964,63.057
				c0.388,4.613,0.326,9.846,6.29,13.389c5.295-8.914-0.012-17.322,1.271-25.338c1.226-7.451,1.651-15.201,1.198-22.727
				c-1.743-29.482-4.165-58.938-5.948-88.396c-0.812-13.463-1.384-26.998-0.854-40.436c0.738-19.566-0.699-38.727-4.803-57.896
				c-2.262-10.627-2.416-21.742-2.935-32.674c-0.069-1.59,2.865-4.445,4.715-4.713c1.95-0.293,5.161,1.283,6.188,3.016
				c1.629,2.762,3.157,6.559,2.563,9.502c-3.28,16.246,1.313,31.939,2.628,47.84c3.022,37.035,6.621,74.002,9.58,111.039
				c1.954,24.387,2.776,48.869,4.854,73.25c6.018,70.639,12.327,141.264,18.739,211.883c2.143,23.533,5.235,46.982,7.316,70.539
				c1.634,18.51,2.713,37.066-4.814,54.967c-1.536,3.621-1.938,8.645-0.763,12.373c6.766,21.449,4.095,43.602,5.671,65.443
				c1.86,26.088,3.723,52.197,5.855,78.273c2.867,35.346,6.535,70.656,8.744,106.051c1.061,16.779,0.047,33.773-0.913,50.621
				c-1.462,25.221-15.849,42.279-37.222,53.611c-8.829,4.664-18.822,7.332-28.47,10.297c-14.503,4.436-29.147,8.424-43.753,12.473
				C88.256,824.063,75.145,826.309,60.324,816.848 M-554.117-228.178c0.143-3.377-0.592-6.961,0.543-9.822
				c7.731-19.438,14.571-39.373,24.161-57.877c11.097-21.363,27.551-25.1,48.409-13.713c3.663,2.012,7.12,4.424,10.65,6.689
				c6.866,4.391,10.746,10.383,10.203,18.818c-0.451,6.697-0.006,13.563-1.293,20.066c-6.597,33.588-25.981,46.443-64.119,45.938
				C-535.45-218.203-545.191-221.643-554.117-228.178 M-506.672-1296.604c4.902,47.451-49.635,81.334-91.61,62.58
				c-5.901-2.637-9.428-6.699-9.129-13.576c1.293-29.594,9.04-58.064,15.291-86.76c2.413-11.063,13.104-18.514,25.046-16.74
				c16.436,2.402,33.935,4.078,42.939,21.938c1.447,2.873,4.261,5.229,6.853,7.307
				C-508.566-1314.898-505.421-1305.836-506.672-1296.604 M-452.72,427.695c2.479,5.184,3.45,9.441,6.032,12.201
				c24.312,26.121,51.395,48.959,82.975,65.914c12.066,6.48,25.22,9.502,39.22,7.238c13.339-2.176,26.912-3.264,40.054-6.297
				c7.142-1.633,14.229-5.459,20.18-9.83c19.064-14.041,37.516-28.904,56.34-43.244c8.743-6.666,17.503-13.352,26.799-19.174
				c16.661-10.443,34.86-12.084,53.682-7.119c20.702,5.463,39.436,15.104,56.474,27.961c16.181,12.215,31.835,25.15,48.19,37.131
				c30.92,22.627,51.469,53.459,68.447,86.783c7.893,15.508,5.28,32.365-6.506,45.076c-25.999,28.049-54.944,52.568-91.218,66.842
				c-6.257,2.465-12.781,4.527-18.636,7.779c-38.16,21.221-79.684,26.506-122.396,26.389c-2.522-0.016-5.034-0.752-7.56-0.85
				c-9.592-0.449-15.53-5.338-18.815-14.268c-4.971-13.529-9.836-26.939-10.209-41.66c-0.342-13.504-1.717-26.984-2.45-40.492
				c-0.281-5.051-0.55-10.186,0.038-15.193c2.654-22.109,11.169-29.715,33.451-27.361c41.678,4.424,82.692-1.646,123.817-6.543
				c4.752-0.559,9.332-2.68,16.228-4.76c-3.112-5.01-4.58-8.771-7.215-11.363c-22.565-22.123-49.628-37.854-77.242-52.502
				c-20.421-10.826-40.009-10.633-58.526,5.969c-15.716,14.1-33.492,25.459-52.862,34.43c-12.986,6.023-24.862,14.334-37.525,21.133
				c-39.06,20.988-78.11,18.043-116.526-1.611c-28.796-14.723-54.157-34.533-77.416-56.896
				c-17.045-16.393-33.42-33.514-49.773-50.641c-5.805-6.072-10.819-12.982-15.788-19.773c-5.847-7.973-7.517-16.848-4.379-26.432
				c1.293-3.984,3.944-8.172,3.487-11.977c-2.638-22.064,6.228-41.531,13.345-61.271c2.471-6.867,7.024-13.371,11.886-18.916
				c8.645-9.846,20.025-12.451,32.35-8.068c37.836,13.457,77.349,17.498,116.939,20.029c20.148,1.271,40.521-0.799,60.774-1.393
				c10.136-0.277,20.28-0.865,30.409-0.854c6.698,0.02,11.756,4.139,12.75,10.318c1.186,7.285,2.101,15.492-0.082,22.266
				c-5.498,17.023-9.365,34.061-10.485,51.967c-0.751,12.17-6.754,22.371-15.937,30.773c-10.813,9.877-21.99,14.293-36.896,8.576
				c-23.65-9.074-47.728-17.057-71.822-24.914c-9.561-3.137-19.591-5.076-29.545-6.811
				C-442.499,425.576-446.714,426.998-452.72,427.695 M-165.889-760.486c1.843-5.602-0.225-9.871-4.554-13.363
				c-11.846-9.527-23.419-19.418-35.639-28.479c-27.812-20.654-55.938-40.863-83.91-61.283
				c-28.651-20.906-57.382-41.707-85.86-62.852c-20.336-15.07-38.819-32.639-61.188-45.016c-3.473-1.916-6.938-5.547-8.358-9.188
				c-7.771-19.873-8.078-39.662,4.373-57.941c5.188-7.627,11.845-14.242,17.924-21.266c7.008-8.08,15.651-9.428,25.261-5.65
				c3.935,1.52,7.66,3.551,11.444,5.453c37.107,18.574,75.888,32.818,115.018,46.592c36.025,12.668,72.413,22.799,110.075,28.926
				c12.637,2.055,24.883,2.244,39.612-0.24c-2.381-5.311-3.019-9.998-5.693-12.09c-9.912-7.836-19.955-15.77-30.933-21.947
				c-29.456-16.551-59.62-31.854-89.134-48.342c-37.564-20.973-74.726-42.668-112.137-63.916
				c-31.498-17.912-63.077-35.736-94.729-53.352c-12.772-7.088-19.299-20.219-19.25-35.186c0.086-22.639,7.053-43.033,17.209-62.764
				c10.288-20.004,23.369-25.246,43.725-15.406c26.775,12.93,54.599,22.4,83.234,30.184c23.618,6.387,46.453,15.727,70.137,21.762
				c37.627,9.582,75.677,17.492,113.547,26.111c7.412,1.701,14.77,3.592,23.767-0.605c-1.08-3.857-1.44-7.873-3.295-11.037
				c-1.587-2.764-4.62-4.967-7.464-6.682c-24.604-14.801-49.112-29.793-74.063-44.039c-31.545-18.014-63.783-34.877-95.098-53.293
				c-13.683-8.043-27.269-15.76-41.8-22.381c-26.851-12.264-51.359-28.721-72.767-49.781c12.317,2.295,23.584,7.012,34.274,13.285
				c23.397,13.691,47.72,25.346,72.903,35.428c11.695,4.678,23.034,10.59,33.898,17.063c29.031,17.252,57.412,35.672,86.672,52.543
				c15.311,8.818,31.537,16.42,48.078,22.684c23.35,8.82,38.118,27.502,54.242,44.555c3.313,3.494,3.126,11.027,3.189,16.729
				c0.088,10.02-2.154,20.207-1.123,30.082c1.645,15.93-4.353,28.613-15.269,38.537c-9.901,9.01-21.165,17.066-32.983,23.369
				c-14.34,7.676-29.854,9.326-46.658,6.504c-43.564-7.338-85.007-21.982-127.168-34.137c-12.77-3.678-25.343-8.027-39.001-8.92
				c13.534,9.352,77.585,55.15,82.597,57.701c42.01,21.504,84.402,42.246,126.317,63.918c15.713,8.098,30.567,17.889,45.63,27.236
				c6.058,3.766,8.659,9.834,9.652,17.004c2.619,18.799-2.381,34.932-15.14,49.031c-33.327,36.82-74.85,50.604-123.46,44.129
				c-14.201-1.887-28.217-5.201-42.326-7.83c-5.625-1.035-11.248-2.031-18.063-3.262c5.133,19.082,13.733,33.258,30.168,42.318
				c5.781,3.18,10.297,8.605,15.505,12.863c5.854,4.787,11.668,9.68,17.833,14.063c19.967,14.156,40.109,28.098,60.151,42.146
				c23.478,16.461,47.326,32.432,70.258,49.643c16.841,12.639,32.804,26.535,48.408,40.674c8.76,7.947,9.103,25.709,1.382,37.809
				c-3.54,5.57-8.798,10.121-13.661,14.734c-6.887,6.502-14.507,7.207-23.283,3.084c-17.578-8.225-35.236-16.363-53.242-23.535
				c-82.422-32.82-164.89-65.313-252.052-84.162c-42.092-9.098-129.662-24.207-172.625-28.719
				c-19.311-2.031-38.682-3.479-58.032-4.971c-15.14-1.156-30.342-1.797-45.482-3.016c-6.639-0.537-11.067-5.389-10.081-12.15
				c4.284-29.227,7.796-58.629,18.548-86.506c5.609-14.51,61.949-17.279,77.214-17.512c33.701-1.473,196.124,45.449,241.78,67.619
				c8.343,4.061,97.736,45.549,116.98,54.094c12.332,5.477,24.532,11.248,36.674,17.148c2.916,1.424,5.338,3.898,8.009,5.889
				c1.925-0.475,3.823-0.971,5.706-1.445c-0.026-0.102-0.051-0.184-0.076-0.287C-162.029-761.564-163.947-761.027-165.889-760.486
				 M-162.473,232.42c-3.806-4.301-7.181-9.135-11.517-12.832c-46.329-39.439-92.578-78.947-139.339-117.877
				c-18.146-15.102-37.648-28.555-56.166-43.188c-7.794-6.15-16.918-11.58-17.865-23.322c-1.07-13.16,2.111-25.453,9.127-36.199
				c6.433-9.85,14.114-18.994,22.109-27.65c10.934-11.848,23.684-13.83,39.268-6.738c18.455,8.414,36.927,16.762,54.981,25.979
				c34.713,17.689,72.206,28.516,107.611,44.52c32.389,14.627,65.948,26.225,100.202,35.705c4.623,1.289,9.498,1.715,15.644,2.77
				c-1.147-4.457-1.046-7.336-2.433-8.824c-5.787-6.135-11.58-12.414-18.156-17.666c-34.934-27.971-69.46-56.539-105.452-83.121
				c-25.076-18.541-52.127-34.457-78.588-51.076c-22.146-13.916-44.429-27.619-67.188-40.477
				c-16.106-9.113-33.195-16.533-49.668-25.012c-13.513-6.975-26.97-14.119-40.043-21.857c-4.094-2.406-8.552-6.49-9.936-10.75
				c-6.253-19.156-7.327-38.086,6.118-55.375c5.655-7.295,10.477-15.236,15.982-22.672c10.755-14.504,24.507-18.184,39.825-9.115
				c23.447,13.857,48.611,23.529,73.678,33.74c30.493,12.455,60.355,26.447,90.551,39.621c22.441,9.789,44.902,19.598,67.532,28.945
				c21.198,8.729,43.524,13.52,66.154,16.77c2.997,0.43,6.291-1.289,10.711-2.287c-1.289-3.996-1.469-7.666-3.367-9.92
				c-13.123-15.551-27.748-29.504-44.917-40.703c-14.149-9.221-28.24-18.568-41.845-28.557
				c-23.127-16.996-47.885-31.541-71.308-48.191c-14.824-10.514-31.729-18.914-47.59-28.494
				c-40.506-24.443-81.438-48.203-122.885-71.014c-42.148-23.189-84.455-46.314-127.936-66.844
				c-35.372-16.707-65.053-38.873-87.428-70.846c-8.246-11.754-16.349-23.594-24.772-35.215
				c-10.845-14.988-12.404-30.855-5.438-47.863c3.87-9.41,5.91-18.984,6.343-29.443c0.711-16.898,7.864-29.117,25.359-37.012
				c19.116-8.627,37.729-13.615,58.57-12.521c10.899,0.58,21.95-1,32.853-2.219c36.925-4.111,73.824-8.287,110.687-12.854
				c19.472-2.42,33.747,2.619,28.896,31.131c-2.425,14.098-6.156,28.068-10.478,41.736c-2.253,7.086-6.683,13.623-10.872,19.924
				c-6.536,9.857-15.079,14.404-27.922,12.838c-30.241-3.723-60.675-3.469-91.028-0.326c-13.479,1.395-26.564,3.723-39.008,13.197
				c8.095,16.865,19.483,30.094,32.804,41.686c18.072,15.727,38.711,27.332,61.403,34.795c21.788,7.15,43.597,4.793,64.353-4.176
				c10.791-4.688,21.326-10.52,30.889-17.346c22.01-15.699,43.471-32.18,64.953-48.602c18.982-14.492,39.192-26.475,62.463-32.76
				c14.117-3.82,28.076-4.121,42.568-1.219c48.65,9.719,90.53,32.014,126.487,65.895c11.062,10.451,22.042,20.99,33.44,31.098
				C3.039-494.246,7.292-475.414,1.75-454.15c-4.761,18.295-12.339,35.037-29.831,45.309c-4.235,2.48-7.632,6.555-11.069,10.219
				c-14.196,15.215-31.906,25.289-51.225,31.609c-34.748,11.357-70.448,17.959-107.286,14.586
				c-6.704-0.617-13.345-2.166-19.975-3.469c-12.552-2.49-21.892-8.51-24.533-22.203c-0.615-3.219-1.707-6.934-3.875-9.195
				c-16.812-17.623-12.437-39.58-11.935-60.311c0.313-13.658,14.914-26.223,29-27.498c5.002-0.445,10.141-0.154,15.149,0.434
				c37.217,4.492,74.276,0.166,111.372-1.887c1.464-0.084,2.832-1.447,4.306-2.236c2.231-4.768-0.622-8.115-3.622-11.002
				c-31.55-30.434-70.022-46.654-112.64-53.621c-18.134-2.971-35.082,0.852-50.156,12.547
				c-15.334,11.936-31.502,22.789-47.202,34.266c-34.354,25.166-70.433,46.771-112.977,55.203c-1.413,0.268-2.561,1.932-3.939,3.021
				c-1.889,5.5,2.705,7.492,5.977,9.52c40.234,24.824,204.586,125.176,245.256,152.424c25.466,17.078,53.342,29.193,79.697,44.311
				c16.091,9.219,32.107,18.607,48.102,27.998c19.924,11.697,33.312,28.145,37.778,51.348c1.438,7.422,3.947,14.67,6.164,21.934
				c7.594,24.803,0.241,45.771-21.869,58.664C-46.13-61.389-66.766-56.807-87.989-54.826c-5.83,0.523-11.698,0.553-17.309,0.797
				c-3.179,5.35,0.125,8.098,3.659,10.465c14.733,9.816,28.217,21.342,42.521,31.732C-29.7,9.561-3.986,35.082,10.987,69.838
				c8.691,20.146,11.422,40.057,7.977,61.539c-2.969,18.611-13.604,29.76-30.044,37.652c-27.739,13.281-55.297,12.707-83.559,2.137
				c-43.541-16.268-87.209-32.158-130.84-48.154c-8.551-3.141-17.211-5.965-25.564-8.846c-4.157,6.566,0.2,9.271,2.802,11.66
				c8.08,7.418,16.845,14.084,24.918,21.482c24.31,22.275,47.83,45.436,72.75,66.98c21.071,18.18,43.504,34.832,65.696,51.68
				c14.792,11.24,30.431,21.369,45.284,32.564c10.089,7.6,19.296,16.355,29.191,24.254c9.186,7.307,18.845,14.063,28.169,21.219
				c13.494,10.326,17.424,25.037,10.98,40.305c-5.23,12.359-26.413,24.281-39.702,21.928c-4.957-0.879-9.789-2.631-14.539-4.389
				c-71.307-26.406-142.249-53.898-214.001-79.045c-63.771-22.352-178.048-51.664-242.873-70.641
				c-32.245-9.445-66.234-12.92-99.447-18.975c-4.979-0.898-10.127-0.943-15.127-1.779c-15.306-2.576-20.389-9.156-17.324-24.709
				c3.266-16.555,7.49-32.947,11.928-49.221c3.492-12.781,12.52-21.918,22.609-29.844c7.237-5.691,16.09-4.609,24.45-3.92
				c26.159,2.145,101.902,14.807,127.205,21.971c30.852,8.76,151.683,45.943,180.819,57.113
				c27.393,10.523,54.34,22.184,81.472,33.359C-164.679,234.914-163.576,233.668-162.473,232.42"/>
		</g>
	</g>
</g>
</svg>
