<?xml version="1.0" encoding="utf-8"?>
<!-- Generator: Adobe Illustrator 17.0.0, SVG Export Plug-In . SVG Version: 6.00 Build 0)  -->
<!DOCTYPE svg PUBLIC "-//W3C//DTD SVG 1.1//EN" "http://www.w3.org/Graphics/SVG/1.1/DTD/svg11.dtd">
<svg version="1.1" id="Layer_1" xmlns="http://www.w3.org/2000/svg" xmlns:xlink="http://www.w3.org/1999/xlink" x="0px" y="0px"
	 width="93px" height="29px" viewBox="0 0 93 29" enable-background="new 0 0 93 29" xml:space="preserve">
<g>
	<path fill-rule="evenodd" clip-rule="evenodd" fill="#FFFFFF" d="M21.624,20.065c0.192-0.155,0.406-0.29,0.572-0.468
		c1.78-1.907,3.563-3.811,5.321-5.738c0.682-0.748,1.296-1.557,1.959-2.321c0.279-0.322,0.529-0.702,1.035-0.72
		c0.567-0.021,1.089,0.138,1.537,0.458c0.411,0.293,0.789,0.639,1.146,0.997c0.488,0.49,0.549,1.039,0.216,1.692
		c-0.396,0.773-0.789,1.548-1.218,2.302c-0.824,1.451-1.359,3.034-2.113,4.518c-0.689,1.358-1.249,2.771-1.721,4.218
		c-0.064,0.195-0.091,0.403-0.148,0.664c0.193-0.041,0.317-0.031,0.383-0.088c0.274-0.236,0.555-0.472,0.792-0.743
		c1.266-1.442,2.557-2.865,3.766-4.354c0.843-1.038,1.577-2.165,2.34-3.265c0.639-0.921,1.269-1.848,1.863-2.797
		c0.421-0.672,0.772-1.389,1.167-2.077c0.325-0.565,0.657-1.127,1.013-1.671c0.111-0.171,0.295-0.354,0.48-0.405
		c0.834-0.232,1.649-0.242,2.366,0.365c0.303,0.255,0.634,0.476,0.943,0.726c0.603,0.487,0.735,1.082,0.317,1.72
		c-0.639,0.977-1.101,2.035-1.587,3.087c-0.592,1.281-1.249,2.531-1.871,3.798c-0.462,0.941-0.925,1.884-1.369,2.834
		c-0.414,0.89-0.662,1.836-0.844,2.797c-0.024,0.127,0.043,0.271,0.078,0.462c0.174-0.048,0.332-0.049,0.432-0.125
		c0.692-0.532,1.319-1.131,1.831-1.845c0.422-0.588,0.85-1.173,1.304-1.736c0.773-0.957,1.444-1.989,2.202-2.959
		c0.479-0.614,0.871-1.321,1.312-1.982c1.125-1.686,2.222-3.392,3.279-5.122c1.075-1.759,2.146-3.525,3.109-5.346
		c0.784-1.481,1.791-2.709,3.205-3.606c0.52-0.331,1.044-0.655,1.558-0.993c0.664-0.436,1.348-0.473,2.065-0.143
		c0.397,0.183,0.804,0.288,1.252,0.326c0.724,0.062,1.235,0.391,1.541,1.153c0.335,0.833,0.514,1.639,0.428,2.528
		c-0.045,0.465,0.002,0.94,0.034,1.409c0.107,1.587,0.217,3.172,0.344,4.757c0.067,0.837-0.176,1.438-1.39,1.177
		c-0.601-0.13-1.193-0.316-1.772-0.526c-0.3-0.11-0.572-0.311-0.835-0.502c-0.411-0.298-0.59-0.672-0.499-1.218
		c0.217-1.286,0.263-2.588,0.185-3.892c-0.035-0.579-0.11-1.143-0.493-1.693c-0.739,0.315-1.328,0.777-1.851,1.325
		c-0.709,0.743-1.246,1.604-1.609,2.561c-0.348,0.918-0.287,1.855,0.059,2.759c0.181,0.47,0.412,0.932,0.687,1.353
		c0.633,0.97,1.3,1.919,1.965,2.868c0.587,0.839,1.063,1.725,1.289,2.732c0.138,0.611,0.124,1.208-0.027,1.823
		c-0.508,2.062-1.544,3.811-3.066,5.286c-0.469,0.453-0.942,0.903-1.398,1.372c-0.682,0.703-1.499,0.849-2.401,0.573
		c-0.776-0.238-1.481-0.593-1.889-1.36c-0.098-0.186-0.267-0.339-0.418-0.492c-0.626-0.635-1.026-1.412-1.261-2.249
		c-0.422-1.507-0.639-3.046-0.425-4.615c0.039-0.286,0.118-0.567,0.186-0.848c0.13-0.532,0.406-0.92,0.999-1.008
		c0.139-0.02,0.301-0.06,0.402-0.148c0.788-0.686,1.722-0.458,2.611-0.398c0.586,0.039,1.098,0.687,1.126,1.291
		c0.01,0.215-0.012,0.434-0.047,0.647c-0.263,1.583-0.146,3.176-0.128,4.766c0.001,0.063,0.057,0.124,0.088,0.188
		c0.201,0.104,0.35-0.011,0.479-0.134c1.366-1.292,2.134-2.907,2.513-4.716c0.162-0.77,0.029-1.502-0.445-2.168
		c-0.484-0.678-0.919-1.389-1.382-2.082c-1.016-1.516-1.876-3.099-2.158-4.934c-0.009-0.061-0.078-0.113-0.122-0.174
		c-0.232-0.091-0.327,0.102-0.42,0.238c-1.141,1.674-2.27,3.358-3.414,5.03c-1.185,1.732-2.343,3.484-3.588,5.172
		c-0.781,1.057-1.353,2.226-2.052,3.325c-0.426,0.671-0.859,1.338-1.292,2.005c-0.54,0.83-1.271,1.372-2.275,1.519
		c-0.321,0.048-0.637,0.141-0.953,0.223c-1.079,0.278-1.965-0.075-2.477-1.045c-0.429-0.813-0.587-1.704-0.632-2.615
		c-0.012-0.25-0.002-0.501-0.002-0.742c-0.224-0.146-0.348-0.01-0.456,0.137c-0.449,0.612-0.969,1.167-1.442,1.759
		c-0.973,1.218-2.117,2.27-3.637,2.845c-0.881,0.334-1.741,0.414-2.657,0.226c-0.793-0.162-1.252-0.637-1.56-1.355
		c-0.518-1.211-0.442-2.388,0.065-3.577c0.78-1.831,1.544-3.669,2.312-5.505c0.151-0.36,0.288-0.725,0.428-1.077
		c-0.274-0.19-0.398-0.009-0.506,0.098c-0.334,0.331-0.636,0.694-0.969,1.025c-1.002,0.998-2.04,1.96-3.012,2.986
		c-0.82,0.867-1.577,1.795-2.342,2.713c-0.51,0.612-0.974,1.261-1.483,1.876c-0.345,0.417-0.738,0.795-1.096,1.203
		c-0.331,0.379-0.639,0.78-0.964,1.165c-0.469,0.558-1.107,0.698-1.751,0.394c-0.521-0.247-0.993-1.175-0.867-1.739
		c0.047-0.21,0.131-0.414,0.216-0.613c1.267-3,2.58-5.982,3.794-9.003c1.079-2.685,2.552-7.517,3.488-10.253
		c0.466-1.361,0.679-2.808,1.001-4.217c0.048-0.211,0.059-0.431,0.105-0.643c0.139-0.65,0.431-0.855,1.093-0.695
		c0.705,0.171,1.4,0.382,2.091,0.602c0.542,0.173,0.917,0.576,1.239,1.023c0.231,0.32,0.168,0.697,0.122,1.053
		c-0.141,1.115-0.827,4.33-1.182,5.398c-0.434,1.303-2.257,6.4-2.791,7.625c-0.503,1.152-1.054,2.282-1.585,3.421
		C21.521,19.966,21.572,20.015,21.624,20.065z"/>
	<path fill-rule="evenodd" clip-rule="evenodd" fill="#FFFFFF" d="M64.253,21.772c0.237,0.089,0.424,0.009,0.582-0.17
		c0.431-0.489,0.878-0.965,1.289-1.471c0.939-1.151,1.859-2.316,2.788-3.474c0.951-1.186,1.898-2.376,2.859-3.554
		c0.685-0.841,1.474-1.599,2.047-2.532c0.089-0.145,0.251-0.286,0.41-0.34c0.868-0.295,1.718-0.271,2.479,0.295
		c0.318,0.236,0.589,0.533,0.879,0.806c0.334,0.315,0.375,0.687,0.195,1.091c-0.073,0.165-0.167,0.321-0.256,0.479
		c-0.867,1.552-1.551,3.184-2.216,4.831c-0.611,1.517-1.114,3.054-1.448,4.653c-0.112,0.536-0.143,1.06-0.064,1.694
		c0.232-0.092,0.435-0.11,0.53-0.221c0.355-0.409,0.714-0.824,1-1.282c0.766-1.229,1.479-2.49,2.242-3.721
		c0.971-1.567,1.972-3.116,2.954-4.676c0.828-1.313,1.652-2.63,2.468-3.951c0.328-0.533,0.904-0.788,1.547-0.757
		c0.972,0.046,1.834,0.382,2.662,0.853c0.839,0.477,1.04,1.046,0.579,1.899c-0.605,1.121-1.064,2.293-1.452,3.503
		c-0.319,0.998-0.762,1.957-1.066,2.958c-0.482,1.591-0.893,3.203-1.334,4.806c-0.087,0.314-0.182,0.625-0.019,1.017
		c0.168-0.039,0.341-0.047,0.48-0.12c0.122-0.063,0.222-0.188,0.301-0.307c0.681-1.024,1.371-2.044,2.029-3.085
		c0.832-1.315,1.617-2.662,2.466-3.967c0.371-0.57,0.728-1.137,1.039-1.746c0.577-1.125,1.329-2.142,2.273-3.018
		c-0.122,0.522-0.345,0.995-0.634,1.441c-0.632,0.975-1.177,1.993-1.658,3.051c-0.223,0.491-0.498,0.965-0.796,1.418
		c-0.795,1.209-1.639,2.388-2.418,3.608c-0.407,0.638-0.764,1.318-1.064,2.013c-0.422,0.982-1.252,1.579-2.014,2.236
		c-0.156,0.135-0.479,0.113-0.724,0.105c-0.43-0.015-0.863-0.13-1.289-0.104c-0.687,0.041-1.22-0.24-1.626-0.725
		c-0.368-0.44-0.693-0.937-0.941-1.454c-0.303-0.628-0.344-1.294-0.192-2.007c0.397-1.849,1.103-3.594,1.704-5.374
		c0.182-0.539,0.392-1.069,0.456-1.651c-0.427,0.561-2.513,3.215-2.632,3.424c-1.002,1.756-1.972,3.53-2.981,5.282
		c-0.377,0.657-0.825,1.274-1.255,1.9c-0.173,0.252-0.438,0.352-0.748,0.381c-0.812,0.077-1.495-0.167-2.076-0.739
		c-1.518-1.494-2.032-3.295-1.663-5.361c0.107-0.604,0.276-1.197,0.415-1.795c0.055-0.239,0.108-0.477,0.174-0.766
		c-0.829,0.184-1.453,0.525-1.873,1.211c-0.147,0.241-0.389,0.424-0.581,0.639c-0.217,0.241-0.437,0.481-0.637,0.736
		c-0.645,0.827-1.281,1.663-1.922,2.493c-0.751,0.973-1.481,1.963-2.263,2.911c-0.574,0.697-1.201,1.353-1.837,1.994
		c-0.358,0.36-1.121,0.341-1.626-0.011c-0.232-0.162-0.418-0.395-0.607-0.612c-0.266-0.307-0.282-0.634-0.089-1.001
		c0.386-0.736,0.768-1.476,1.11-2.233c1.563-3.463,3.113-6.929,4.085-10.62c0.469-1.783,1.282-5.499,1.556-7.328
		c0.123-0.822,0.222-1.648,0.322-2.472c0.078-0.645,0.134-1.294,0.215-1.939c0.035-0.283,0.252-0.463,0.54-0.408
		c1.247,0.238,2.502,0.443,3.679,0.955c0.612,0.267,0.626,2.681,0.607,3.334c0,1.444-2.319,8.301-3.356,10.212
		c-0.19,0.349-2.139,4.094-2.541,4.901c-0.258,0.517-0.529,1.028-0.805,1.536c-0.067,0.122-0.177,0.221-0.268,0.331
		c0.017,0.083,0.035,0.165,0.051,0.247c0.004-0.001,0.008-0.002,0.012-0.003C64.292,21.94,64.273,21.856,64.253,21.772z"/>
	<path fill-rule="evenodd" clip-rule="evenodd" fill="#FFFFFF" d="M13.785,7.289c-0.227,0.096-0.412,0.13-0.535,0.235
		c-1.167,0.991-2.198,2.106-2.985,3.425c-0.301,0.504-0.455,1.061-0.384,1.663c0.068,0.574,0.09,1.157,0.195,1.724
		c0.057,0.308,0.208,0.619,0.384,0.881c0.567,0.841,1.17,1.658,1.751,2.49c0.27,0.386,0.54,0.773,0.773,1.182
		c0.417,0.732,0.453,1.513,0.205,2.309c-0.273,0.875-0.722,1.658-1.306,2.363c-0.555,0.669-1.139,1.314-1.684,1.991
		c-1.029,1.28-2.391,2.101-3.854,2.765c-0.681,0.308-1.399,0.165-1.923-0.362c-1.155-1.164-2.154-2.447-2.698-4.025
		c-0.094-0.272-0.17-0.555-0.299-0.811c-0.839-1.671-0.989-3.457-0.903-5.283c0.005-0.108,0.042-0.214,0.051-0.322
		c0.037-0.409,0.258-0.654,0.648-0.778c0.59-0.187,1.175-0.37,1.808-0.359c0.58,0.011,1.162-0.023,1.743-0.029
		c0.217-0.003,0.438-0.004,0.652,0.03c0.944,0.155,1.255,0.533,1.112,1.481c-0.268,1.774-0.084,3.539,0.049,5.307
		c0.015,0.204,0.098,0.404,0.174,0.703c0.221-0.124,0.385-0.179,0.501-0.287c0.992-0.924,1.718-2.051,2.398-3.205
		c0.503-0.853,0.532-1.691-0.146-2.514c-0.576-0.698-1.03-1.48-1.379-2.325c-0.234-0.567-0.569-1.09-0.837-1.644
		c-0.828-1.709-0.628-3.374,0.287-4.98c0.686-1.204,1.584-2.251,2.587-3.204c0.736-0.698,1.501-1.366,2.267-2.034
		c0.272-0.237,0.578-0.438,0.878-0.638c0.353-0.235,0.737-0.29,1.143-0.138c0.169,0.063,0.343,0.184,0.508,0.171
		c0.952-0.072,1.771,0.344,2.605,0.685c0.29,0.118,0.561,0.325,0.79,0.544c0.406,0.388,0.497,0.879,0.286,1.398
		c-0.649,1.593-0.896,3.275-1.079,4.963c-0.092,0.859-0.042,1.734-0.054,2.601c-0.007,0.434-0.001,0.869-0.02,1.302
		c-0.013,0.286-0.2,0.495-0.467,0.526c-0.315,0.037-0.669,0.061-0.956-0.045c-0.721-0.267-1.445-0.464-2.211-0.545
		c-0.521-0.055-0.948-0.331-1.291-0.739c-0.404-0.481-0.572-0.967-0.299-1.594c0.434-0.994,0.822-2.009,1.204-3.025
		c0.153-0.403,0.255-0.828,0.348-1.251C13.857,7.731,13.804,7.548,13.785,7.289z"/>
	<path fill-rule="evenodd" clip-rule="evenodd" fill="#FFFFFF" d="M87.906,8.202c-2.046,0.121-3.398-2.274-2.515-4.034
		c0.124-0.247,0.305-0.391,0.6-0.365c1.268,0.11,2.476,0.495,3.696,0.816c0.47,0.124,0.77,0.595,0.672,1.102
		c-0.134,0.698-0.239,1.443-1.022,1.795c-0.126,0.057-0.232,0.172-0.327,0.279C88.695,8.155,88.3,8.272,87.906,8.202z"/>
	<path fill-rule="evenodd" clip-rule="evenodd" fill="#FFFFFF" d="M42.13,4.178c0.145,0.012,0.3-0.012,0.421,0.042
		c0.82,0.367,1.663,0.697,2.439,1.141c0.896,0.514,1.026,1.225,0.498,2.096c-0.093,0.153-0.203,0.296-0.307,0.443
		c-0.201,0.285-0.466,0.44-0.827,0.401c-0.287-0.032-0.582-0.026-0.859-0.093c-1.43-0.345-1.945-1.198-1.852-2.827
		C41.667,4.958,41.833,4.548,42.13,4.178z"/>
</g>
</svg>
