<?xml version="1.0" encoding="utf-8"?>
<!-- Generator: Adobe Illustrator 16.0.3, SVG Export Plug-In . SVG Version: 6.00 Build 0)  -->
<!DOCTYPE svg PUBLIC "-//W3C//DTD SVG 1.1//EN" "http://www.w3.org/Graphics/SVG/1.1/DTD/svg11.dtd">
<svg version="1.1" id="Layer_1" xmlns="http://www.w3.org/2000/svg" xmlns:xlink="http://www.w3.org/1999/xlink" x="0px" y="0px"
	 width="45px" height="45px" viewBox="0 0 45 45" style="enable-background:new 0 0 45 45;" xml:space="preserve">
<style type="text/css">
<![CDATA[
	.st0{fill:none;stroke:#EC0044;stroke-miterlimit:10;}
	
		.st1{clip-path:url(#SVGID_6_);fill:none;stroke:#FFFFFF;stroke-width:0.8633;stroke-linecap:round;stroke-linejoin:round;stroke-miterlimit:10;}
	.st2{clip-path:url(#SVGID_10_);fill:#EC0044;}
	.st3{fill:#EC0044;}
	
		.st4{clip-path:url(#SVGID_4_);fill:none;stroke:#FFFFFF;stroke-width:0.8632;stroke-linecap:round;stroke-linejoin:round;stroke-miterlimit:10;}
	.st5{clip-path:url(#SVGID_2_);fill:#EC0044;}
	
		.st6{clip-path:url(#SVGID_2_);fill:none;stroke:#FFFFFF;stroke-width:0.8633;stroke-linecap:round;stroke-linejoin:round;stroke-miterlimit:10;}
	.st7{fill:none;stroke:#3FBFBB;stroke-miterlimit:10;}
	.st8{opacity:0.3;clip-path:url(#SVGID_12_);}
	
		.st9{clip-path:url(#SVGID_6_);fill:none;stroke:#FFFFFF;stroke-width:0.7891;stroke-linecap:round;stroke-linejoin:round;stroke-miterlimit:10;}
	.st10{clip-path:url(#SVGID_4_);fill:#EC0044;}
	.st11{opacity:0.5;}
	.st12{fill:#FFFFFF;}
	.st13{clip-path:url(#SVGID_6_);fill:#EC0044;}
	
		.st14{clip-path:url(#SVGID_10_);fill:none;stroke:#FFFFFF;stroke-width:0.8633;stroke-linecap:round;stroke-linejoin:round;stroke-miterlimit:10;}
	.st15{clip-path:url(#SVGID_8_);fill:#EC0044;}
	
		.st16{clip-path:url(#SVGID_8_);fill:none;stroke:#FFFFFF;stroke-width:0.8633;stroke-linecap:round;stroke-linejoin:round;stroke-miterlimit:10;}
]]>
</style>
<g>
	<defs>
		<rect id="SVGID_5_" x="1.5" y="1.5" width="42" height="42"/>
	</defs>
	<clipPath id="SVGID_2_">
		<use xlink:href="#SVGID_5_"  style="overflow:visible;"/>
	</clipPath>
	<path class="st5" d="M43.5,22.5c0,11.598-9.402,21-21,21s-21-9.402-21-21s9.402-21,21-21S43.5,10.902,43.5,22.5"/>
	
		<path style="clip-path:url(#SVGID_2_);fill:none;stroke:#FFFFFF;stroke-width:0.7891;stroke-linecap:round;stroke-linejoin:round;stroke-miterlimit:10;" d="
		M25.723,16.899c0,0.452-0.367,0.818-0.818,0.818s-0.816-0.366-0.816-0.818c0-0.451,0.365-0.815,0.816-0.815
		S25.723,16.448,25.723,16.899z M29.982,16.518c0,0,8.549-6.015-11.081-4.274 M22.172,22.4c0,0-5.091-0.633-6.279-6.173
		 M19.139,10.503c19.629-1.742,11.081,4.273,11.081,4.273c-0.476,7.836-7.321,7.564-7.321,7.564c-2.424,0-4.389,1.964-4.389,4.387
		c0,2.424,1.965,4.389,4.389,4.389c2.423,0,4.387-1.965,4.387-4.389c0-1.361-0.62-2.579-1.594-3.384c0,0,1.494,0.113,2.443,2.54
		c0,0,0.951-3.642,5.488-3.324c0,0-3.905,1.002-4.222,4.537c0,0-0.948,10.133-12.505,6.175 M18.51,26.728
		c0,0-5.162-0.765-6.469-6.067 M24.547,33.64c1.227-1.226,0.316-2.743,0.316-2.743 M30.22,14.776h-9.657c0,0-5.539,0-8.548,5.54
		c0,0-2.928,8.074,3.761,12.427c2.922,1.902,4.709-2.375,4.709-2.375"/>
	<circle class="st6" cx="22.5" cy="22.5" r="18.361"/>
</g>
</svg>
