<?xml version="1.0" encoding="utf-8"?>
<!-- Generator: Adobe Illustrator 17.0.0, SVG Export Plug-In . SVG Version: 6.00 Build 0)  -->
<!DOCTYPE svg PUBLIC "-//W3C//DTD SVG 1.1//EN" "http://www.w3.org/Graphics/SVG/1.1/DTD/svg11.dtd">
<svg version="1.1" id="Layer_1" xmlns="http://www.w3.org/2000/svg" xmlns:xlink="http://www.w3.org/1999/xlink" x="0px" y="0px"
	 width="45px" height="45px" viewBox="0 0 45 45" enable-background="new 0 0 45 45" xml:space="preserve">
<g>
	<path fill="#EC0044" d="M43.486,22.5c0,11.591-9.396,20.986-20.986,20.986S1.514,34.091,1.514,22.5S10.909,1.513,22.5,1.513
		S43.486,10.909,43.486,22.5"/>
	
		<circle fill="none" stroke="#FFFFFF" stroke-width="0.8999" stroke-linecap="round" stroke-linejoin="round" stroke-miterlimit="10" cx="22.5" cy="22.5" r="18.331"/>
	
		<path fill="none" stroke="#FFFFFF" stroke-width="0.8999" stroke-linecap="round" stroke-linejoin="round" stroke-miterlimit="10" d="
		M11.546,20.124c0,0-0.837,12.795,10.96,13.636 M22.493,33.759c11.8-0.841,10.962-13.636,10.962-13.636 M33.399,22.19
		c0,1.525-4.885,2.761-10.911,2.761c-6.025,0-10.909-1.236-10.909-2.761 M33.455,20.124c0,1.525-4.908,2.761-10.962,2.761
		c-6.053,0-10.96-1.236-10.96-2.761c0-1.525,4.908-2.761,10.96-2.761C28.548,17.363,33.455,18.599,33.455,20.124z"/>
	
		<path fill="none" stroke="#FFFFFF" stroke-width="0.8999" stroke-linecap="round" stroke-linejoin="round" stroke-miterlimit="10" d="
		M22.932,8.517c0,0,5.266,2.833,1.3,6.041c-0.902,0.729-3.68,2.364,0,5.253"/>
	
		<path fill="none" stroke="#FFFFFF" stroke-width="0.8999" stroke-linecap="round" stroke-linejoin="round" stroke-miterlimit="10" d="
		M19.845,8.517c0,0,5.266,2.833,1.3,6.041c-0.902,0.729-3.68,2.364,0,5.253"/>
</g>
</svg>
