<?xml version="1.0" encoding="utf-8"?>
<!-- Generator: Adobe Illustrator 17.0.0, SVG Export Plug-In . SVG Version: 6.00 Build 0)  -->
<!DOCTYPE svg PUBLIC "-//W3C//DTD SVG 1.1//EN" "http://www.w3.org/Graphics/SVG/1.1/DTD/svg11.dtd">
<svg version="1.1" id="Layer_1" xmlns="http://www.w3.org/2000/svg" xmlns:xlink="http://www.w3.org/1999/xlink" x="0px" y="0px"
	 width="77px" height="104.5px" viewBox="0 0 77 104.5" enable-background="new 0 0 77 104.5" xml:space="preserve">
<g>
	<g>
		<path fill="#EC0044" d="M11.943,61.481H7.814l0.655-3.339h12.282l-0.655,3.339h-4.127l-2.567,12.856H9.376L11.943,61.481z"/>
		<path fill="#EC0044" d="M24.781,61.581c1.056,0,2.163,0.598,2.618,1.545h0.049l0.555-1.246h3.221l-2.517,12.458h-3.272v-1.545
			h-0.05c-1.107,1.146-2.567,1.844-3.775,1.844c-2.215,0-3.523-1.644-3.523-4.584C18.086,65.318,21.308,61.581,24.781,61.581z
			 M25.636,69.753l0.805-3.986c-0.302-0.648-0.906-0.947-1.36-0.947c-1.459,0-2.818,1.944-2.818,4.734
			c0,1.296,0.453,1.844,1.158,1.844C24.076,71.397,24.982,71.098,25.636,69.753z"/>
		<path fill="#EC0044" d="M32.939,61.88h4.026l0.252,5.68c0.051,1.246,0.051,2.516,0.051,3.837h0.1
			c0.554-1.296,1.057-2.542,1.611-3.837l2.466-5.68h3.926l-6.292,12.458h-4.631L32.939,61.88z"/>
		<path fill="#EC0044" d="M47.185,61.88h4.028l-2.517,12.458h-4.027L47.185,61.88z M47.74,58.441c0-1.195,1.056-2.242,2.415-2.242
			c1.058,0,2.114,0.647,2.114,1.844c0,1.296-1.056,2.242-2.415,2.242C48.796,60.285,47.74,59.687,47.74,58.441z"/>
		<path fill="#EC0044" d="M60.175,56.997h4.026l-2.718,13.354c-0.05,0.249-0.05,0.348-0.05,0.473c0,0.474,0.252,0.623,0.503,0.623
			c0.15,0,0.252,0,0.453-0.05l-0.151,2.94c-0.452,0.15-1.157,0.299-2.063,0.299c-2.065,0-2.869-1.046-2.869-2.74
			c0-0.498,0.05-0.997,0.201-1.695L60.175,56.997z"/>
		<path fill="#EC0044" d="M66.367,61.88h4.027l-2.516,12.458h-4.027L66.367,61.88z M66.921,58.441c0-1.195,1.057-2.242,2.416-2.242
			c1.057,0,2.114,0.647,2.114,1.844c0,1.296-1.057,2.242-2.416,2.242C67.978,60.285,66.921,59.687,66.921,58.441z"/>
		<path fill="#EC0044" d="M4.316,97.415c0.906,1.046,1.761,1.445,2.516,1.445s1.409-0.349,1.409-0.847
			c0-0.647-0.804-0.897-2.114-1.644c-1.233-0.698-2.415-1.844-2.415-3.488c0-2.392,2.265-4.186,5.084-4.186
			c1.811,0,3.221,0.897,4.278,1.993l-2.164,2.043c-0.604-0.598-1.309-1.096-2.113-1.096c-0.806,0-1.31,0.399-1.31,0.897
			c0,0.698,1.058,0.997,2.014,1.545c1.208,0.648,2.517,1.644,2.517,3.488c0,2.492-2.266,4.186-5.437,4.186
			c-1.46,0-3.473-0.797-4.58-2.441L4.316,97.415z"/>
		<path fill="#EC0044" d="M16.851,84.111h4.027l-0.856,4.036l-0.604,2.192h0.101c1.006-0.897,2.316-1.644,3.825-1.644
			c2.064,0,2.97,1.096,2.97,3.239c0,0.548-0.05,1.196-0.202,1.794l-1.56,7.724h-4.028l1.46-7.225
			c0.101-0.449,0.202-0.797,0.202-1.096c0-0.698-0.403-1.046-1.057-1.046c-0.705,0-1.309,0.448-2.215,1.395l-1.56,7.973h-4.027
			L16.851,84.111z"/>
		<path fill="#EC0044" d="M29.841,88.994h4.026l-2.516,12.458h-4.027L29.841,88.994z M30.394,85.555
			c0-1.195,1.058-2.242,2.417-2.242c1.056,0,2.114,0.647,2.114,1.844c0,1.296-1.058,2.242-2.417,2.242
			C31.452,87.399,30.394,86.801,30.394,85.555z"/>
		<path fill="#EC0044" d="M35.48,93.728h6.04l-0.604,2.79h-6.04L35.48,93.728z"/>
		<path fill="#EC0044" d="M44.391,97.415c0.906,1.046,1.761,1.445,2.516,1.445s1.409-0.349,1.409-0.847
			c0-0.647-0.804-0.897-2.114-1.644c-1.233-0.698-2.415-1.844-2.415-3.488c0-2.392,2.265-4.186,5.084-4.186
			c1.811,0,3.221,0.897,4.278,1.993l-2.164,2.043c-0.604-0.598-1.309-1.096-2.113-1.096c-0.806,0-1.31,0.399-1.31,0.897
			c0,0.698,1.058,0.997,2.014,1.545c1.208,0.648,2.517,1.644,2.517,3.488c0,2.492-2.266,4.186-5.437,4.186
			c-1.46,0-3.473-0.797-4.58-2.441L44.391,97.415z"/>
		<path fill="#EC0044" d="M56.926,84.111h4.027l-0.856,4.036l-0.604,2.192h0.101c1.006-0.897,2.316-1.644,3.825-1.644
			c2.064,0,2.97,1.096,2.97,3.239c0,0.548-0.05,1.196-0.202,1.794l-1.56,7.724H60.6l1.46-7.225c0.101-0.449,0.202-0.797,0.202-1.096
			c0-0.698-0.403-1.046-1.057-1.046c-0.705,0-1.309,0.448-2.215,1.395l-1.56,7.973h-4.027L56.926,84.111z"/>
		<path fill="#EC0044" d="M69.916,88.994h4.027l-2.516,12.458H67.4L69.916,88.994z M70.47,85.555c0-1.195,1.057-2.242,2.416-2.242
			c1.057,0,2.114,0.647,2.114,1.844c0,1.296-1.057,2.242-2.416,2.242C71.527,87.399,70.47,86.801,70.47,85.555z"/>
	</g>
	<g>
		<polyline fill="#EC0044" points="38.502,2.75 52.104,17.638 45.689,17.638 52.214,40.737 24.789,40.737 31.312,17.638 
			24.899,17.638 38.502,2.75 		"/>
	</g>
</g>
</svg>
