<?xml version="1.0" encoding="utf-8"?>
<!-- Generator: Adobe Illustrator 17.0.0, SVG Export Plug-In . SVG Version: 6.00 Build 0)  -->
<!DOCTYPE svg PUBLIC "-//W3C//DTD SVG 1.1//EN" "http://www.w3.org/Graphics/SVG/1.1/DTD/svg11.dtd">
<svg version="1.1" id="Layer_1" xmlns="http://www.w3.org/2000/svg" xmlns:xlink="http://www.w3.org/1999/xlink" x="0px" y="0px"
	 width="105px" height="105px" viewBox="0 0 105 105" enable-background="new 0 0 105 105" xml:space="preserve">
<g opacity="0.5">
	<g>
		<g>
			<defs>
				<rect id="SVGID_1_" x="-1711" y="-2064.023" width="1280" height="4410.047"/>
			</defs>
			<clipPath id="SVGID_2_">
				<use xlink:href="#SVGID_1_"  overflow="visible"/>
			</clipPath>
			<g opacity="0.3" clip-path="url(#SVGID_2_)">
				<path fill="none" stroke="#EC0044" stroke-miterlimit="10" d="M-353.389-772.986c1.941-0.541,3.859-1.078,5.799-1.641
					c0.025,0.104,0.05,0.186,0.076,0.287c-1.883,0.475-3.781,0.971-5.706,1.445C-353.24-772.891-353.389-772.986-353.389-772.986
					 M-72.972-192.564l-0.479-1.488l-1.122,1.289L-72.972-192.564z M-74.201-170.082c0.588,0.223,1.398,0.311,1.664,0.732
					c0.268,0.4-0.053,1.162-0.129,1.783c-0.882-0.354-1.787-0.707-2.672-1.061C-74.966-169.119-74.573-169.59-74.201-170.082
					 M-91.127-1234.748c-2.493,2.549-3.047,23.016-4.61,24.613c-1.235-1.805-3.972-22.336-4.514-24.34
					c-0.272-0.979-0.285-37.277,0.425-37.164C-97.889-1271.266-93.965-1236.318-91.127-1234.748 M-101.677-1334.83
					c1.376,3.621,2.132,31.307,3.141,35.025c0.248,0.918,0.782,6.539-0.283,6.771c-1.228,0.26-2.45,1.141-2.825,0.145
					c-1.291-3.52-0.925-37.725-1.808-41.385L-101.677-1334.83z M-96.959-1182.754c11.172,17.289,11.436,20.938,5.043,38.828
					c-1.152-0.797-3.252-1.576-3.314-2.461C-95.912-1156.879-96.29-1167.404-96.959-1182.754 M-90.605-1108.68
					c1.461,3.615,3.868,7.146,4.176,10.877c0.402,4.943-0.553,10.068-1.326,15.063c-2.544,16.092-1.623,31.945,2.371,47.711
					c1.227,4.887,3.73,10.645,2.281,14.844c-7.5,21.848,9.221,176.6,6.927,198.383c-2.275,21.742-1.646,43.791-1.989,65.717
					c-0.102,7.59-0.42,15.459,1.303,22.723c7.117,29.973,2.853,60.627,6.137,90.846c1.824,16.707,1.883,33.674,1.729,50.529
					c-0.551,57.443,1.519,114.758,7.918,171.881c5.726,51.137,11.433,102.256,17.136,153.391c0.374,3.355,1.308,6.744,1.103,10.059
					c-1.056,16.09,0.297,31.926,2.689,47.883c1.917,12.67-1.814,20.439-6.837,18.592c-8.131-2.994-6.912-10.592-8.082-17.051
					c-5.373-29.822-5.613-60.383-12.837-89.977c-1.787-7.303-1.569-15.105-2.229-22.664c-0.685-7.578,0.063-15.566-2.188-22.621
					c-6.32-19.773-5.341-39.971-5.957-60.221c-0.879-28.652-2.791-57.281-4.596-85.893c-1.126-17.688-2.848-35.326-4.32-52.977
					c-0.136-1.689-0.497-3.348-0.51-5.043c-0.542-45.576-0.941-91.158-1.65-136.746c-0.162-11.773-1.297-23.527-1.85-35.307
					c-0.264-5.053-0.381-10.133-0.251-15.182c0.726-26.945,2.976-53.955,1.826-80.818c-0.775-18.633-6.534-170.494-5.754-189.051
					c0.548-13.459,0.016-27.08-1.499-40.492C-99.279-1065.43-96.9-1086.248-90.605-1108.68 M-127.176,804.348
					c9.546-17.615,24.421-25.828,39.111-33.539c8.811-4.623,18.906-7.254,28.717-9.379c9.461-2.047,14.443-6.273,16.303-16.256
					c3.939-21.008,4.554-41.934,1.773-63.037c-0.652-5.018-1.967-10.004-2.063-15.045c-1.166-64.15-9.334-128.102-5.879-192.414
					c1.631-30.373,2.265-60.785,3.254-91.193c0.271-8.445,0.771-16.943,0.195-25.352c-4.646-69.912-6.503-139.967-9.5-209.971
					c-1.193-27.813-4.285-55.563-5.809-83.359C-61.708,53.109-71.14-90.49-71.157-102.25c-0.005-4.857-1.23-9.744-2.289-14.557
					c-2.142-9.785-2.979-19.486-1.384-28.857c7.34-1.396,10.038,2.643,10.845,6.473c2.787,13.17,16.415,158.24,17.81,171.635
					c2.195,20.947,3.218,42.027,4.964,63.057c0.388,4.613,0.326,9.846,6.29,13.389c5.295-8.914-0.012-17.322,1.271-25.338
					C-32.426,76.1-32,68.35-32.453,60.824c-1.743-29.482-4.165-58.938-5.948-88.396c-0.812-13.463-1.384-26.998-0.854-40.436
					c0.738-19.566-0.699-38.727-4.803-57.896c-2.262-10.627-2.416-21.742-2.935-32.674c-0.069-1.59,2.865-4.445,4.715-4.713
					c1.95-0.293,5.161,1.283,6.188,3.016c1.629,2.762,3.157,6.559,2.563,9.502c-3.28,16.246,1.313,31.939,2.628,47.84
					c3.022,37.035,6.621,74.002,9.58,111.039c1.954,24.387,2.776,48.869,4.854,73.25c6.018,70.639,12.327,141.264,18.739,211.883
					c2.143,23.533,5.235,46.982,7.316,70.539c1.634,18.51,2.713,37.066-4.814,54.967c-1.536,3.621-1.938,8.645-0.763,12.373
					c6.766,21.449,4.095,43.602,5.671,65.443c1.86,26.088,3.723,52.197,5.855,78.273c2.867,35.346,6.535,70.656,8.744,106.051
					c1.061,16.779,0.047,33.773-0.913,50.621c-1.462,25.221-15.849,42.279-37.222,53.611c-8.829,4.664-18.822,7.332-28.47,10.297
					c-14.503,4.436-29.147,8.424-43.753,12.473C-99.244,811.563-112.355,813.809-127.176,804.348 M-741.617-240.678
					c0.143-3.377-0.592-6.961,0.543-9.822c7.731-19.438,14.571-39.373,24.161-57.877c11.097-21.363,27.551-25.1,48.409-13.713
					c3.663,2.012,7.12,4.424,10.65,6.689c6.866,4.391,10.746,10.383,10.203,18.818c-0.451,6.697-0.006,13.563-1.293,20.066
					c-6.597,33.588-25.981,46.443-64.119,45.938C-722.95-230.703-732.691-234.143-741.617-240.678 M-694.172-1309.104
					c4.902,47.451-49.635,81.334-91.61,62.58c-5.901-2.637-9.428-6.699-9.129-13.576c1.293-29.594,9.04-58.064,15.291-86.76
					c2.413-11.063,13.104-18.514,25.046-16.74c16.436,2.402,33.935,4.078,42.939,21.938c1.447,2.873,4.261,5.229,6.853,7.307
					C-696.066-1327.398-692.921-1318.336-694.172-1309.104 M-640.22,415.195c2.479,5.184,3.45,9.441,6.032,12.201
					c24.312,26.121,51.395,48.959,82.975,65.914c12.066,6.48,25.22,9.502,39.22,7.238c13.339-2.176,26.912-3.264,40.054-6.297
					c7.142-1.633,14.229-5.459,20.18-9.83c19.064-14.041,37.516-28.904,56.34-43.244c8.743-6.666,17.503-13.352,26.799-19.174
					c16.661-10.443,34.86-12.084,53.682-7.119c20.702,5.463,39.436,15.104,56.474,27.961c16.181,12.215,31.835,25.15,48.19,37.131
					c30.92,22.627,51.469,53.459,68.447,86.783c7.893,15.508,5.28,32.365-6.506,45.076c-25.999,28.049-54.944,52.568-91.218,66.842
					c-6.257,2.465-12.781,4.527-18.636,7.779c-38.16,21.221-79.684,26.506-122.396,26.389c-2.522-0.016-5.034-0.752-7.56-0.85
					c-9.592-0.449-15.53-5.338-18.815-14.268c-4.971-13.529-9.836-26.939-10.209-41.66c-0.342-13.504-1.717-26.984-2.45-40.492
					c-0.281-5.051-0.55-10.186,0.038-15.193c2.654-22.109,11.169-29.715,33.451-27.361c41.678,4.424,82.692-1.646,123.817-6.543
					c4.752-0.559,9.332-2.68,16.228-4.76c-3.112-5.01-4.58-8.771-7.215-11.363c-22.565-22.123-49.628-37.854-77.242-52.502
					c-20.421-10.826-40.009-10.633-58.526,5.969c-15.716,14.1-33.492,25.459-52.862,34.43
					c-12.986,6.023-24.862,14.334-37.525,21.133c-39.06,20.988-78.11,18.043-116.526-1.611
					c-28.796-14.723-54.157-34.533-77.416-56.896c-17.045-16.393-33.42-33.514-49.773-50.641
					c-5.805-6.072-10.819-12.982-15.788-19.773c-5.847-7.973-7.517-16.848-4.379-26.432c1.293-3.984,3.944-8.172,3.487-11.977
					c-2.638-22.064,6.228-41.531,13.345-61.271c2.471-6.867,7.024-13.371,11.886-18.916c8.645-9.846,20.025-12.451,32.35-8.068
					c37.836,13.457,77.349,17.498,116.939,20.029c20.148,1.271,40.521-0.799,60.774-1.393c10.136-0.277,20.28-0.865,30.409-0.854
					c6.698,0.02,11.756,4.139,12.75,10.318c1.186,7.285,2.101,15.492-0.082,22.266c-5.498,17.023-9.365,34.061-10.485,51.967
					c-0.751,12.17-6.754,22.371-15.937,30.773c-10.813,9.877-21.99,14.293-36.896,8.576c-23.65-9.074-47.728-17.057-71.822-24.914
					c-9.561-3.137-19.591-5.076-29.545-6.811C-629.999,413.076-634.214,414.498-640.22,415.195 M-353.389-772.986
					c1.843-5.602-0.225-9.871-4.554-13.363c-11.846-9.527-23.419-19.418-35.639-28.479c-27.812-20.654-55.938-40.863-83.91-61.283
					c-28.651-20.906-57.382-41.707-85.86-62.852c-20.336-15.07-38.819-32.639-61.188-45.016c-3.473-1.916-6.938-5.547-8.358-9.188
					c-7.771-19.873-8.078-39.662,4.373-57.941c5.188-7.627,11.845-14.242,17.924-21.266c7.008-8.08,15.651-9.428,25.261-5.65
					c3.935,1.52,7.66,3.551,11.444,5.453c37.107,18.574,75.888,32.818,115.018,46.592c36.025,12.668,72.413,22.799,110.075,28.926
					c12.637,2.055,24.883,2.244,39.612-0.24c-2.381-5.311-3.019-9.998-5.693-12.09c-9.912-7.836-19.955-15.77-30.933-21.947
					c-29.456-16.551-59.62-31.854-89.134-48.342c-37.564-20.973-74.726-42.668-112.137-63.916
					c-31.498-17.912-63.077-35.736-94.729-53.352c-12.772-7.088-19.299-20.219-19.25-35.186
					c0.086-22.639,7.053-43.033,17.209-62.764c10.288-20.004,23.369-25.246,43.725-15.406c26.775,12.93,54.599,22.4,83.234,30.184
					c23.618,6.387,46.453,15.727,70.137,21.762c37.627,9.582,75.677,17.492,113.547,26.111c7.412,1.701,14.77,3.592,23.767-0.605
					c-1.08-3.857-1.44-7.873-3.295-11.037c-1.587-2.764-4.62-4.967-7.464-6.682c-24.604-14.801-49.112-29.793-74.063-44.039
					c-31.545-18.014-63.783-34.877-95.098-53.293c-13.683-8.043-27.269-15.76-41.8-22.381
					c-26.851-12.264-51.359-28.721-72.767-49.781c12.317,2.295,23.584,7.012,34.274,13.285
					c23.397,13.691,47.72,25.346,72.903,35.428c11.695,4.678,23.034,10.59,33.898,17.063c29.031,17.252,57.412,35.672,86.672,52.543
					c15.311,8.818,31.537,16.42,48.078,22.684c23.35,8.82,38.118,27.502,54.242,44.555c3.313,3.494,3.126,11.027,3.189,16.729
					c0.088,10.02-2.154,20.207-1.123,30.082c1.645,15.93-4.353,28.613-15.269,38.537c-9.901,9.01-21.165,17.066-32.983,23.369
					c-14.34,7.676-29.854,9.326-46.658,6.504c-43.564-7.338-85.007-21.982-127.168-34.137c-12.77-3.678-25.343-8.027-39.001-8.92
					c13.534,9.352,77.585,55.15,82.597,57.701c42.01,21.504,84.402,42.246,126.317,63.918c15.713,8.098,30.567,17.889,45.63,27.236
					c6.058,3.766,8.659,9.834,9.652,17.004c2.619,18.799-2.381,34.932-15.14,49.031c-33.327,36.82-74.85,50.604-123.46,44.129
					c-14.201-1.887-28.217-5.201-42.326-7.83c-5.625-1.035-11.248-2.031-18.063-3.262c5.133,19.082,13.733,33.258,30.168,42.318
					c5.781,3.18,10.297,8.605,15.505,12.863c5.854,4.787,11.668,9.68,17.833,14.063c19.967,14.156,40.109,28.098,60.151,42.146
					c23.478,16.461,47.326,32.432,70.258,49.643c16.841,12.639,32.804,26.535,48.408,40.674c8.76,7.947,9.103,25.709,1.382,37.809
					c-3.54,5.57-8.798,10.121-13.661,14.734c-6.887,6.502-14.507,7.207-23.283,3.084c-17.578-8.225-35.236-16.363-53.242-23.535
					c-82.422-32.82-164.89-65.313-252.052-84.162c-42.092-9.098-129.662-24.207-172.625-28.719
					c-19.311-2.031-38.682-3.479-58.032-4.971c-15.14-1.156-30.342-1.797-45.482-3.016c-6.639-0.537-11.067-5.389-10.081-12.15
					c4.284-29.227,7.796-58.629,18.548-86.506c5.609-14.51,61.949-17.279,77.214-17.512c33.701-1.473,196.124,45.449,241.78,67.619
					c8.343,4.061,97.736,45.549,116.98,54.094c12.332,5.477,24.532,11.248,36.674,17.148c2.916,1.424,5.338,3.898,8.009,5.889
					c1.925-0.475,3.823-0.971,5.706-1.445c-0.026-0.102-0.051-0.184-0.076-0.287C-349.529-774.064-351.447-773.527-353.389-772.986
					 M-349.973,219.92c-3.806-4.301-7.181-9.135-11.517-12.832c-46.329-39.439-92.578-78.947-139.339-117.877
					c-18.146-15.102-37.648-28.555-56.166-43.188c-7.794-6.15-16.918-11.58-17.865-23.322c-1.07-13.16,2.111-25.453,9.127-36.199
					c6.433-9.85,14.114-18.994,22.109-27.65c10.934-11.848,23.684-13.83,39.268-6.738c18.455,8.414,36.927,16.762,54.981,25.979
					c34.713,17.689,72.206,28.516,107.611,44.52c32.389,14.627,65.948,26.225,100.202,35.705c4.623,1.289,9.498,1.715,15.644,2.77
					c-1.147-4.457-1.046-7.336-2.433-8.824c-5.787-6.135-11.58-12.414-18.156-17.666c-34.934-27.971-69.46-56.539-105.452-83.121
					c-25.076-18.541-52.127-34.457-78.588-51.076c-22.146-13.916-44.429-27.619-67.188-40.477
					c-16.106-9.113-33.195-16.533-49.668-25.012c-13.513-6.975-26.97-14.119-40.043-21.857c-4.094-2.406-8.552-6.49-9.936-10.75
					c-6.253-19.156-7.327-38.086,6.118-55.375c5.655-7.295,10.477-15.236,15.982-22.672c10.755-14.504,24.507-18.184,39.825-9.115
					c23.447,13.857,48.611,23.529,73.678,33.74c30.493,12.455,60.355,26.447,90.551,39.621
					c22.441,9.789,44.902,19.598,67.532,28.945c21.198,8.729,43.524,13.52,66.154,16.77c2.997,0.43,6.291-1.289,10.711-2.287
					c-1.289-3.996-1.469-7.666-3.367-9.92c-13.123-15.551-27.748-29.504-44.917-40.703c-14.149-9.221-28.24-18.568-41.845-28.557
					c-23.127-16.996-47.885-31.541-71.308-48.191c-14.824-10.514-31.729-18.914-47.59-28.494
					c-40.506-24.443-81.438-48.203-122.885-71.014c-42.148-23.189-84.455-46.314-127.936-66.844
					c-35.372-16.707-65.053-38.873-87.428-70.846c-8.246-11.754-16.349-23.594-24.772-35.215
					c-10.845-14.988-12.404-30.855-5.438-47.863c3.87-9.41,5.91-18.984,6.343-29.443c0.711-16.898,7.864-29.117,25.359-37.012
					c19.116-8.627,37.729-13.615,58.57-12.521c10.899,0.58,21.95-1,32.853-2.219c36.925-4.111,73.824-8.287,110.687-12.854
					c19.472-2.42,33.747,2.619,28.896,31.131c-2.425,14.098-6.156,28.068-10.478,41.736c-2.253,7.086-6.683,13.623-10.872,19.924
					c-6.536,9.857-15.079,14.404-27.922,12.838c-30.241-3.723-60.675-3.469-91.028-0.326c-13.479,1.395-26.564,3.723-39.008,13.197
					c8.095,16.865,19.483,30.094,32.804,41.686c18.072,15.727,38.711,27.332,61.403,34.795c21.788,7.15,43.597,4.793,64.353-4.176
					c10.791-4.688,21.326-10.52,30.889-17.346c22.01-15.699,43.471-32.18,64.953-48.602c18.982-14.492,39.192-26.475,62.463-32.76
					c14.117-3.82,28.076-4.121,42.568-1.219c48.65,9.719,90.53,32.014,126.487,65.895c11.062,10.451,22.042,20.99,33.44,31.098
					c17.094,15.148,21.347,33.98,15.805,55.244c-4.761,18.295-12.339,35.037-29.831,45.309c-4.235,2.48-7.632,6.555-11.069,10.219
					c-14.196,15.215-31.906,25.289-51.225,31.609c-34.748,11.357-70.448,17.959-107.286,14.586
					c-6.704-0.617-13.345-2.166-19.975-3.469c-12.552-2.49-21.892-8.51-24.533-22.203c-0.615-3.219-1.707-6.934-3.875-9.195
					c-16.812-17.623-12.437-39.58-11.935-60.311c0.313-13.658,14.914-26.223,29-27.498c5.002-0.445,10.141-0.154,15.149,0.434
					c37.217,4.492,74.276,0.166,111.372-1.887c1.464-0.084,2.832-1.447,4.306-2.236c2.231-4.768-0.622-8.115-3.622-11.002
					c-31.55-30.434-70.022-46.654-112.64-53.621c-18.134-2.971-35.082,0.852-50.156,12.547
					c-15.334,11.936-31.502,22.789-47.202,34.266c-34.354,25.166-70.433,46.771-112.977,55.203
					c-1.413,0.268-2.561,1.932-3.939,3.021c-1.889,5.5,2.705,7.492,5.977,9.52c40.234,24.824,204.586,125.176,245.256,152.424
					c25.466,17.078,53.342,29.193,79.697,44.311c16.091,9.219,32.107,18.607,48.102,27.998
					c19.924,11.697,33.312,28.145,37.778,51.348c1.438,7.422,3.947,14.67,6.164,21.934c7.594,24.803,0.241,45.771-21.869,58.664
					c-18.547,10.793-39.183,15.375-60.406,17.355c-5.83,0.523-11.698,0.553-17.309,0.797c-3.179,5.35,0.125,8.098,3.659,10.465
					c14.733,9.816,28.217,21.342,42.521,31.732c29.418,21.393,55.132,46.914,70.105,81.67c8.691,20.146,11.422,40.057,7.977,61.539
					c-2.969,18.611-13.604,29.76-30.044,37.652c-27.739,13.281-55.297,12.707-83.559,2.137
					c-43.541-16.268-87.209-32.158-130.84-48.154c-8.551-3.141-17.211-5.965-25.564-8.846c-4.157,6.566,0.2,9.271,2.802,11.66
					c8.08,7.418,16.845,14.084,24.918,21.482c24.31,22.275,47.83,45.436,72.75,66.98c21.071,18.18,43.504,34.832,65.696,51.68
					c14.792,11.24,30.431,21.369,45.284,32.564c10.089,7.6,19.296,16.355,29.191,24.254c9.186,7.307,18.845,14.063,28.169,21.219
					c13.494,10.326,17.424,25.037,10.98,40.305c-5.23,12.359-26.413,24.281-39.702,21.928c-4.957-0.879-9.789-2.631-14.539-4.389
					c-71.307-26.406-142.249-53.898-214.001-79.045c-63.771-22.352-178.048-51.664-242.873-70.641
					c-32.245-9.445-66.234-12.92-99.447-18.975c-4.979-0.898-10.127-0.943-15.127-1.779c-15.306-2.576-20.389-9.156-17.324-24.709
					c3.266-16.555,7.49-32.947,11.928-49.221c3.492-12.781,12.52-21.918,22.609-29.844c7.237-5.691,16.09-4.609,24.45-3.92
					c26.159,2.145,101.902,14.807,127.205,21.971c30.852,8.76,151.683,45.943,180.819,57.113
					c27.393,10.523,54.34,22.184,81.472,33.359C-352.179,222.414-351.076,221.168-349.973,219.92"/>
			</g>
		</g>
	</g>
</g>
<g>
	<g>
		<path fill="#FFFFFF" d="M52.501,103.563c-28.157,0-51.063-22.906-51.063-51.063c0-28.156,22.906-51.063,51.063-51.063
			c28.155,0,51.062,22.907,51.062,51.063C103.562,80.657,80.656,103.563,52.501,103.563z M52.501,3.563
			C25.517,3.563,3.563,25.516,3.563,52.5s21.954,48.938,48.938,48.938c26.983,0,48.937-21.954,48.937-48.938
			S79.484,3.563,52.501,3.563z"/>
	</g>
	<g>
		<g>
			<path fill="#FFFFFF" d="M38.84,46.425l-0.24,1.42h-8.721l0.26-1.42h5.342c0.078,0,0.143-0.03,0.189-0.09
				c0.047-0.06,0.07-0.13,0.07-0.21v-5.38c0-0.48-0.107-0.883-0.32-1.21c-0.213-0.327-0.613-0.49-1.201-0.49H30.02l0.24-1.42h4.379
				c0.945,0,1.648,0.27,2.109,0.81s0.691,1.317,0.691,2.33v4l-0.336,1.42c-0.027,0.054-0.02,0.107,0.02,0.16s0.092,0.08,0.158,0.08
				H38.84z"/>
		</g>
		<g>
			<path fill="#FFFFFF" d="M43.119,47.845h-1.74v-8.5c0-0.106-0.014-0.183-0.039-0.23c-0.027-0.046-0.094-0.07-0.201-0.07h-1.279
				l0.26-1.42h2.76c0.16,0,0.24,0.08,0.24,0.24V47.845z"/>
		</g>
		<g>
			<path fill="#FFFFFF" d="M52.418,47.845h-1.74v-8.5c0-0.106-0.012-0.183-0.039-0.23c-0.027-0.046-0.094-0.07-0.199-0.07h-5.521
				l0.26-1.42h7c0.16,0,0.24,0.08,0.24,0.24V47.845z"/>
		</g>
		<g>
			<path fill="#FFFFFF" d="M64.357,39.045l-4.219,8.8h-1.859l4-8.48c0.053-0.093,0.066-0.17,0.039-0.23s-0.094-0.09-0.199-0.09
				h-4.84c-0.201,0-0.301,0.1-0.301,0.3v11.3l-1.74,0.3v-10.12l0.359-1.5c0.041-0.187-0.025-0.28-0.199-0.28h-0.98l0.26-1.42h9.641
				c0.066,0,0.123,0.023,0.17,0.07s0.062,0.104,0.051,0.17L64.357,39.045z"/>
		</g>
		<g>
			<path fill="#FFFFFF" d="M74.498,46.425l-0.24,1.42h-8.719l0.26-1.42h5.34c0.08,0,0.143-0.03,0.189-0.09
				c0.047-0.06,0.07-0.13,0.07-0.21v-5.38c0-0.48-0.107-0.883-0.32-1.21c-0.213-0.327-0.613-0.49-1.199-0.49H65.68l0.238-1.42h4.381
				c0.943,0,1.646,0.27,2.107,0.81s0.693,1.317,0.693,2.33v4l-0.336,1.42c-0.027,0.054-0.021,0.107,0.02,0.16
				c0.039,0.053,0.092,0.08,0.158,0.08H74.498z"/>
		</g>
		<g>
			<path fill="#FFFFFF" d="M19.512,66.865c0,0.32-0.113,0.593-0.34,0.82s-0.494,0.34-0.801,0.34c-0.32,0-0.594-0.114-0.82-0.34
				s-0.34-0.5-0.34-0.82s0.113-0.593,0.34-0.82s0.5-0.34,0.82-0.34c0.307,0,0.574,0.114,0.801,0.34S19.512,66.545,19.512,66.865z
				 M19.371,57.405l-0.4,6.82l-1.318,0.32l-0.342-6.84L19.371,57.405z"/>
		</g>
		<g>
			<path fill="#FFFFFF" d="M30.83,67.565c0,0.16-0.08,0.253-0.238,0.28h-8.281c-0.146,0.026-0.219-0.04-0.219-0.2v-6.82l0.34-1.5
				c0.039-0.187-0.027-0.28-0.201-0.28h-1.119l0.26-1.42h9.221c0.158,0,0.238,0.08,0.238,0.24V67.565z M29.092,59.345
				c0-0.08-0.027-0.15-0.082-0.21c-0.053-0.06-0.119-0.09-0.199-0.09h-4.738c-0.188,0-0.281,0.1-0.281,0.3v6.82
				c0,0.067,0.029,0.127,0.09,0.18s0.125,0.08,0.191,0.08h4.738c0.188,0,0.281-0.086,0.281-0.26V59.345z"/>
		</g>
		<g>
			<path fill="#FFFFFF" d="M35.891,63.065l-1.74,0.3v-4.02c0-0.106-0.014-0.183-0.039-0.23c-0.027-0.046-0.094-0.07-0.201-0.07
				h-1.279l0.26-1.42h2.76c0.16,0,0.24,0.08,0.24,0.24V63.065z"/>
		</g>
		<g>
			<path fill="#FFFFFF" d="M47.031,67.845H45.33v-8.5c0-0.106-0.016-0.183-0.051-0.23c-0.033-0.046-0.104-0.07-0.211-0.07h-4.535
				c-0.201,0-0.303,0.1-0.303,0.3v8.5h-1.699v-7.02l0.34-1.5c0.039-0.187-0.027-0.28-0.201-0.28h-0.979l0.26-1.42h8.859
				c0.146,0,0.221,0.08,0.221,0.24V67.845z"/>
		</g>
		<g>
			<path fill="#FFFFFF" d="M52.09,67.845h-1.74v-8.5c0-0.106-0.014-0.183-0.039-0.23c-0.027-0.046-0.094-0.07-0.201-0.07H48.83
				l0.26-1.42h2.76c0.16,0,0.24,0.08,0.24,0.24V67.845z"/>
		</g>
		<g>
			<path fill="#FFFFFF" d="M62.27,59.045l-4.221,8.8h-1.84l4-8.48c0.053-0.093,0.062-0.17,0.031-0.23
				c-0.035-0.06-0.104-0.09-0.211-0.09h-5.6c-0.227,0-0.34-0.12-0.34-0.36v-3.34l1.74-0.3v2.28c0,0.107,0.016,0.184,0.049,0.23
				c0.033,0.047,0.104,0.07,0.211,0.07h6.16c0.146,0,0.219,0.08,0.219,0.24L62.27,59.045z"/>
		</g>
		<g>
			<path fill="#FFFFFF" d="M75.75,63.905c0,0.627-0.15,1.19-0.451,1.69c-0.299,0.5-0.707,0.93-1.219,1.29
				c-0.514,0.36-1.107,0.637-1.781,0.83c-0.674,0.193-1.383,0.29-2.129,0.29c-0.76,0-1.471-0.057-2.131-0.17
				c-0.66-0.113-1.242-0.243-1.75-0.39c-0.586-0.16-1.127-0.347-1.619-0.56v-7.54c0-0.106-0.018-0.183-0.051-0.23
				c-0.033-0.046-0.104-0.07-0.209-0.07h-0.861l0.26-1.42h2.361c0.066,0,0.123,0.023,0.17,0.07s0.07,0.104,0.07,0.17v7.72
				c0,0.106,0.01,0.183,0.029,0.23s0.076,0.09,0.17,0.13c0.346,0.107,0.713,0.193,1.1,0.26c0.334,0.067,0.713,0.127,1.141,0.18
				c0.426,0.053,0.867,0.08,1.32,0.08c0.586,0,1.115-0.067,1.59-0.2c0.473-0.133,0.877-0.316,1.209-0.55
				c0.334-0.233,0.59-0.503,0.771-0.81c0.18-0.307,0.27-0.633,0.27-0.98v-4.58c0-0.106-0.014-0.183-0.041-0.23
				c-0.025-0.046-0.094-0.07-0.199-0.07h-0.98l0.26-1.42h2.461c0.16,0,0.24,0.08,0.24,0.24V63.905z M70.949,62.845l-0.5,2.02H69.25
				v-1.5v-4.02c0-0.2-0.094-0.3-0.281-0.3H68.27l0.26-1.42h2.18c0.16,0,0.24,0.08,0.24,0.24V62.845z"/>
		</g>
		<g>
			<path fill="#FFFFFF" d="M86.77,66.645l-0.436,1.2h-4.205l0.24-1.42h2.42c0.08,0,0.146-0.03,0.201-0.09
				c0.053-0.06,0.08-0.13,0.08-0.21l-0.021-4.86c0-0.253-0.039-0.513-0.119-0.78s-0.203-0.507-0.371-0.72
				c-0.166-0.213-0.377-0.387-0.629-0.52c-0.254-0.133-0.547-0.2-0.881-0.2h-1.92c-0.227,0-0.346,0.106-0.359,0.32l-0.92,8.48H78.07
				l0.84-7.02l0.58-1.44c0.039-0.106,0.039-0.19,0-0.25c-0.041-0.06-0.107-0.09-0.201-0.09H77.75l0.26-1.42h5.039
				c0.588,0,1.109,0.094,1.568,0.28c0.459,0.187,0.848,0.443,1.164,0.77s0.561,0.71,0.73,1.15c0.172,0.44,0.258,0.92,0.258,1.44
				V66.645z"/>
		</g>
	</g>
</g>
</svg>
