<?xml version="1.0" encoding="utf-8"?>
<!-- Generator: Adobe Illustrator 17.0.0, SVG Export Plug-In . SVG Version: 6.00 Build 0)  -->
<!DOCTYPE svg PUBLIC "-//W3C//DTD SVG 1.1//EN" "http://www.w3.org/Graphics/SVG/1.1/DTD/svg11.dtd">
<svg version="1.1" id="Layer_1" xmlns="http://www.w3.org/2000/svg" xmlns:xlink="http://www.w3.org/1999/xlink" x="0px" y="0px"
	 width="89px" height="204.333px" viewBox="-41 -74 89 204.333" enable-background="new -41 -74 89 204.333" xml:space="preserve">
<g>
	<defs>
		<rect id="SVGID_1_" x="-34.641" y="-70.249" width="78.884" height="198.705"/>
	</defs>
	<clipPath id="SVGID_2_">
		<use xlink:href="#SVGID_1_"  overflow="visible"/>
	</clipPath>
	<path clip-path="url(#SVGID_2_)" fill="#FFFFFF" d="M31.283,60.132c0.662-0.713,0.981-1.737,0.756-2.721
		c-0.343-1.498-1.812-2.347-3.28-1.894c-0.388,0.118-0.737,0.317-1.035,0.571"/>
	
		<path clip-path="url(#SVGID_2_)" fill="none" stroke="#EC0044" stroke-width="1.2229" stroke-linecap="round" stroke-linejoin="round" stroke-miterlimit="10" d="
		M31.283,60.132c0.662-0.713,0.981-1.737,0.756-2.721c-0.343-1.498-1.812-2.347-3.28-1.894c-0.388,0.118-0.737,0.317-1.035,0.571"/>
	<path clip-path="url(#SVGID_2_)" fill="#FFFFFF" d="M26.98,66.625c-0.279,0.862-0.883,1.615-1.763,2.056
		c-1.77,0.887-3.948,0.172-4.867-1.596c-0.132-0.258-0.225-0.523-0.291-0.791c-0.84,0.061-1.683-0.375-2.096-1.167
		c-0.521-1.007-0.165-2.211,0.784-2.779c-0.392-1.38,0.084-2.859,1.204-3.739c-0.383-1.003,0.028-2.148,1.007-2.639
		c0.894-0.448,1.955-0.206,2.594,0.516c0.314-0.134,0.638-0.223,0.962-0.246c0.199-0.369,0.507-0.685,0.911-0.887
		c1.056-0.528,2.352-0.103,2.901,0.951c0.427,0.821,0.263,1.775-0.324,2.408c0.655,0.11,1.279,0.392,1.793,0.829"/>
	
		<path clip-path="url(#SVGID_2_)" fill="none" stroke="#EC0044" stroke-width="1.2229" stroke-linecap="round" stroke-linejoin="round" stroke-miterlimit="10" d="
		M26.98,66.625c-0.279,0.862-0.883,1.615-1.763,2.056c-1.77,0.887-3.948,0.172-4.867-1.596c-0.132-0.258-0.225-0.523-0.291-0.791
		c-0.84,0.061-1.683-0.375-2.096-1.167c-0.521-1.007-0.165-2.211,0.784-2.779c-0.392-1.38,0.084-2.859,1.204-3.739
		c-0.383-1.003,0.028-2.148,1.007-2.639c0.894-0.448,1.955-0.206,2.594,0.516c0.314-0.134,0.638-0.223,0.962-0.246
		c0.199-0.369,0.507-0.685,0.911-0.887c1.056-0.528,2.352-0.103,2.901,0.951c0.427,0.821,0.263,1.775-0.324,2.408
		c0.655,0.11,1.279,0.392,1.793,0.829"/>
</g>
<line fill="none" stroke="#EC0044" stroke-width="1.2229" stroke-linecap="round" stroke-linejoin="round" stroke-miterlimit="10" x1="26.465" y1="66.619" x2="27.833" y2="71.722"/>
<line fill="none" stroke="#EC0044" stroke-width="1.2229" stroke-linecap="round" stroke-linejoin="round" stroke-miterlimit="10" x1="24.561" y1="67.964" x2="25.72" y2="72.288"/>
<line fill="none" stroke="#EC0044" stroke-width="1.2229" stroke-linecap="round" stroke-linejoin="round" stroke-miterlimit="10" x1="28.218" y1="65.561" x2="30.075" y2="72.5"/>
<g>
	<defs>
		<rect id="SVGID_3_" x="-34.641" y="-70.249" width="78.884" height="198.705"/>
	</defs>
	<clipPath id="SVGID_4_">
		<use xlink:href="#SVGID_3_"  overflow="visible"/>
	</clipPath>
	<path clip-path="url(#SVGID_4_)" fill="#FFFFFF" d="M25.822,60.404c-1.312-0.976-3.118-0.817-4.038,0.354
		c-0.916,1.174-0.598,2.916,0.714,3.89"/>
	
		<path clip-path="url(#SVGID_4_)" fill="none" stroke="#EC0044" stroke-width="1.2229" stroke-linecap="round" stroke-linejoin="round" stroke-miterlimit="10" d="
		M25.822,60.404c-1.312-0.976-3.118-0.817-4.038,0.354c-0.916,1.174-0.598,2.916,0.714,3.89"/>
	<path clip-path="url(#SVGID_4_)" fill="#FFFFFF" d="M24.686,64.208c-0.071-1.404,1.009-2.603,2.415-2.674
		c0.176-0.009,0.352,0,0.523,0.028c0.096-1.258,1.101-2.28,2.394-2.347c1.406-0.071,2.604,1.007,2.676,2.411
		c0.023,0.418-0.068,0.812-0.226,1.169c0.5,0.437,0.833,1.066,0.869,1.782c0.071,1.404-1.007,2.603-2.413,2.672
		c-0.913,0.051-1.735-0.397-2.221-1.099c-0.38,0.272-0.838,0.444-1.34,0.47C25.96,66.692,24.759,65.612,24.686,64.208"/>
	
		<path clip-path="url(#SVGID_4_)" fill="none" stroke="#EC0044" stroke-width="1.2229" stroke-linecap="round" stroke-linejoin="round" stroke-miterlimit="10" d="
		M24.686,64.208c-0.071-1.404,1.009-2.603,2.415-2.674c0.176-0.009,0.352,0,0.523,0.028c0.096-1.258,1.101-2.28,2.394-2.347
		c1.406-0.071,2.604,1.007,2.676,2.411c0.023,0.418-0.068,0.812-0.226,1.169c0.5,0.437,0.833,1.066,0.869,1.782
		c0.071,1.404-1.007,2.603-2.413,2.672c-0.913,0.051-1.735-0.397-2.221-1.099c-0.38,0.272-0.838,0.444-1.34,0.47
		C25.96,66.692,24.759,65.612,24.686,64.208z"/>
	<path clip-path="url(#SVGID_4_)" fill="#FFFFFF" d="M33.749,99.319c1.429,3.059,2.357,2.81,2.063-0.552l-2.084-23.935
		c-0.291-3.364-3.2-5.399-6.461-4.526l-0.348,0.092c-3.259,0.875-4.759,4.092-3.331,7.151L33.749,99.319z"/>
	
		<path clip-path="url(#SVGID_4_)" fill="none" stroke="#EC0044" stroke-width="1.2229" stroke-linecap="round" stroke-linejoin="round" stroke-miterlimit="10" d="
		M33.749,99.319c1.429,3.059,2.357,2.81,2.063-0.552l-2.084-23.935c-0.291-3.364-3.2-5.399-6.461-4.526l-0.348,0.092
		c-3.259,0.875-4.759,4.092-3.331,7.151L33.749,99.319z"/>
</g>
<line fill="none" stroke="#EC0044" stroke-width="1.2229" stroke-linecap="round" stroke-linejoin="round" stroke-miterlimit="10" x1="34.152" y1="76.065" x2="30.691" y2="76.993"/>
<line fill="none" stroke="#EC0044" stroke-width="1.2229" stroke-linecap="round" stroke-linejoin="round" stroke-miterlimit="10" x1="26.632" y1="75.622" x2="23.02" y2="76.588"/>
<line fill="none" stroke="#EC0044" stroke-width="1.2229" stroke-linecap="round" stroke-linejoin="round" stroke-miterlimit="10" x1="30.901" y1="79.395" x2="27.329" y2="80.352"/>
<line fill="none" stroke="#EC0044" stroke-width="1.2229" stroke-linecap="round" stroke-linejoin="round" stroke-miterlimit="10" x1="34.477" y1="84.176" x2="31.364" y2="85.01"/>
<line fill="none" stroke="#EC0044" stroke-width="1.2229" stroke-linecap="round" stroke-linejoin="round" stroke-miterlimit="10" x1="31.789" y1="88.832" x2="28.798" y2="89.635"/>
<line fill="none" stroke="#EC0044" stroke-width="1.2229" stroke-linecap="round" stroke-linejoin="round" stroke-miterlimit="10" x1="32.991" y1="93.264" x2="35.394" y2="92.621"/>
<line fill="none" stroke="#EC0044" stroke-width="1.2229" stroke-linecap="round" stroke-linejoin="round" stroke-miterlimit="10" x1="29.948" y1="83.259" x2="26.448" y2="84.214"/>
<g>
	<defs>
		<rect id="SVGID_5_" x="-34.641" y="-70.249" width="78.884" height="198.705"/>
	</defs>
	<clipPath id="SVGID_6_">
		<use xlink:href="#SVGID_5_"  overflow="visible"/>
	</clipPath>
	<path clip-path="url(#SVGID_6_)" fill="#FFFFFF" d="M0.995,99.947l0.956-2.038c1.267-2.697,0.103-5.92-2.594-7.184
		c-2.697-1.265-5.92-0.103-7.183,2.596l2.737,1.284c0.556-1.186,1.976-1.699,3.162-1.143c1.185,0.557,1.697,1.977,1.139,3.164
		l-1.054,2.246c-0.131-0.012-0.256-0.038-0.388-0.044c-4.806-0.237-8.376,2.592-9.393,5.942
		c-2.101,6.616-7.545,11.912-14.543,13.942c-3.578,1.221-7.339,2.65-7.824,4.568c-0.517,1.885,4.137,5.005,10.203,4.514
		c10.923-1.014,20.86-7.561,26.29-17.491C4.824,106.162,3.706,101.913,0.995,99.947"/>
	
		<path clip-path="url(#SVGID_6_)" fill="none" stroke="#EC0044" stroke-width="1.2229" stroke-linecap="round" stroke-linejoin="round" stroke-miterlimit="10" d="
		M0.995,99.947l0.956-2.038c1.267-2.697,0.103-5.92-2.594-7.184c-2.697-1.265-5.92-0.103-7.183,2.596l2.737,1.284
		c0.556-1.186,1.976-1.699,3.162-1.143c1.185,0.557,1.697,1.977,1.139,3.164l-1.054,2.246c-0.131-0.012-0.256-0.038-0.388-0.044
		c-4.806-0.237-8.376,2.592-9.393,5.942c-2.101,6.616-7.545,11.912-14.543,13.942c-3.578,1.221-7.339,2.65-7.824,4.568
		c-0.517,1.885,4.137,5.005,10.203,4.514c10.923-1.014,20.86-7.561,26.29-17.491C4.824,106.162,3.706,101.913,0.995,99.947z"/>
	<path clip-path="url(#SVGID_6_)" fill="#FFFFFF" d="M-0.842,107.333c-5.826,9.888-15.207,17.057-26.201,17.581"/>
	
		<path clip-path="url(#SVGID_6_)" fill="none" stroke="#EC0044" stroke-width="1.2229" stroke-linecap="round" stroke-linejoin="round" stroke-miterlimit="10" d="
		M-0.842,107.333c-5.826,9.888-15.207,17.057-26.201,17.581"/>
	<path clip-path="url(#SVGID_6_)" fill="#FFFFFF" d="M26.894-52.404c0.871,3.535,1.881,6.812,2.415,9.829
		c0.312,2.657,3.211,3.502,6.691,2.242c0.118-0.051,0.237-0.103,0.355-0.153c3.296-1.688,4.655-4.385,2.923-6.425
		c-1.843-2.448-3.55-5.421-5.542-8.468 M43.113-61.763c1.369,3.15-0.073,6.815-3.223,8.184c-2.519,1.096-5.451-0.059-6.547-2.58
		c-0.876-2.016,0.047-4.36,2.063-5.237c1.611-0.702,3.488,0.037,4.188,1.65c0.561,1.291-0.028,2.791-1.319,3.352 M15.841-49.904
		c1.371,3.15,5.035,4.594,8.183,3.225c2.521-1.096,3.676-4.026,2.578-6.547c-0.876-2.016-3.219-2.941-5.235-2.064
		c-1.613,0.7-2.352,2.577-1.652,4.188c0.563,1.291,2.063,1.883,3.352,1.322 M15.976-49.563c-2.53-5.817,1.462,3.361-1.068-2.455
		c-0.692-1.617-0.936-4.658-0.183-6.515c3.833-9.12,13.547-13.343,22.83-9.926c1.869,0.714,3.928,2.97,4.639,4.576
		c2.53,5.817-1.462-3.362,1.068,2.455 M20.805-54.977c2.307-6.639,8.775-9.451,15.203-6.611"/>
	
		<path clip-path="url(#SVGID_6_)" fill="none" stroke="#EC0044" stroke-width="1.2229" stroke-linecap="round" stroke-linejoin="round" stroke-miterlimit="10" d="
		M26.894-52.404c0.871,3.535,1.881,6.812,2.415,9.829c0.312,2.657,3.211,3.502,6.691,2.242c0.118-0.051,0.237-0.103,0.355-0.153
		c3.296-1.688,4.655-4.385,2.923-6.425c-1.843-2.448-3.55-5.421-5.542-8.468 M43.113-61.763c1.369,3.15-0.073,6.815-3.223,8.184
		c-2.519,1.096-5.451-0.059-6.547-2.58c-0.876-2.016,0.047-4.36,2.063-5.237c1.611-0.702,3.488,0.037,4.188,1.65
		c0.561,1.291-0.028,2.791-1.319,3.352 M15.841-49.904c1.371,3.15,5.035,4.594,8.183,3.225c2.521-1.096,3.676-4.026,2.578-6.547
		c-0.876-2.016-3.219-2.941-5.235-2.064c-1.613,0.7-2.352,2.577-1.652,4.188c0.563,1.291,2.063,1.883,3.352,1.322 M15.976-49.563
		c-2.53-5.817,1.462,3.361-1.068-2.455c-0.692-1.617-0.936-4.658-0.183-6.515c3.833-9.12,13.547-13.343,22.83-9.926
		c1.869,0.714,3.928,2.97,4.639,4.576c2.53,5.817-1.462-3.362,1.068,2.455 M20.805-54.977c2.307-6.639,8.775-9.451,15.203-6.611"/>
	<path clip-path="url(#SVGID_6_)" fill="#FFFFFF" d="M-18.41,42.707c-1.439-0.331-3.211-1.524-3.185-3.568
		c0.031-2.509-0.578-2.2-0.51-2.2c0.132,0,1.286-0.044,2.073-1.559c0.671-1.294,2.183-2.561,3.719-2.242
		c4.009,0.831,8.197,0.382,12.113-1.301c3.916-1.681,7.125-4.411,9.282-7.892c1.425-2.298,4.444-3.007,6.745-1.582
		c2.3,1.425,3.009,4.444,1.584,6.745C10.19,34.303,5.44,38.36-0.332,40.839c-5.772,2.479-11.986,3.132-17.97,1.892
		C-18.338,42.723-18.373,42.716-18.41,42.707"/>
	<path clip-path="url(#SVGID_6_)" fill="none" stroke="#EC0044" stroke-width="1.2229" d="M-18.41,42.707
		c-1.439-0.331-3.211-1.524-3.185-3.568c0.031-2.509-0.578-2.2-0.51-2.2c0.132,0,1.286-0.044,2.073-1.559
		c0.671-1.294,2.183-2.561,3.719-2.242c4.009,0.831,8.197,0.382,12.113-1.301c3.916-1.681,7.125-4.411,9.282-7.892
		c1.425-2.298,4.444-3.007,6.745-1.582c2.3,1.425,3.009,4.444,1.584,6.745C10.19,34.303,5.44,38.36-0.332,40.839
		c-5.772,2.479-11.986,3.132-17.97,1.892C-18.338,42.723-18.373,42.716-18.41,42.707z"/>
	<path clip-path="url(#SVGID_6_)" fill="#FFFFFF" d="M16.878,21.251c-2.622,0.263-5.148-0.749-7.212-2.641"/>
	<path clip-path="url(#SVGID_6_)" fill="none" stroke="#EC0044" stroke-width="1.2229" d="M16.878,21.251
		c-2.622,0.263-5.148-0.749-7.212-2.641"/>
	<path clip-path="url(#SVGID_6_)" fill="#FFFFFF" d="M-16.272,51.87c-1.733,0-4.073-0.897-4.583-3.24
		c-0.624-2.878-1.24-2.364-1.162-2.381c0.152-0.035,1.458-0.388,1.958-2.331c0.427-1.655,1.822-3.503,3.662-3.543
		c4.803-0.106,9.475-1.725,13.51-4.681c4.035-2.956,6.986-6.923,8.535-11.472c1.023-3.005,4.289-4.611,7.296-3.589
		c3.005,1.024,4.611,4.291,3.589,7.296C14.218,34.72,9.854,40.613,3.909,44.968c-5.946,4.357-12.879,6.742-20.051,6.9
		C-16.186,51.87-16.228,51.87-16.272,51.87"/>
	<path clip-path="url(#SVGID_6_)" fill="none" stroke="#EC0044" stroke-width="1.2229" d="M-16.272,51.87
		c-1.733,0-4.073-0.897-4.583-3.24c-0.624-2.878-1.24-2.364-1.162-2.381c0.152-0.035,1.458-0.388,1.958-2.331
		c0.427-1.655,1.822-3.503,3.662-3.543c4.803-0.106,9.475-1.725,13.51-4.681c4.035-2.956,6.986-6.923,8.535-11.472
		c1.023-3.005,4.289-4.611,7.296-3.589c3.005,1.024,4.611,4.291,3.589,7.296C14.218,34.72,9.854,40.613,3.909,44.968
		c-5.946,4.357-12.879,6.742-20.051,6.9C-16.186,51.87-16.228,51.87-16.272,51.87z"/>
	<path clip-path="url(#SVGID_6_)" fill="#FFFFFF" d="M13.46,26.829c0,1.568-1.272,2.84-2.84,2.84c-1.57,0-2.841-1.272-2.841-2.84
		c0-1.568,1.272-2.84,2.841-2.84C12.188,23.989,13.46,25.261,13.46,26.829"/>
	<circle clip-path="url(#SVGID_6_)" fill="none" stroke="#EC0044" stroke-width="1.2229" cx="10.62" cy="26.829" r="2.84"/>
	<path clip-path="url(#SVGID_6_)" fill="#FFFFFF" d="M9.148,34.425c0,1.57-1.272,2.84-2.841,2.84c-1.568,0-2.84-1.27-2.84-2.84
		c0-1.568,1.272-2.84,2.84-2.84C7.877,31.586,9.148,32.858,9.148,34.425"/>
	<circle clip-path="url(#SVGID_6_)" fill="none" stroke="#EC0044" stroke-width="1.2229" cx="6.308" cy="34.426" r="2.84"/>
	<path clip-path="url(#SVGID_6_)" fill="#FFFFFF" d="M2.783,40.585c0,1.57-1.272,2.84-2.84,2.84c-1.57,0-2.841-1.27-2.841-2.84
		c0-1.568,1.272-2.84,2.841-2.84C1.511,37.746,2.783,39.017,2.783,40.585"/>
	<circle clip-path="url(#SVGID_6_)" fill="none" stroke="#EC0044" stroke-width="1.2229" cx="-0.058" cy="40.585" r="2.84"/>
	<path clip-path="url(#SVGID_6_)" fill="#FFFFFF" d="M-4.609,44.281c0,1.568-1.272,2.84-2.841,2.84c-1.568,0-2.84-1.272-2.84-2.84
		c0-1.568,1.272-2.84,2.84-2.84C-5.88,41.442-4.609,42.713-4.609,44.281"/>
	<circle clip-path="url(#SVGID_6_)" fill="none" stroke="#EC0044" stroke-width="1.2229" cx="-7.449" cy="44.281" r="2.84"/>
	<path clip-path="url(#SVGID_6_)" fill="#FFFFFF" d="M-12.377,45.817c0,1.284-1.042,2.326-2.326,2.326
		c-1.284,0-2.326-1.042-2.326-2.326c0-1.284,1.042-2.326,2.326-2.326C-13.418,43.491-12.377,44.533-12.377,45.817"/>
	<circle clip-path="url(#SVGID_6_)" fill="none" stroke="#EC0044" stroke-width="1.2229" cx="-14.702" cy="45.817" r="2.326"/>
	<path clip-path="url(#SVGID_6_)" fill="#FFFFFF" d="M13.66,14.803c0.247,2.463-0.152,4.841-1.059,6.967"/>
	<path clip-path="url(#SVGID_6_)" fill="none" stroke="#EC0044" stroke-width="1.2229" d="M13.66,14.803
		c0.247,2.463-0.152,4.841-1.059,6.967"/>
	<path clip-path="url(#SVGID_6_)" fill="none" stroke="#EC0044" stroke-width="1.0801" d="M-11.444-21.304
		c-5.284-4.381-6.015-12.216-1.634-17.499"/>
	<path clip-path="url(#SVGID_6_)" fill="#FFFFFF" d="M-28.243-30.63c-0.056,2.986,1.726,5.824,4.678,6.958
		c2.949,1.131,6.174,0.216,8.129-2.042c0.057-2.984-1.725-5.824-4.674-6.956C-23.062-33.803-26.286-32.888-28.243-30.63"/>
	<path clip-path="url(#SVGID_6_)" fill="none" stroke="#EC0044" stroke-width="1.0801" d="M-28.243-30.63
		c-0.056,2.986,1.726,5.824,4.678,6.958c2.949,1.131,6.174,0.216,8.129-2.042c0.057-2.984-1.725-5.824-4.674-6.956
		C-23.062-33.803-26.286-32.888-28.243-30.63z"/>
</g>
<line fill="none" stroke="#EC0044" stroke-width="1.0801" x1="-28.243" y1="-30.63" x2="-15.822" y2="-25.862"/>
<line fill="none" stroke="#EC0044" stroke-width="1.0801" x1="-15.408" y1="-25.704" x2="-14.026" y2="-25.174"/>
<line fill="none" stroke="#EC0044" stroke-width="1.0801" x1="-23.935" y1="-32.736" x2="-22.291" y2="-28.541"/>
<line fill="none" stroke="#EC0044" stroke-width="1.0801" x1="-20.376" y1="-32.607" x2="-18.149" y2="-26.929"/>
<line fill="none" stroke="#EC0044" stroke-width="1.0801" x1="-26.45" y1="-26.184" x2="-22.419" y2="-28.202"/>
<g>
	<defs>
		<rect id="SVGID_7_" x="-34.641" y="-70.249" width="78.884" height="198.705"/>
	</defs>
	<clipPath id="SVGID_8_">
		<use xlink:href="#SVGID_7_"  overflow="visible"/>
	</clipPath>
	<path clip-path="url(#SVGID_8_)" fill="#FFFFFF" d="M-9.426-2.668c-3.65,1.625-10.597,2.932-16.113-6.575
		c-2.556-4.672-3.39-8.681-2.411-11.583c0.624-1.845,1.942-3.228,3.921-4.108c1.434-0.639,3.207-0.986,5.129-1.007
		c2.057-0.056,3.171-0.232,4.118-0.653c1.091-0.488,1.897-1.296,3.096-2.573c1.31-1.439,2.765-2.538,4.209-3.181
		c1.967-0.876,3.869-0.932,5.655-0.167C0.992-31.308,3.424-28.019,5.21-23C8.628-12.547,3.002-8.238-0.654-6.6l-0.049,0.021
		c-1.441,0.643-2.939,1.061-4.455,1.247c-0.054,0.007-0.106,0.021-0.153,0.044c-0.051,0.021-0.098,0.051-0.138,0.087
		c-1.155,1.016-2.482,1.862-3.948,2.519L-9.426-2.668z"/>
	<path clip-path="url(#SVGID_8_)" fill="none" stroke="#EC0044" stroke-width="0.2038" stroke-miterlimit="10" d="M-9.426-2.668
		c-3.65,1.625-10.597,2.932-16.113-6.575c-2.556-4.672-3.39-8.681-2.411-11.583c0.624-1.845,1.942-3.228,3.921-4.108
		c1.434-0.639,3.207-0.986,5.129-1.007c2.057-0.056,3.171-0.232,4.118-0.653c1.091-0.488,1.897-1.296,3.096-2.573
		c1.31-1.439,2.765-2.538,4.209-3.181c1.967-0.876,3.869-0.932,5.655-0.167C0.992-31.308,3.424-28.019,5.21-23
		C8.628-12.547,3.002-8.238-0.654-6.6l-0.049,0.021c-1.441,0.643-2.939,1.061-4.455,1.247c-0.054,0.007-0.106,0.021-0.153,0.044
		c-0.051,0.021-0.098,0.051-0.138,0.087c-1.155,1.016-2.482,1.862-3.948,2.519L-9.426-2.668z"/>
	<path clip-path="url(#SVGID_8_)" fill="#EC0044" d="M-7.695-32.843c-1.566,0.697-3.057,1.848-4.385,3.306
		c-1.179,1.256-1.925,2.003-2.921,2.448c-0.915,0.406-2.04,0.557-3.904,0.606c-1.953,0.021-3.791,0.362-5.343,1.054
		c-4.664,2.077-6.761,7.308-1.758,16.456c3.528,6.082,9.285,10.144,16.801,6.798c0.01-0.005,0.021-0.009,0.03-0.014
		c1.537-0.688,2.911-1.575,4.083-2.606c1.538-0.19,3.096-0.617,4.61-1.291C-0.465-6.093-0.45-6.1-0.434-6.107
		c7.536-3.374,8.341-10.385,6.153-17.074C2.231-32.975-3.051-34.91-7.695-32.843 M-7.256-31.855c1.824-0.812,3.58-0.868,5.221-0.164
		c2.669,1.145,4.996,4.32,6.731,9.186c1.411,4.324,2.556,12.102-5.573,15.74l-0.045,0.019c-1.392,0.62-2.84,1.026-4.301,1.206
		c-0.108,0.012-0.211,0.042-0.308,0.085c-0.099,0.045-0.192,0.105-0.274,0.176C-6.918-4.628-8.2-3.809-9.617-3.175l-0.03,0.012
		c-8.109,3.611-13.139-2.416-15.419-6.341c-2.481-4.54-3.301-8.397-2.371-11.149c0.573-1.697,1.793-2.97,3.629-3.787
		c1.366-0.61,3.066-0.941,4.932-0.962c1.8-0.047,3.15-0.181,4.313-0.699c1.186-0.528,2.026-1.371,3.282-2.709
		C-10.026-30.188-8.634-31.242-7.256-31.855"/>
	
		<path clip-path="url(#SVGID_8_)" fill="none" stroke="#EC0044" stroke-width="1.0801" stroke-linecap="round" stroke-linejoin="round" d="
		M-9.716-27.318l0.033-0.037c1.056-1.16,2.199-2.033,3.306-2.526c1.268-0.564,2.411-0.613,3.489-0.152
		c2.068,0.887,4.033,3.691,5.538,7.899"/>
</g>
</svg>
