<?xml version="1.0" encoding="utf-8"?>
<!-- Generator: Adobe Illustrator 17.0.0, SVG Export Plug-In . SVG Version: 6.00 Build 0)  -->
<!DOCTYPE svg PUBLIC "-//W3C//DTD SVG 1.1//EN" "http://www.w3.org/Graphics/SVG/1.1/DTD/svg11.dtd">
<svg version="1.1" id="Layer_1" xmlns="http://www.w3.org/2000/svg" xmlns:xlink="http://www.w3.org/1999/xlink" x="0px" y="0px"
	 width="76.333px" height="179.667px" viewBox="-28.333 -74 76.333 179.667" enable-background="new -28.333 -74 76.333 179.667"
	 xml:space="preserve">
<g>
	<g>
		<defs>
			<rect id="SVGID_1_" x="-20.792" y="-70.256" width="65.407" height="165.435"/>
		</defs>
		<clipPath id="SVGID_2_">
			<use xlink:href="#SVGID_1_"  overflow="visible"/>
		</clipPath>
		<path clip-path="url(#SVGID_2_)" fill="#FFFFFF" d="M23.991,78.531c-1.935,3.201-3.582,6.316-5.387,8.896
			c-1.704,2.157-0.213,4.878,3.231,6.493c0.124,0.048,0.247,0.097,0.371,0.145c3.622,1.167,6.568,0.197,6.792-2.544
			c0.44-3.117,1.361-6.518,2.127-10.179 M42.577,83.516c-1.294,3.283-5.005,4.898-8.289,3.604c-2.628-1.035-3.919-4.003-2.884-6.631
			c0.829-2.102,3.203-3.136,5.304-2.308c1.681,0.662,2.508,2.562,1.846,4.243c-0.532,1.344-2.05,2.007-3.394,1.477 M14.143,72.315
			c-1.294,3.285,0.319,6.996,3.602,8.289c2.628,1.035,5.596-0.256,6.631-2.884c0.829-2.102-0.202-4.477-2.304-5.304
			c-1.681-0.662-3.582,0.163-4.245,1.844c-0.528,1.346,0.132,2.866,1.475,3.396 M13.993,72.661c2.388-6.063-1.38,3.505,1.008-2.558
			c0.673-1.677,2.705-4.066,4.601-4.868c9.413-3.842,19.538,0.149,23.803,9.375c0.84,1.878,0.696,5.014,0.045,6.697
			c-2.388,6.065,1.382-3.505-1.008,2.56 M21.436,72.236c6.5-3.147,13.244-0.491,15.851,6.244"/>
		
			<path clip-path="url(#SVGID_2_)" fill="none" stroke="#EC0044" stroke-width="1.2567" stroke-linecap="round" stroke-linejoin="round" stroke-miterlimit="10" d="
			M23.991,78.531c-1.935,3.201-3.582,6.316-5.387,8.896c-1.704,2.157-0.213,4.878,3.231,6.493c0.124,0.048,0.247,0.097,0.371,0.145
			c3.622,1.167,6.568,0.197,6.792-2.544c0.44-3.117,1.361-6.518,2.127-10.179 M42.577,83.516c-1.294,3.283-5.005,4.898-8.289,3.604
			c-2.628-1.035-3.919-4.003-2.884-6.631c0.829-2.102,3.203-3.136,5.304-2.308c1.681,0.662,2.508,2.562,1.846,4.243
			c-0.532,1.344-2.05,2.007-3.394,1.477 M14.143,72.315c-1.294,3.285,0.319,6.996,3.602,8.289c2.628,1.035,5.596-0.256,6.631-2.884
			c0.829-2.102-0.202-4.477-2.304-5.304c-1.681-0.662-3.582,0.163-4.245,1.844c-0.528,1.346,0.132,2.866,1.475,3.396 M13.993,72.661
			c2.388-6.063-1.38,3.505,1.008-2.558c0.673-1.677,2.705-4.066,4.601-4.868c9.413-3.842,19.538,0.149,23.803,9.375
			c0.84,1.878,0.696,5.014,0.045,6.697c-2.388,6.065,1.382-3.505-1.008,2.56 M21.436,72.236c6.5-3.147,13.244-0.491,15.851,6.244"/>
		<path clip-path="url(#SVGID_2_)" fill="#FFFFFF" d="M14.646-67.423c-3.376-3.548-5.256-2.789-5.22,2.109
			c-0.034,11.84,1.91,24.605,11.064,33.182c2.624,2.112,5.17,3.777,6.62,4.81l1.495-0.605c0.285-1.738,0.714-4.612,1.131-7.941
			C30.362-48.398,22.895-58.93,14.646-67.423"/>
		<path clip-path="url(#SVGID_2_)" fill="none" stroke="#EC0044" stroke-width="1.2567" d="M14.646-67.423
			c-3.376-3.548-5.256-2.789-5.22,2.109c-0.034,11.84,1.91,24.605,11.064,33.182c2.624,2.112,5.17,3.777,6.62,4.81l1.495-0.605
			c0.285-1.738,0.714-4.612,1.131-7.941C30.362-48.398,22.895-58.93,14.646-67.423z"/>
		<path clip-path="url(#SVGID_2_)" fill="#FFFFFF" d="M16.886-36.202c1.056,1.436,2.249,2.798,3.604,4.069
			c2.624,2.112,5.17,3.777,6.62,4.809l1.495-0.603c0.285-1.738,0.713-4.612,1.131-7.941c0.093-1.855,0.004-3.663-0.235-5.43
			L16.886-36.202z"/>
		<path clip-path="url(#SVGID_2_)" fill="none" stroke="#EC0044" stroke-width="1.2567" d="M16.886-36.202
			c1.056,1.436,2.249,2.798,3.604,4.069c2.624,2.112,5.17,3.777,6.62,4.809l1.495-0.603c0.285-1.738,0.713-4.612,1.131-7.941
			c0.093-1.855,0.004-3.663-0.235-5.43L16.886-36.202z"/>
	</g>
	<path fill="none" stroke="#EC0044" stroke-width="1.2567" stroke-linecap="round" stroke-linejoin="round" d="M25.518-35.153
		l0.666-0.27 M21.08-33.361l0.666-0.269 M26.075-40.163l0.666-0.269 M21.637-38.37l0.666-0.269 M17.199-36.576l0.666-0.27
		 M26.522-45.446l0.666-0.269 M22.084-43.653l0.666-0.27 M17.646-41.861l0.666-0.269 M22.641-48.663l0.666-0.269 M18.203-46.87
		l0.666-0.27 M13.765-45.078l0.666-0.269 M23.087-53.948l0.666-0.269 M18.649-52.154l0.666-0.269 M14.211-50.36l0.666-0.27
		 M19.207-57.163l0.664-0.27 M14.768-55.371l0.666-0.269 M10.33-53.577l0.666-0.269 M15.215-60.654l0.666-0.269 M10.777-58.86
		l0.666-0.27 M11.334-63.871L12-64.14"/>
	<g>
		<defs>
			<rect id="SVGID_3_" x="-20.792" y="-70.256" width="65.407" height="165.435"/>
		</defs>
		<clipPath id="SVGID_4_">
			<use xlink:href="#SVGID_3_"  overflow="visible"/>
		</clipPath>
		<path clip-path="url(#SVGID_4_)" fill="#FFFFFF" d="M12.073-40.693l10.444,1.953l5.6,11.006c-0.086,0.256-6.368-6.368-6.368-6.368
			l-4.125,5.353C13.643-31.756,12.324-37.051,12.073-40.693"/>
		<path clip-path="url(#SVGID_4_)" fill="none" stroke="#EC0044" stroke-width="1.2567" d="M12.073-40.693l10.444,1.953l5.6,11.006
			c-0.086,0.256-6.368-6.368-6.368-6.368l-4.125,5.353C13.643-31.756,12.324-37.051,12.073-40.693z"/>
		<path clip-path="url(#SVGID_4_)" fill="#FFFFFF" d="M30.447-52.152l-8.636,9.662l6.012,14.878c0.002,0.005,0.723-1.099,0.77-1.248
			l-3.409-11.819l7.087,1.976C33.046-43.632,32.262-48.095,30.447-52.152"/>
		<path clip-path="url(#SVGID_4_)" fill="none" stroke="#EC0044" stroke-width="1.2567" d="M30.447-52.152l-8.636,9.662
			l6.012,14.878c0.002,0.005,0.723-1.099,0.77-1.248l-3.409-11.819l7.087,1.976C33.046-43.632,32.262-48.095,30.447-52.152z"/>
		<path clip-path="url(#SVGID_4_)" fill="#FFFFFF" d="M12.158,36.477c2.553,0.38,5.224-0.632,6.844-2.864
			c2.32-3.194,1.613-7.666-1.583-9.988c-0.823-0.598-1.733-0.983-2.667-1.187c0.99-1.074,1.391-2.633,0.906-4.117
			c-0.691-2.084-2.857-3.242-4.955-2.725c-1.386-2.419-4.105-3.786-6.873-3.455c-0.872-1.899-3.034-2.898-5.068-2.231
			c-0.55,0.181-1.024,0.473-1.43,0.831c-2.306-2.18-5.942-2.157-8.212,0.095c-0.829,0.82-1.346,1.824-1.59,2.884
			c-1.923-0.465-4.028,0.032-5.537,1.529c-2.317,2.297-2.331,6.035-0.034,8.351c0.331,0.337,0.702,0.609,1.088,0.849
			c-0.535,1.275-0.292,2.8,0.741,3.84c0.338,0.342,0.73,0.594,1.148,0.766c-0.666,2.923-1.749,5.99-3.29,9.033
			c-0.566,1.119-1.173,2.191-1.808,3.215l2.734,1.987l4.345,3.156l2.696,1.958c2.701-3.469,5.75-6.253,8.786-8.19
			c0.38,1.604,1.293,3.086,2.728,4.132c3.196,2.32,7.664,1.611,9.984-1.583C12.482,40.878,12.788,38.549,12.158,36.477"/>
		
			<path clip-path="url(#SVGID_4_)" fill="none" stroke="#EC0044" stroke-width="1.2567" stroke-linecap="round" stroke-linejoin="round" stroke-miterlimit="10" d="
			M12.158,36.477c2.553,0.38,5.224-0.632,6.844-2.864c2.32-3.194,1.613-7.666-1.583-9.988c-0.823-0.598-1.733-0.983-2.667-1.187
			c0.99-1.074,1.391-2.633,0.906-4.117c-0.691-2.084-2.857-3.242-4.955-2.725c-1.386-2.419-4.105-3.786-6.873-3.455
			c-0.872-1.899-3.034-2.898-5.068-2.231c-0.55,0.181-1.024,0.473-1.43,0.831c-2.306-2.18-5.942-2.157-8.212,0.095
			c-0.829,0.82-1.346,1.824-1.59,2.884c-1.923-0.465-4.028,0.032-5.537,1.529c-2.317,2.297-2.331,6.035-0.034,8.351
			c0.331,0.337,0.702,0.609,1.088,0.849c-0.535,1.275-0.292,2.8,0.741,3.84c0.338,0.342,0.73,0.594,1.148,0.766
			c-0.666,2.923-1.749,5.99-3.29,9.033c-0.566,1.119-1.173,2.191-1.808,3.215l2.734,1.987l4.345,3.156l2.696,1.958
			c2.701-3.469,5.75-6.253,8.786-8.19c0.38,1.604,1.293,3.086,2.728,4.132c3.196,2.32,7.664,1.611,9.984-1.583
			C12.482,40.878,12.788,38.549,12.158,36.477z"/>
		<path clip-path="url(#SVGID_4_)" fill="#FFFFFF" d="M4.055,19.397c0.068-0.976-0.269-1.976-1.011-2.725
			c-1.065-1.074-2.65-1.307-3.951-0.714c0.285-1.796-0.242-3.697-1.62-5.088c-2.297-2.317-6.037-2.333-8.353-0.034
			c-0.829,0.82-1.346,1.824-1.588,2.882c-1.923-0.464-4.03,0.034-5.539,1.531c-2.317,2.295-2.331,6.033-0.034,8.351
			c0.333,0.337,0.704,0.609,1.088,0.849c-0.533,1.273-0.292,2.8,0.741,3.84c1.307,1.316,4.053,1.264,5.442,0.082"/>
		
			<path clip-path="url(#SVGID_4_)" fill="none" stroke="#EC0044" stroke-width="1.2567" stroke-linecap="round" stroke-linejoin="round" stroke-miterlimit="10" d="
			M4.055,19.397c0.068-0.976-0.269-1.976-1.011-2.725c-1.065-1.074-2.65-1.307-3.951-0.714c0.285-1.796-0.242-3.697-1.62-5.088
			c-2.297-2.317-6.037-2.333-8.353-0.034c-0.829,0.82-1.346,1.824-1.588,2.882c-1.923-0.464-4.03,0.034-5.539,1.531
			c-2.317,2.295-2.331,6.033-0.034,8.351c0.333,0.337,0.704,0.609,1.088,0.849c-0.533,1.273-0.292,2.8,0.741,3.84
			c1.307,1.316,4.053,1.264,5.442,0.082"/>
		<path clip-path="url(#SVGID_4_)" fill="#FFFFFF" d="M14.759,22.429c-1.144-0.251-2.327-0.213-3.443,0.093
			c-0.453-0.673-1.024-1.282-1.719-1.788c-2.684-1.95-6.264-1.754-8.717,0.251C0.67,20.789,0.45,20.6,0.212,20.426
			c-3.197-2.32-7.666-1.611-9.986,1.583c-1.429,1.964-1.706,4.413-0.967,6.547c-0.154,0.154-0.301,0.317-0.433,0.498
			c-1.344,1.849-0.933,4.438,0.917,5.782c1.851,1.344,4.438,0.933,5.781-0.917c0.132-0.181,0.243-0.371,0.34-0.566
			c0.048,0,0.097,0,0.145,0c0.482,1.219,1.3,2.327,2.44,3.156c0.013,0.009,0.021,0.013,0.032,0.021
			c-0.36,1.214-0.387,2.492-0.1,3.699"/>
		
			<path clip-path="url(#SVGID_4_)" fill="none" stroke="#EC0044" stroke-width="1.2567" stroke-linecap="round" stroke-linejoin="round" stroke-miterlimit="10" d="
			M14.759,22.429c-1.144-0.251-2.327-0.213-3.443,0.093c-0.453-0.673-1.024-1.282-1.719-1.788c-2.684-1.95-6.264-1.754-8.717,0.251
			C0.67,20.789,0.45,20.6,0.212,20.426c-3.197-2.32-7.666-1.611-9.986,1.583c-1.429,1.964-1.706,4.413-0.967,6.547
			c-0.154,0.154-0.301,0.317-0.433,0.498c-1.344,1.849-0.933,4.438,0.917,5.782c1.851,1.344,4.438,0.933,5.781-0.917
			c0.132-0.181,0.243-0.371,0.34-0.566c0.048,0,0.097,0,0.145,0c0.482,1.219,1.3,2.327,2.44,3.156
			c0.013,0.009,0.021,0.013,0.032,0.021c-0.36,1.214-0.387,2.492-0.1,3.699"/>
		<path clip-path="url(#SVGID_4_)" fill="#FFFFFF" d="M0.916,32.987c-2.66-1.933-3.249-5.657-1.316-8.319 M17.697,29.804
			c-0.265,2.349-2.385,4.042-4.737,3.776c-2.351-0.263-4.041-2.385-3.777-4.735 M8.963,41.287c-1.391,1.914-4.069,2.336-5.983,0.947
			c-1.914-1.391-2.34-4.069-0.949-5.983"/>
		
			<path clip-path="url(#SVGID_4_)" fill="none" stroke="#EC0044" stroke-width="1.2567" stroke-linecap="round" stroke-linejoin="round" stroke-miterlimit="10" d="
			M0.916,32.987c-2.66-1.933-3.249-5.657-1.316-8.319 M17.697,29.804c-0.265,2.349-2.385,4.042-4.737,3.776
			c-2.351-0.263-4.041-2.385-3.777-4.735 M8.963,41.287c-1.391,1.914-4.069,2.336-5.983,0.947c-1.914-1.391-2.34-4.069-0.949-5.983"
			/>
	</g>
</g>
</svg>
