<?xml version="1.0" encoding="utf-8"?>
<!-- Generator: Adobe Illustrator 16.0.3, SVG Export Plug-In . SVG Version: 6.00 Build 0)  -->
<!DOCTYPE svg PUBLIC "-//W3C//DTD SVG 1.1//EN" "http://www.w3.org/Graphics/SVG/1.1/DTD/svg11.dtd">
<svg version="1.1" id="Layer_1" xmlns="http://www.w3.org/2000/svg" xmlns:xlink="http://www.w3.org/1999/xlink" x="0px" y="0px"
	 width="45px" height="45px" viewBox="0 0 45 45" style="enable-background:new 0 0 45 45;" xml:space="preserve">
<style type="text/css">
<![CDATA[
	.st0{fill:none;stroke:#EC0044;stroke-miterlimit:10;}
	
		.st1{clip-path:url(#SVGID_6_);fill:none;stroke:#FFFFFF;stroke-width:0.8633;stroke-linecap:round;stroke-linejoin:round;stroke-miterlimit:10;}
	.st2{clip-path:url(#SVGID_10_);fill:#EC0044;}
	.st3{fill:#EC0044;}
	
		.st4{clip-path:url(#SVGID_4_);fill:none;stroke:#FFFFFF;stroke-width:0.8632;stroke-linecap:round;stroke-linejoin:round;stroke-miterlimit:10;}
	.st5{clip-path:url(#SVGID_2_);fill:#EC0044;}
	
		.st6{clip-path:url(#SVGID_2_);fill:none;stroke:#FFFFFF;stroke-width:0.8633;stroke-linecap:round;stroke-linejoin:round;stroke-miterlimit:10;}
	.st7{fill:none;stroke:#3FBFBB;stroke-miterlimit:10;}
	.st8{opacity:0.3;clip-path:url(#SVGID_12_);}
	
		.st9{clip-path:url(#SVGID_6_);fill:none;stroke:#FFFFFF;stroke-width:0.7891;stroke-linecap:round;stroke-linejoin:round;stroke-miterlimit:10;}
	.st10{clip-path:url(#SVGID_4_);fill:#EC0044;}
	.st11{opacity:0.5;}
	.st12{fill:#FFFFFF;}
	.st13{clip-path:url(#SVGID_6_);fill:#EC0044;}
	
		.st14{clip-path:url(#SVGID_10_);fill:none;stroke:#FFFFFF;stroke-width:0.8633;stroke-linecap:round;stroke-linejoin:round;stroke-miterlimit:10;}
	.st15{clip-path:url(#SVGID_8_);fill:#EC0044;}
	
		.st16{clip-path:url(#SVGID_8_);fill:none;stroke:#FFFFFF;stroke-width:0.8633;stroke-linecap:round;stroke-linejoin:round;stroke-miterlimit:10;}
]]>
</style>
<g>
	<defs>
		<rect id="SVGID_9_" x="1.5" y="1.5" width="42" height="42"/>
	</defs>
	<clipPath id="SVGID_2_">
		<use xlink:href="#SVGID_9_"  style="overflow:visible;"/>
	</clipPath>
	<path class="st5" d="M43.5,22.5c0,11.598-9.402,21-21,21s-21.001-9.402-21.001-21s9.403-21,21.001-21S43.5,10.902,43.5,22.5"/>
	<circle class="st6" cx="22.5" cy="22.5" r="18.361"/>
	<path class="st6" d="M30.774,16.139c0,0-5.764,9.932-5.832,18.615 M27.931,22.482c0,0,3.798-1.258,4.543-2.619 M28.021,22.193
		c0,0-2.088-1.826-1.923-3.371 M26.134,27.879c0,0,5.857-1.041,7.234-3.055 M25.618,27.822c0,0-2.51-3.873-2.351-5.736
		 M33.22,27.125c-1.609,5.141-8.275,7.629-8.275,7.629s-4.057-5.844-2.445-10.986c1.609-5.141,8.275-7.629,8.275-7.629
		S34.83,21.986,33.22,27.125z M33.22,27.125c-1.609,5.141-8.275,7.629-8.275,7.629s-4.057-5.844-2.445-10.986
		c1.609-5.141,8.275-7.629,8.275-7.629S34.83,21.986,33.22,27.125 M22.492,17.779c1.669,5.123-2.319,11.012-2.319,11.012
		s-6.695-2.41-8.363-7.533c-1.668-5.121,2.32-11.014,2.32-11.014S20.823,12.656,22.492,17.779z M14.13,10.244
		c0,0,1.062,11.432,6.043,18.547 M15.49,17.063c0,0,2.365-3.227,2.185-4.77 M15.396,16.773c0,0-2.76-0.277-3.52-1.631
		 M17.154,22.498c0,0,4.171-4.242,4.123-6.68 M16.702,22.752c0,0-4.29-1.699-5.242-3.311"/>
</g>
</svg>
